<?xml version="1.0" standalone="no"?>
<svg viewBox="0 0 200 200" xmlns="http://www.w3.org/2000/svg">
  <path fill="#818479" d="M25.9,-55.6C28.5,-43.3,22.1,-26.2,23.2,-16.1C24.4,-6,33,-3,40.2,4.1C47.3,11.2,52.8,22.5,50.3,30.1C47.7,37.8,37.1,41.8,27.4,43.1C17.7,44.4,8.8,42.9,2.5,38.6C-3.9,34.3,-7.7,27.2,-9.3,21.2C-11,15.3,-10.3,10.4,-20,7.1C-29.6,3.7,-49.6,1.9,-55.1,-3.2C-60.7,-8.2,-51.7,-16.5,-46.7,-27.9C-41.7,-39.3,-40.6,-53.9,-33.5,-63.5C-26.3,-73.2,-13.2,-78,-0.8,-76.6C11.6,-75.3,23.2,-67.8,25.9,-55.6Z" transform="translate(100 100)" />
</svg>
