<?xml version="1.0" standalone="no"?>
<!DOCTYPE svg PUBLIC "-//W3C//DTD SVG 1.1//EN" "http://www.w3.org/Graphics/SVG/1.1/DTD/svg11.dtd" >
<svg xmlns="http://www.w3.org/2000/svg" xmlns:xlink="http://www.w3.org/1999/xlink" version="1.1">
<metadata>
Created by FontForge 20170924 at Thu Apr 12 08:22:01 2018
 By www-data
Copyright (c) 2017 by Cosimo Lorenzo Pancini &#38; Francesco Canovaro. All rights reserved.
</metadata>
<defs>
<font id="CodecColdTrial-Light" horiz-adv-x="2531" >
  <font-face 
    font-family="Codec Cold Trial"
    font-weight="300"
    font-stretch="normal"
    units-per-em="2048"
    panose-1="2 0 5 4 4 0 0 2 0 4"
    ascent="1638"
    descent="-410"
    x-height="1013"
    cap-height="1360"
    bbox="-790.384 -1596.69 3114 1878"
    underline-thickness="95"
    underline-position="-191"
    unicode-range="U+000D-FB06"
  />
<missing-glyph horiz-adv-x="449" 
 />
    <glyph glyph-name="fi" unicode="fi" horiz-adv-x="1207" 
d="M871 910h-483v-910h-116v910h-216v103h216v56q0 69 14.5 134t50.5 115.5t96.5 81.5t152.5 31h122v-99h-101q-63 0 -105 -20t-67.5 -56t-36 -85t-10.5 -107v-51h598v-1013h-115v910zM841 1327q0 33 24.5 57.5t63.5 24.5t64 -24.5t25 -57.5q0 -35 -25 -58.5t-64 -23.5
q-38 0 -63 24t-25 58z" />
    <glyph glyph-name="fl" unicode="fl" horiz-adv-x="1247" 
d="M935 1300q-27 7 -61 14.5t-73 13.5t-82 10t-88 4q-67 0 -113.5 -21.5t-75 -58t-41.5 -86t-13 -105.5v-58h315v-103h-315v-910h-116v910h-216v103h216v67q0 66 15 131t54 116t106 83t170 32q85 0 161 -10.5t135 -23.5t95.5 -25t42.5 -16l-1 -1h1v-1366h-116v1300z" />
    <glyph glyph-name="f_t" unicode="ft" horiz-adv-x="1493" 
d="M872 862h-497v-862h-116v862h-181v104h181v147q0 66 14.5 124.5t47 102.5t85.5 69.5t131 25.5q45 0 77.5 -9.5t43.5 -17.5l-36 -91q-8 3 -18 6q-9 2 -21 4.5t-29 2.5q-92 0 -135.5 -55.5t-43.5 -164.5v-144h497v294h115v-294h362v-104h-363v-508q0 -84 18.5 -138
t48.5 -86t67.5 -44.5t75.5 -12.5q37 0 66 6t50.5 14.5t36.5 17.5t25 14l41 -92q-10 -6 -29 -17.5t-47.5 -22t-66.5 -18.5t-86 -8q-72 0 -130 20.5t-99 66.5t-63 120t-22 180v508z" />
    <glyph glyph-name="ff" unicode="ff" horiz-adv-x="1441" 
d="M965 910h-577v-910h-116v910h-216v103h216v56q0 69 14.5 134t50.5 115.5t96.5 81.5t152.5 31h122v-99h-101q-63 0 -105 -20t-67.5 -56t-36 -85t-10.5 -107v-51h577v56q0 69 14.5 134t50 115.5t96 81.5t152.5 31h123v-99h-102q-62 0 -104 -20t-67.5 -56t-36.5 -85
t-11 -107v-51h314v-103h-314v-910h-115v910z" />
    <glyph glyph-name="ffi" unicode="ffi" horiz-adv-x="1914" 
d="M965 910h-577v-910h-116v910h-216v103h216v56q0 69 14.5 134t50.5 115.5t96.5 81.5t152.5 31h122v-99h-101q-63 0 -105 -20t-67.5 -56t-36 -85t-10.5 -107v-51h577v56q0 69 14.5 134t50 115.5t96 81.5t152.5 31h123v-99h-102q-62 0 -104 -20t-67.5 -56t-36.5 -85
t-11 -107v-51h614v-1013h-116v910h-498v-910h-115v910zM1548 1327q0 33 25 57.5t63 24.5q39 0 64.5 -24.5t25.5 -57.5q0 -35 -25.5 -58.5t-64.5 -23.5q-38 0 -63 24t-25 58z" />
    <glyph glyph-name="ffl" unicode="ffl" horiz-adv-x="1963" 
d="M966 910h-578v-910h-116v910h-216v103h216v56q0 69 14.5 134t50.5 115.5t96.5 81.5t152.5 31h122v-99h-101q-63 0 -105 -20t-67.5 -56t-36 -85t-10.5 -107v-51h578v56q0 69 14.5 134t50.5 115.5t96.5 81.5t152.5 31h122v-99h-102q-62 0 -104 -20t-67.5 -56t-36 -85
t-10.5 -107v-51h546v395h115v-1408h-115v910h-546v-910h-116v910z" />
    <glyph glyph-name="f_j" unicode="fj" horiz-adv-x="1268" 
d="M272 910h-216v103h216v56q0 69 14.5 134t50.5 115.5t96.5 81.5t152.5 31h122v-99h-101q-63 0 -105 -20t-67.5 -56t-36 -85t-10.5 -107v-51h659v-1040q0 -75 -18.5 -136.5t-55 -105t-92.5 -67.5t-131 -24h-82v104h77q49 0 84.5 17t58 47.5t33.5 72.5t11 92v937h-544v-910
h-116v910zM903 1327q0 33 24.5 57.5t63.5 24.5t64 -24.5t25 -57.5q0 -35 -25 -58.5t-64 -23.5t-63.5 24t-24.5 58z" />
    <glyph glyph-name="IJ" unicode="IJ" horiz-adv-x="974" 
d="M181 105h208q90 0 150 22t96.5 64t51.5 102.5t15 136.5v930h117v-931q0 -105 -25 -185t-77.5 -134.5t-133.5 -82t-194 -27.5h-208v105zM185 1360h118v-983h-118v983z" />
    <glyph glyph-name="ij" unicode="ij" horiz-adv-x="1001" 
d="M190 1013h116v-910h383v910h116v-1040q0 -75 -18.5 -136.5t-55.5 -105t-92.5 -67.5t-130.5 -24h-82v104h77q49 0 84.5 17t58 47.5t33 72.5t10.5 92v27h-499v1013zM160 1323q0 33 25 57.5t64 24.5q38 0 63.5 -24.5t25.5 -57.5q0 -35 -25.5 -58.5t-64.5 -23.5q-38 0 -63 24
t-25 58zM655 1323q0 33 24.5 57.5t63.5 24.5t64 -24.5t25 -57.5q0 -35 -25 -58.5t-64 -23.5q-38 0 -63 24t-25 58z" />
    <glyph glyph-name="Germandbls" unicode="SS" horiz-adv-x="1338" 
d="M514 107h296q55 0 105 20.5t88 57.5t60.5 87.5t22.5 109.5q0 58 -21.5 108t-58.5 87t-86.5 58t-106.5 21h-162v89l327 511h-420q-51 0 -96.5 -19.5t-80 -53.5t-54.5 -80t-20 -98v-1005h-118v1010q0 76 28 140t77 110.5t116 73t145 26.5h540v-105l-317 -510h35
q79 0 150.5 -28.5t125.5 -78.5t86 -117.5t32 -145.5q0 -85 -32 -154.5t-85.5 -118.5t-124 -75.5t-148.5 -26.5h-303v107z" />
    <glyph glyph-name="B.long" unicode="BBBB" horiz-adv-x="1673" 
d="M307 755h801q51 0 96.5 19t80 52.5t54.5 79.5t20 99q0 52 -20 98t-54.5 80t-80 53.5t-96.5 19.5h-801v-501zM1161 107q55 0 105 20.5t88.5 57.5t61 87.5t22.5 109.5q0 58 -21.5 108t-58.5 87t-86.5 58t-106.5 21h-858v-549h854zM189 0v1360h923q78 0 145 -26.5t116 -73
t77 -110.5t28 -140q0 -48 -14 -93t-39 -83.5t-59.5 -68t-74.5 -47.5q57 -15 106 -47.5t85 -77.5t56.5 -100.5t20.5 -117.5q0 -85 -32 -154.5t-85.5 -118.5t-124 -75.5t-148.5 -26.5h-980z" />
    <glyph glyph-name="B.longer" unicode="BBBBB" horiz-adv-x="2484" 
d="M307 755h1543q51 0 96.5 19t80 52.5t54.5 79.5t20 99q0 52 -20 98t-54 80t-80 53.5t-97 19.5h-1543v-501zM1904 107q55 0 105 20.5t88 57.5t60.5 87.5t22.5 109.5q0 58 -21.5 108t-58.5 87t-86.5 58t-106.5 21h-1600v-549h1597zM189 0v1360h1664q79 0 146 -26.5t116 -73
t76.5 -110.5t27.5 -140q0 -48 -14 -93t-39 -83.5t-59 -68t-74 -47.5q57 -15 106 -47.5t85 -77.5t56.5 -100.5t20.5 -117.5q0 -85 -32 -154.5t-85.5 -118.5t-124 -75.5t-148.5 -26.5h-1722z" />
    <glyph glyph-name="B.longest" unicode="BBBBBB" horiz-adv-x="2955" 
d="M307 755h2089q51 0 96.5 19t80 52.5t54.5 79.5t20 99q0 52 -20 98t-54 80t-80 53.5t-97 19.5h-2089v-501zM2450 107q55 0 105 20.5t88 57.5t61 87.5t23 109.5q0 58 -21.5 108t-59 87t-87.5 58t-106 21h-2146v-549h2143zM189 0v1360h2210q78 0 145 -26.5t116 -73
t77 -110.5t28 -140q0 -48 -14 -93t-39 -83.5t-59 -68t-74 -47.5q57 -15 106 -47.5t85 -77.5t56.5 -100.5t20.5 -117.5q0 -85 -32 -154.5t-85.5 -118.5t-124 -75.5t-148.5 -26.5h-2268z" />
    <glyph glyph-name="D.long" unicode="DDDD" horiz-adv-x="1673" 
d="M847 105q142 0 252 40.5t185.5 115t114.5 180t39 236.5q0 125 -36.5 231t-110 183.5t-184.5 121t-260 43.5h-540v-1151h540zM189 1360h663q154 0 283.5 -45.5t223.5 -132.5t146 -213t52 -288q0 -152 -46 -277.5t-135.5 -215t-220 -139t-299.5 -49.5h-667v1360z" />
    <glyph glyph-name="D.longer" unicode="DDDDD" horiz-adv-x="2484" 
d="M1659 105q142 0 252 40.5t185.5 115t114.5 180t39 236.5q0 125 -36.5 231t-110.5 183.5t-185 121t-259 43.5h-1352v-1151h1352zM189 1360h1474q154 0 284 -45.5t223.5 -132.5t146 -213t52.5 -288q0 -152 -46.5 -277.5t-136 -215t-220 -139t-299.5 -49.5h-1478v1360z" />
    <glyph glyph-name="D.longest" unicode="DDDDDD" horiz-adv-x="2955" 
d="M2148 105q142 0 252 40.5t185.5 115t114.5 180t39 236.5q0 125 -36.5 231t-110 183.5t-184.5 121t-260 43.5h-1841v-1151h1841zM189 1360h1963q155 0 284.5 -45.5t223.5 -132.5t146 -213t52 -288q0 -152 -46.5 -277.5t-135.5 -215t-219.5 -139t-299.5 -49.5h-1968v1360z
" />
    <glyph glyph-name="E.long" unicode="EEEE" horiz-adv-x="1673" 
d="M189 1360h1345v-107h-1227v-527h1141v-105h-1141v-516h1236v-105h-1354v1360z" />
    <glyph glyph-name="E.longer" unicode="EEEEE" horiz-adv-x="2484" 
d="M189 1360h2150v-107h-2032v-527h1948v-105h-1948v-516h2042v-105h-2160v1360z" />
    <glyph glyph-name="E.longest" unicode="EEEEEE" horiz-adv-x="2955" 
d="M189 1360h2588v-107h-2470v-527h2384v-105h-2384v-516h2479v-105h-2597v1360z" />
    <glyph glyph-name="H.long" unicode="HHHH" horiz-adv-x="2037" 
d="M190 1360h117v-634h1415v634h118v-1360h-118v621h-1415v-621h-117v1360z" />
    <glyph glyph-name="H.longer" unicode="HHHHH" horiz-adv-x="2484" 
d="M188 1360h118v-634h1864v634h118v-1360h-118v621h-1864v-621h-118v1360z" />
    <glyph glyph-name="H.longest" unicode="HHHHHH" horiz-adv-x="2955" 
d="M129 1360h118v-634h2394v634h117v-1360h-117v621h-2394v-621h-118v1360z" />
    <glyph glyph-name="N.long" unicode="NNNN" horiz-adv-x="2037" 
d="M1838 0h-104l-1427 1195v-1195h-118v1360h100l1431 -1198v1198h118v-1360z" />
    <glyph glyph-name="N.longer" unicode="NNNNN" horiz-adv-x="2484" 
d="M2288 0h-104l-1877 1217v-1217h-118v1360h100l1881 -1220v1220h118v-1360z" />
    <glyph glyph-name="N.longest" unicode="NNNNNN" horiz-adv-x="2955" 
d="M2759 0h-103l-2349 1229v-1229h-118v1360h100l2353 -1231v1231h117v-1360z" />
    <glyph glyph-name="R.long" unicode="RRRR" horiz-adv-x="1673" 
d="M1095 496h-788v-496h-118v1360h911q95 0 175 -32.5t138 -90.5t90.5 -137t32.5 -173q0 -78 -23 -146.5t-64 -122.5t-99.5 -92t-128.5 -56l383 -510h-137zM1100 600q69 0 127 25t100.5 69t66.5 103.5t24 128.5t-24.5 129.5t-67 105t-101.5 70t-128 25.5h-790v-656h793z" />
    <glyph glyph-name="R.longer" unicode="RRRRR" horiz-adv-x="2484" 
d="M1842 496h-1535v-496h-118v1360h1659q95 0 175 -32.5t137.5 -90.5t90 -137t32.5 -173q0 -78 -22.5 -146.5t-64 -122.5t-99.5 -92t-128 -56l383 -510h-137zM1848 600q68 0 126.5 25t101 69t66.5 103.5t24 128.5t-24.5 129.5t-67.5 105t-102 70t-128 25.5h-1537v-656h1541z
" />
    <glyph glyph-name="R.longest" unicode="RRRRRR" horiz-adv-x="2955" 
d="M2339 496h-2032v-496h-118v1360h2156q95 0 175 -32.5t137.5 -90.5t90 -137t32.5 -173q0 -78 -22.5 -146.5t-64 -122.5t-99.5 -92t-128 -56l383 -510h-137zM2345 600q69 0 127 25t100.5 69t66.5 103.5t24 128.5t-24.5 129.5t-67.5 105t-102 70t-128 25.5h-2034v-656h2038z
" />
    <glyph glyph-name="F.long" unicode="FFFF" horiz-adv-x="1673" 
d="M189 1360h1345v-107h-1227v-527h1141v-105h-1141v-621h-118v1360z" />
    <glyph glyph-name="F.longer" unicode="FFFFF" horiz-adv-x="2484" 
d="M189 1360h2150v-107h-2032v-527h1948v-105h-1948v-622l-118 1v1360z" />
    <glyph glyph-name="F.longest" unicode="FFFFFF" horiz-adv-x="2955" 
d="M189 1360h2588v-107h-2470v-527h2384v-105h-2384v-622l-118 1v1360z" />
    <glyph glyph-name="P.long" unicode="PPPP" horiz-adv-x="1673" 
d="M307 496v-496h-118v1360h912q95 0 175 -32.5t137.5 -90.5t90 -137t32.5 -173t-32 -173t-89.5 -136.5t-137 -89.5t-174.5 -32h-796zM1100 600q69 0 127 25t100.5 69t66.5 103.5t24 128.5t-24.5 129.5t-67 105t-101.5 70t-128 25.5h-790v-656h793z" />
    <glyph glyph-name="P.longer" unicode="PPPPP" horiz-adv-x="2484" 
d="M307 496v-496h-118v1360h1659q95 0 175 -32.5t137.5 -90.5t90 -137t32.5 -173t-32 -173t-89.5 -136.5t-137 -89.5t-173.5 -32h-1544zM1848 600q68 0 126.5 25t101 69t66.5 103.5t24 128.5t-24.5 129.5t-67.5 105t-102 70t-128 25.5h-1537v-656h1541z" />
    <glyph glyph-name="P.longest" unicode="PPPPPP" horiz-adv-x="2955" 
d="M307 496v-496h-118v1360h2156q95 0 175 -32.5t137.5 -90.5t90 -137t32.5 -173t-32 -173t-89.5 -136.5t-137 -89.5t-173.5 -32h-2041zM2345 600q69 0 127 25t100.5 69t66.5 103.5t24 128.5t-24.5 129.5t-67.5 105t-102 70t-128 25.5h-2034v-656h2038z" />
    <glyph glyph-name="A.long" unicode="AAAA" horiz-adv-x="1692" 
d="M1340 343h-992l-191 -343h-134l763 1360h116l763 -1360h-134zM406 447h876l-433 781l-5 16l-4 -16z" />
    <glyph glyph-name="A.longer" unicode="AAAAA" horiz-adv-x="2094" 
d="M1689 343h-1282l-242 -343h-144l969 1360h116l969 -1360h-144zM480 447h1136l-563 799l-5 16l-4 -16z" />
    <glyph glyph-name="A.longest" unicode="AAAAAA" horiz-adv-x="2675" 
d="M2177 343h-1679l-317 -343h-158l1257 1360h116l1257 -1360h-158zM594 447h1487l-738 799l-5 16l-4 -16z" />
    <glyph glyph-name="V.long" unicode="VVVV" horiz-adv-x="1692" 
d="M1531 1360h134l-763 -1360h-116l-763 1360h134l683 -1228l4 -16l5 16z" />
    <glyph glyph-name="V.longer" unicode="VVVVV" horiz-adv-x="2094" 
d="M1937 1360h138l-969 -1360h-116l-969 1360h138l885 -1246l4 -16l5 16z" />
    <glyph glyph-name="V.longest" unicode="VVVVVV" horiz-adv-x="2675" 
d="M2507 1360h146l-1257 -1360h-116l-1257 1360h146l1165 -1252l4 -16l5 16z" />
    <glyph glyph-name="W.long" unicode="WWWW" horiz-adv-x="2338" 
d="M1696 163h3l481 1197h134l-556 -1360h-119l-468 1192l-467 -1192h-118l-556 1360h134l481 -1197h3l459 1182h130z" />
    <glyph glyph-name="W.longer" unicode="WWWWW" horiz-adv-x="2736" 
d="M1996 151h3l585 1209h130l-656 -1360h-119l-568 1216l-567 -1216h-118l-656 1360h130l585 -1209h3l557 1194h134z" />
    <glyph glyph-name="W.longest" unicode="WWWWWW" horiz-adv-x="3149" 
d="M2296 147h3l679 1213h136l-762 -1360h-121l-659 1231l-660 -1231h-120l-762 1360h136l679 -1213h3l657 1198h134z" />
    <glyph glyph-name="C.01" unicode="CCCC" horiz-adv-x="1806" 
d="M1634 200q-57 -50 -129 -91.5t-154 -71t-171.5 -46t-181.5 -16.5q-118 0 -228 22.5t-206 65t-175.5 104.5t-136 140.5t-88 172.5t-31.5 201q0 108 31.5 202.5t88 173t136 140.5t175.5 104.5t206 65t228 22.5q92 0 181 -16t171 -45t154 -71t129 -93l-70 -77
q-50 46 -114.5 82.5t-138 62t-153.5 39t-159 13.5q-100 0 -194.5 -19t-177.5 -55.5t-152 -89t-119 -119.5t-77.5 -147.5t-27.5 -172.5t27.5 -172t77.5 -147t119 -119.5t152 -88.5t177.5 -55t194.5 -19q79 0 158.5 13.5t153.5 39t139 62t115 82.5z" />
    <glyph glyph-name="C.02" unicode="CCCCC" horiz-adv-x="2168" 
d="M1898 200q-69 -50 -150.5 -91.5t-174 -71t-195 -46t-212.5 -16.5q-139 0 -267.5 20t-240 59.5t-203 99t-156.5 138t-101 176t-36 213.5q0 117 36 215t101 176.5t156.5 138t203 99t240 59.5t267.5 20q220 0 406 -61t324 -164l-67 -79q-61 46 -135.5 82.5t-159.5 61.5
t-178 38t-190 13q-123 0 -235.5 -16t-210.5 -49t-177.5 -82.5t-136.5 -116t-88 -150.5t-31 -185t31 -184.5t88 -149.5t136.5 -115.5t177.5 -82.5t210.5 -49t235.5 -16q97 0 190 13.5t178 38.5t160 61t136 82z" />
    <glyph glyph-name="C.03" unicode="CCCCCC" horiz-adv-x="2654" 
d="M2319 200q-84 -50 -189.5 -91.5t-225.5 -71t-251 -46t-266 -16.5q-170 0 -324.5 18t-286 55t-238 94.5t-182 135.5t-116 178.5t-40.5 224.5t40.5 225t116 180t182 136t238 94t286 55t324.5 18q134 0 264.5 -16t250.5 -45t225.5 -71t189.5 -93l-70 -79q-77 46 -175 82.5
t-209.5 62t-232.5 39t-243 13.5q-229 0 -423 -33.5t-335.5 -106t-221.5 -186.5t-80 -275q0 -107 36 -193t103 -152.5t162 -114.5t213 -79t255.5 -45.5t290.5 -14.5q121 0 242.5 13.5t233.5 39t210.5 62t174.5 82.5z" />
    <glyph glyph-name="L.01" unicode="LLLL" horiz-adv-x="1484" 
d="M232 1360h118v-1255h1033v-105h-1151v1360z" />
    <glyph glyph-name="L.02" unicode="LLLLL" horiz-adv-x="1778" 
d="M189 1360h118v-1255h1350v-105h-1468v1360z" />
    <glyph glyph-name="L.03" unicode="LLLLLL" horiz-adv-x="2437" 
d="M189 1360h118v-1255h2014v-105h-2132v1360z" />
    <glyph glyph-name="T.01" unicode="TTTT" horiz-adv-x="1605" 
d="M748 1256h-683v104h1486v-104h-685v-1256h-118v1256z" />
    <glyph glyph-name="T.02" unicode="TTTTT" horiz-adv-x="2190" 
d="M1031 1256h-1003v104h2126v-104h-1005v-1256h-118v1256z" />
    <glyph glyph-name="T.03" unicode="TTTTTT" horiz-adv-x="2636" 
d="M1258 1256h-1212v104h2543v-104h-1213v-1256h-118v1256z" />
    <glyph glyph-name=".notdef" horiz-adv-x="449" 
 />
    <glyph glyph-name="NULL" horiz-adv-x="0" 
 />
    <glyph glyph-name="NULL" horiz-adv-x="0" 
 />
    <glyph glyph-name="nonmarkingreturn" unicode="&#xd;" horiz-adv-x="449" 
 />
    <glyph glyph-name="space" unicode=" " horiz-adv-x="449" 
 />
    <glyph glyph-name="quotesingle" unicode="'" horiz-adv-x="497" 
d="M294 874h-91l-9 524h112z" />
    <glyph glyph-name="parenleft" unicode="(" horiz-adv-x="673" 
d="M616 1588q-88 -72 -154 -171.5t-109.5 -217t-65.5 -249.5t-22 -269q0 -138 22 -269.5t65.5 -248.5t109.5 -216t154 -172h-126q-96 84 -161.5 187.5t-105 219.5t-57 242t-17.5 256q0 131 17 257t57 241.5t104.5 219t159.5 189.5z" />
    <glyph glyph-name="asterisk" unicode="*" horiz-adv-x="851" 
d="M390 1170l-3 246h80l-4 -245l211 124l40 -69l-215 -119l214 -121l-39 -68l-211 125l3 -243h-79l3 244l-211 -124l-40 69l214 117l-213 120l41 69z" />
    <glyph glyph-name="plus" unicode="+" horiz-adv-x="1406" 
d="M752 1075v-410h410v-99h-410v-414h-100v414l-409 1v98h409v410h100z" />
    <glyph glyph-name="comma" unicode="," horiz-adv-x="495" 
d="M204 129h117l-139 -317h-89z" />
    <glyph glyph-name="hyphen" unicode="-" horiz-adv-x="742" 
d="M122 532h502v-100h-502v100z" />
    <glyph glyph-name="period" unicode="." horiz-adv-x="494" 
d="M158 68q0 35 25 61t64 26q19 0 35.5 -7t28.5 -19t18.5 -27.5t6.5 -33.5q0 -35 -25.5 -60.5t-63.5 -25.5q-39 0 -64 25.5t-25 60.5z" />
    <glyph glyph-name="slash" unicode="/" horiz-adv-x="804" 
d="M-35 -208l657 1635h118l-657 -1635h-118z" />
    <glyph glyph-name="zero" unicode="0" 
d="M2478 1093v-587h-2404v587h910q0 30 5.5 58t20.5 53q12 29 26 52.5t37 41.5q39 42 91 62q28 12 55.5 17t56.5 5q33 0 61.5 -6.5t53.5 -15.5q27 -14 50.5 -29.5t45.5 -36.5q35 -38 60 -94q11 -27 15.5 -54t4.5 -53h911zM1030 1194q-20 -49 -20 -101q0 -58 20 -106
q10 -22 24.5 -43.5t29.5 -42.5q20 -17 41.5 -32t45.5 -25q46 -23 105 -23q31 0 56.5 4.5t47.5 16.5q48 19 83 57q22 20 35.5 41t26.5 43q20 54 20 110q0 20 -3.5 43.5t-11.5 47.5q-14 40 -43 72q-14 20 -29.5 33.5t-34.5 25.5l-76 36q-16 3 -33 6t-38 3q-29 0 -55.5 -5.5
t-51.5 -19.5q-50 -19 -85 -57q-17 -19 -30.5 -39.5t-23.5 -44.5zM1142 936l314 317q62 -80 62 -160q0 -24 -3.5 -45.5t-11.5 -41.5q-8 -19 -17.5 -37t-23.5 -33h-320zM1095 928q-14 17 -25 36.5t-19 39.5q-9 18 -12.5 40.5t-3.5 48.5q0 18 3.5 39t12.5 43q7 35 40 68h318z
M1135 207q2 -4 4.5 -11t5.5 -14q2 -10 2 -14v-32q0 -5 -2 -11l-6 -15l-4 -14q-6 -4 -10.5 -10t-8.5 -10q-6 -5 -11 -10.5t-10 -9.5q-9 -5 -15.5 -7t-12.5 -4q-10 -2 -15 -2h-17q-9 0 -19 2t-23 4q-12 6 -18.5 13t-17.5 14q-15 14 -21 35q-4 10 -6 19.5t-2 23.5v14q0 4 2 14
q4 17 12 25q4 8 7.5 13t7.5 11q9 5 13.5 9.5t10.5 9.5l12 4l17 6q5 0 11.5 1t13.5 1q10 0 17 -1t15 -1q6 -4 12.5 -6t15.5 -4q5 -5 10 -9.5t11 -9.5q4 -6 8.5 -11t10.5 -13zM2195 207q4 -4 6.5 -11t4.5 -14q4 -7 4 -14v-32q0 -7 -4 -11q-2 -7 -4.5 -15t-6.5 -14l-16 -20
l-12 -10l-14 -10q-5 -5 -12 -7t-13 -4q-8 -2 -14 -2h-17q-19 0 -43 6q-8 6 -16 13t-17 14q-8 6 -14 14t-8 21q-6 10 -7.5 19.5t-1.5 23.5q0 8 1 14t1 14l6 14t7 11q2 8 6 13t10 11q3 5 10.5 9.5t12.5 9.5q4 2 11 4t13 6q11 0 17 1t12 1q9 0 17 -1t14 -1q6 -4 13 -6t12 -4
l26 -19q2 -6 8 -11t8 -13zM2433 260l1 1q1 1 6 1h38v-219h-38v160l-5 -9v-8q0 -2 -2 -4q-6 -16 -13 -34.5t-16 -31.5q-6 -20 -12 -36.5t-14 -36.5h-37l-55 139q-6 3 -6 12q0 4 -1 4l-2 2v-157h-42v219h40q5 0 6.5 -1t4.5 -1q2 -2 3 -2t4 -2l7 -4q0 -2 2 -3.5t2 -3.5
q4 -18 11 -32.5t16 -34.5l12 -33q3 -8 6 -15l6 -14v-14q3 0 4 -4q0 4 1 4v14l11 13l44 116q0 1 2 3l2 4q0 1 3 3l3 1q2 2 4 2t4 2zM1329 262h38v-219h-36l-100 146l-4 5v2q-3 4 -3 5q-4 1 -4 4q0 4 -7 4v-166h-37v219h33q4 0 9.5 -1t5.5 -3q3 -2 5 -2t4 -2l22 -33
q6 -8 11 -16.5t10 -19.5q13 -13 24 -29t25 -29q0 -2 1 -4.5t1 -6.5l1 -3q0 -2 1 -3v152zM672 262l94 -219h-25q-9 0 -16 4q-2 2 -4 6.5t-6 8.5l-14 27h-100l-9 -27q0 -6 -4 -6q-2 -5 -4 -5l-3 -4q-2 0 -4.5 -1t-6.5 -1q0 -2 -2 -2h-27l96 219h35zM260 262h139v-39h-100v-49
h82v-41h-82v-51h100v-39h-139v219zM839 659q1 7 2 11t1 10q0 12 -3 21q0 7 -4.5 10.5t-6.5 9.5q-2 3 -4.5 6.5t-6.5 7.5l-7 6q-2 3 -9 9q-4 2 -8 4.5t-11 4.5q-5 0 -9.5 0.5t-10.5 0.5q-3 0 -8.5 -0.5t-12.5 -0.5q-6 -2 -10 -4.5t-8 -4.5q-4 -6 -7.5 -8.5t-7.5 -6.5
q-13 -7 -14 -14q-4 -6 -5 -9.5l-3 -10.5q-1 -5 -1.5 -10t-0.5 -11t2 -14.5t4 -15.5t6.5 -12.5t11.5 -12.5q10 -15 25 -15q10 -6 29 -6h20q15 5 19 8q11 4 16 13q3 4 6 7.5t5 8.5q2 4 6.5 9t4.5 9zM1966 659v42l-7 20q-5 7 -15 14q-1 4 -6 6.5t-10 8.5l-4 2t-5 2l-7 5
q-7 0 -12 0.5t-10 0.5q-6 0 -11 -0.5t-9 -0.5l-22 -9q-3 -6 -6 -8.5t-7 -6.5q-3 -4 -6.5 -7t-5.5 -7q-2 -6 -4.5 -9.5t-2.5 -10.5q-6 -9 -6 -21q0 -6 3 -14.5t6 -15.5q4 -15 16 -25q7 -15 26 -15q10 -6 29 -6h22q3 2 8 4t8 4l10 6t6 7q11 8 15 16zM74 262h158v-24
q0 -4 -1 -6q0 -3 -2 -5l-4 -4l-105 -143h1l2 2h108v-39h-164v13q0 11 2 13q0 2 5 7v4l2 4q2 2 4 3.5t2 6.5l94 129h-102v39zM1839 203q-4 -4 -7 -10.5t-7 -14.5q-2 -4 -4 -10t-2 -14q0 -7 2 -15l4 -12q2 -7 6 -14.5t8 -10.5q4 -4 9.5 -8.5t14.5 -7.5q12 -4 27 -4q5 0 10 1
t12 1q3 2 8 5t8 7q3 0 9 2h13q3 0 9 -2q2 -1 3.5 -3t3.5 -4l6 -7q-3 -4 -6 -7.5t-7 -7.5q-7 -5 -11.5 -8t-12.5 -6q-7 -4 -11.5 -5t-10.5 -3t-11 -2h-12q-12 0 -23.5 2t-21.5 4q-10 5 -18.5 12t-16.5 15q-16 13 -22 35q-4 10 -7 19.5t-3 23.5q0 10 1 14l4 14q1 7 3 14t6 11
q6 8 8.5 13t9.5 11q14 9 25 19q4 2 9.5 4t18.5 6q5 0 12 1t15 1h13q4 0 10 -2t10.5 -3t11.5 -3q8 -4 12.5 -6.5t11.5 -7.5l13 -17l-6 -8q-2 -1 -5 -4l-2 -4h-15q-7 0 -16 4l-16 10q-10 2 -12 2h-10q-17 0 -27 -7q-17 -1 -24 -13zM1690 151l7 -10.5t3 -7.5q6 -8 6 -20
q0 -15 -8 -29l-8 -12l-9 -10q-7 -6 -11.5 -9.5t-12.5 -5.5q-5 -2 -14 -3t-15 -1q-8 0 -14.5 1l-19.5 3q-5 2 -10 6.5t-11 13.5q-4 1 -6 5l-4 8q-7 2 -7 9l7 5q2 2 4 2h4l2 2h10q4 0 4 -2q7 0 9 -2q7 -5 10.5 -6.5t5.5 -3.5q2 0 6 -1t10 -1h5q2 0 6 2q5 1 8 2t7 3q6 6 7 9
q2 4 4 7.5t2 7.5q0 7 -6 10q-5 6 -7 6q-2 4 -7.5 5t-7.5 2q-6 0 -14 7q-5 0 -9 1t-9 7q-11 3 -14.5 6t-7.5 7q-12 4 -12 14q-6 10 -6 25q0 18 6 26l6 11l8 10q4 2 10 4t13 6q6 0 10.5 1t13.5 1q4 0 8.5 -1t11.5 -1l15 -6q3 -4 6.5 -6.5t7.5 -7.5q4 -2 7.5 -5.5t3.5 -7.5
l-7 -4q-4 -2 -7 -4.5t-3 -3.5h-18l-5 1l-7 5q-2 0 -4 1t-4 1h-17q-2 0 -3 -1t-5 -3q-2 -3 -6 -6q-1 -3 -1 -10q0 -5 1 -5q2 -2 3 -5.5t3 -7.5h6q1 0 5 -2q5 -1 9.5 -3t10.5 -4l9 -2q5 -4 9 -5t9 -5q5 -2 10 -5t8 -8zM1579 336q-12 7 -16 20q-7 17 -7 31v16l11 20l12 13
q6 7 12 9q3 7 9.5 8t9.5 3q4 0 8 1.5t10 1.5q4 0 10.5 -1.5t10.5 -1.5q5 -2 8.5 -3t7.5 -8q2 -2 5.5 -4.5t6.5 -4.5l13 -13l8 -20q0 -4 1 -9t1 -7q0 -6 -1 -14t-5 -17q-5 -13 -17 -20q-5 -4 -9.5 -7.5t-11.5 -10.5q-5 -1 -12 -1.5t-16 -0.5h-15q-4 0 -10 2q-18 7 -24 18z
M2284 336q-7 -4 -13.5 -7.5t-11.5 -10.5q-8 -2 -12 -2h-30q-5 0 -13 2q-7 4 -12.5 8.5t-10.5 9.5q-6 6 -13 20q-2 9 -4.5 17t-2.5 14q0 2 1 7t1 9q3 5 4 10t4 10q2 3 5 6t5 7q6 4 18 9q3 7 8 8t7 3q6 0 9 1.5t10 1.5q2 0 8.5 -1.5t11.5 -1.5q4 -2 7.5 -3t6.5 -8l17 -9
q2 -4 4 -7t5 -6q2 -5 4 -9.5t3 -10.5q2 -4 3 -9t1 -7q0 -6 -1 -14t-5 -17q0 -6 -5 -11zM2166 127q5 12 5 27q0 16 -5 24q-3 9 -8 15.5t-8 9.5q-10 10 -24 13q-4 5 -12 6t-17 1q-12 0 -25 -7q-8 -1 -13 -4t-11 -9q-4 -3 -7.5 -9.5t-8.5 -15.5q0 -4 -1 -10t-1 -14q0 -9 1 -15
t1 -12q4 -8 8 -14t8 -11q6 -4 11 -8.5t13 -7.5q7 -2 14 -3t11 -1q9 0 17 1t12 3q8 3 14 7.5t10 8.5q11 11 16 25zM1104 127q4 11 4 27q0 13 -4 24q-2 9 -6.5 15.5t-13.5 9.5q-2 6 -7.5 9t-11.5 4q-11 7 -30 7q-14 0 -25 -7q-11 -1 -23 -13q-6 -3 -9 -9.5t-5 -15.5
q-5 -5 -5 -10v-29q0 -5 5 -12q2 -7 5 -14.5t9 -10.5q6 -4 11 -8.5t12 -7.5q11 -4 25 -4q19 0 30 4q13 7 19 16q9 3 13.5 10.5t6.5 14.5zM774 262h139v-39h-100v-55h82v-39h-82v-86h-39v219zM570 223h-58v-180h-43v180h-62v39h163v-39zM1188 864q-19 7 -37 19t-35 26h322
q-18 -14 -36 -26t-36 -19q-24 -6 -45.5 -11t-44.5 -5q-25 0 -45.5 5t-42.5 11zM1389 262h165v-39h-65v-180h-39v180h-61v39zM1366 1315q18 -8 36 -20.5t36 -22.5h-325q38 30 75 43q37 18 88 18q48 0 90 -18zM559 604l-47 68q4 0 11 4q8 5 9 10q9 5 9 11v26q0 1 -2 5
q-3 10 -11 15q-5 9 -14 9q-2 5 -6.5 6t-9.5 1h-57v-155h24v64h23l40 -56q1 -4 8 -6q2 -2 3 -2h20zM1169 604l-67 155h-22l-65 -155h11q7 0 9 2q0 2 7 6l11 27h76l13 -27q1 -4 5 -6q2 -2 8 -2h14zM1930 721q3 -2 8 -7.5t6 -12.5q4 -7 4 -21q0 -12 -4 -23q-1 -5 -6 -9.5
t-8 -6.5q-5 -4 -9 -6.5t-8 -7.5q-9 -4 -23 -4q-6 0 -12 1t-10 3q-5 5 -10.5 7.5t-9.5 6.5q-3 2 -6 6.5t-3 9.5q-4 7 -5 12t-1 11q0 10 6 21q0 7 3 12.5t6 7.5q4 4 9.5 7t10.5 5q9 4 22 4q5 0 11.5 -1t11.5 -3zM801 721q7 -2 9.5 -7.5t4.5 -12.5q4 -7 4 -21q0 -11 -4 -23
q-2 -5 -4.5 -9.5t-9.5 -6.5q-1 -4 -6 -7l-11 -7q-9 -4 -22 -4q-11 0 -23 4q-4 5 -9 7.5t-9 6.5q-2 2 -5.5 6.5t-5.5 9.5q-4 12 -4 23q0 12 4 21q2 7 5.5 12.5t5.5 7.5q4 4 9 7t9 5q5 2 12.5 3t10.5 1q13 0 22 -4q8 -2 11.5 -5t5.5 -7zM2126 759h-22v-120q-1 2 -2 5t-3 4
l-75 104l-3 7h-24v-155h22v121l2 -2l87 -119h18v155zM2218 332h31l6 3q3 3 4 5q6 0 14 5q2 5 3 7t4 4q0 3 3 8t3 10v34q-3 6 -7 10.5t-6 7.5q-10 4 -18 12h-43q-6 -4 -9.5 -7t-9.5 -5q-5 -3 -7.5 -7.5t-4.5 -10.5q-1 -4 -1.5 -7t-0.5 -7v-20q0 -13 5 -18q2 -2 4.5 -4t4.5 -7
l7 -3q2 -2 4 -2q4 -4 7 -5t7 -3zM296 690q5 12 5 20q0 9 -5 18q0 2 -5 7l-6 6q-2 3 -5 7t-10 4q-3 5 -8.5 6t-9.5 1h-52v-155h16v59h36q4 0 9.5 0.5t8.5 2.5q10 4 15 10q4 2 7.5 6t3.5 8zM1579 408q-6 -14 -6 -21v-8q0 -4 3 -5q0 -10 5 -18q0 -2 2 -4t4 -7l5 -3q2 -2 11 -2
q2 -4 5.5 -5t5.5 -3h27q6 2 9.5 3t6.5 5l6 2l4 3q2 5 4.5 7t2.5 4q3 3 4 8t3 10q0 2 1 5.5t1 7.5q0 2 -1 8t-5 13q0 6 -4 10.5t-6 7.5q-3 1 -8 6l-10 6h-42q-4 -4 -10 -7l-10 -5l-5 -8q-3 -5 -3 -10zM997 759h-18v-120l-2 4q-2 6 -2 5l-74 104q-5 0 -6 7h-25v-155h21v124h2
l2 -1v-4l86 -119h16v155zM2115 381q-5 -1 -8.5 -2t-5.5 -2l45 -61h-12l-6 2q-4 0 -4 9l-39 50h-28v-61h-15v140h57q3 0 9 -2q2 -2 6.5 -5.5t5.5 -5.5q4 -2 5 -5.5t7 -7.5v-27q-4 -4 -5 -8t-3 -6zM1342 381q-3 -3 -11 -4l47 -61h-15q-3 0 -3 2q-6 0 -6 9l-39 50h-28v-61h-13
v140h56q2 0 6 -2q10 -1 18 -11q0 -2 3 -5.5t3 -7.5q2 -2 2 -6v-14q0 -1 -2 -7q0 -10 -4 -14l-5 -4q-3 -3 -9 -4zM412 759h-98v-155h98v21h-74v47h58v18h-58v45h74v24zM1721 759h-93v-155h93v21h-69v47h58v18h-58v45h69v24zM2460 454q6 2 5 2h13v-140h-12v114l-2 -2v-2
q-4 -8 -6.5 -17.5t-8.5 -14.5q-5 -7 -7 -12.5t-7 -14.5q-2 -9 -3 -15.5t-5 -9.5q-3 -8 -6.5 -12.5t-5.5 -13.5h-15q-10 14 -15 27t-10 28q-4 12 -12 26.5t-12 28.5v2h-4v-112h-14v140h14q4 0 6 -2l2 -2v-7l49 -105q0 -4 2 -4l1 2v4q0 2 8 6l41 97q2 7 3 7t1 2zM1480 759h-22
v-104q0 -4 -2 -8q-1 -7 -10 -12q0 -2 -4 -3.5t-6 -6.5l-9 -2h-9q-7 0 -13 2q-5 5 -8.5 6.5t-5.5 3.5l-11 12q0 3 -1 7.5t-1 11.5v93h-20v-93q0 -7 1 -11.5t1 -7.5q0 -8 6 -14q3 -8 10 -12q2 -4 4.5 -6.5t8.5 -4.5q2 -2 6.5 -3t7.5 -3q4 0 7 -1.5t8 -1.5t8.5 1.5t11.5 1.5
q2 2 5 3t7 3q3 2 6 4.5t6 6.5q3 2 5 5.5t7 6.5q0 4 3 7t3 7v112zM664 632q2 5 3 8t1 8q0 12 -5.5 20t-12.5 14q-2 0 -3.5 2t-5.5 4l-4 2h-4q-1 0 -1 4q-8 0 -9 1q-8 2 -9.5 3t-5.5 3q-6 5 -9 5q-3 4 -3 6v15q0 1 1.5 2.5t1.5 3.5q2 0 4.5 1t4.5 1q6 2 5 2h10q2 -2 4 -2
q7 0 8 -4q1 -3 4 -3h2q9 0 14 5l4 2q0 2 -2 4l-5 4q-2 1 -4.5 4t-6.5 5q-2 0 -4 2.5t-5 4.5q-5 0 -7 0.5t-4 0.5q-7 0 -12 -0.5t-8 -0.5q-5 -2 -7 -4.5t-6 -4.5q-2 -6 -5.5 -8.5t-8.5 -6.5q0 -4 -2 -7t-2 -9t4 -18l12 -11q2 -2 6 -5t7 -3q5 -2 8 -4t7 -2q1 -2 6 -2t7 -2
l6 -2q2 0 4 -2t2 -3t2 -6q2 -2 2 -7v-9q0 -2 -2 -4t-2 -4t-2 -3q-2 -5 -6 -6l-4 -1q-4 0 -8 -1t-5 -1q-4 0 -7 1t-6 1q-2 0 -3.5 1t-1.5 6l-4 1q-4 4 -11 4h-7l-4 -2l-5 -2q0 -3 3 -3q0 -3 2 -5q0 -4 4 -4v-6h5q7 -7 16 -9t19 -2h10q5 0 11 2q4 2 8.5 4t6.5 5q13 5 14 17z
M1741 316h-18v140h20q3 0 4 -4l74 -104q2 0 2 -5l2 -1v114h14v-140h-12l-82 114v4h-4v-118zM1596 632q9 7 9 16q0 12 -5.5 20t-12.5 14q-6 4 -6 6h-4l-4 2h-3q-4 0 -5 4h-4q-2 0 -5 1q-2 2 -4 3t-7 3l-7 5q-2 1 -3 2l-2 2l-1 2q0 1 -1 3t-1 4q0 4 4 8q0 2 4 6q2 0 3 1t4 1
q2 2 11 2l4 -1q2 -1 5 -1q3 -3 8 -4q6 -3 8 -3q6 0 8 5l5 2q0 2 -2.5 4t-4.5 4q0 1 -3 4l-5 5q-3 0 -5.5 2.5t-6.5 4.5h-6l-5 1q-6 0 -10 -0.5t-8 -0.5l-13 -9q-5 -6 -7 -8.5t-6 -6.5q-1 -4 -3 -7t-2 -9q0 -4 2 -7.5t3 -10.5l10 -11q5 -2 7.5 -5t6.5 -3q4 -2 7.5 -4t6.5 -2
q4 -2 7 -2t6 -2q6 0 10 -4l4 -3q2 -2 2 -6q2 -2 2 -6v-9q0 -3 -2 -5q0 -6 -6 -7q-6 -5 -7 -6t-3 -1q-7 0 -8 -1t-5 -1q-3 0 -6.5 1t-5.5 1q-2 1 -4 3l-4 4l-2 1q-5 4 -10 4h-7q-2 0 -4 -2l-6 -2q2 -1 2 -2t2 -1q0 -3 1 -4l3 -3v-2q6 -6 9 -6q7 -7 14.5 -9t17.5 -2h12
q3 0 11 2q3 2 6.5 4t7.5 5l5 8q3 3 4 9zM78 350q-6 6 -7 17l-3 10q-1 3 -1 10t4 16l2 10t5 10l4 6l5 7q2 2 6.5 4.5t6.5 4.5q6 7 11 8t9 3q3 0 8 1.5t10 1.5q7 0 14.5 -1.5t13.5 -5.5q8 -2 12.5 -6.5t8.5 -9.5q-2 -2 -4 -2v-4h-13q-4 2 -7 5t-7 3h-36l-22 -12
q-4 -3 -7.5 -7.5t-4.5 -10.5q-2 -7 -3 -13t-1 -8q0 -9 4 -13q0 -5 0.5 -10t0.5 -8l5 -4q4 -1 6 -7l7 -4q3 -1 8 -1q3 -4 5.5 -5t6.5 -3h33q2 2 7 3t9 5v29h-14v2q-2 0 -3 1.5t-3 3.5h-2q-1 1 -1 3v4h36v-51q-2 -5 -3.5 -6t-5.5 -8h-12q-8 -2 -12 -2h-34q-4 0 -9 3.5t-11 7.5
q-2 0 -6.5 2.5t-6.5 6.5q-3 4 -5 6.5t-4 7.5zM240 438v-44h56v-15h-56v-47h67v-16h-84v140h84v-18h-67zM1171 438v-44h60v-15h-60v-47h68v-16h-84v140h84v-18h-68zM2375 759h-20q-3 0 -8 -5q-6 -5 -6 -10l-37 -47h-2q0 -2 -2 -2v2l-39 47q-1 7 -4 10q-5 5 -11 5h-18l58 -77
v-2q0 -2 2 -2l2 -2v-72h21v70q2 0 2 2l2 4v2zM641 456v-85q0 -7 2 -10t5 -5q0 -6 3.5 -9.5t5.5 -4.5q0 -2 4.5 -4t6.5 -4q6 -2 8 -2h16q1 0 5 2l9 4q2 1 3.5 2t3.5 2q3 1 8 14q4 3 4 15v85h14v-85q0 -12 -4 -23t-12 -16q-2 -5 -6.5 -9.5t-8.5 -4.5q-8 -1 -13.5 -1.5
t-10.5 -0.5t-11 0.5t-14 1.5q-2 0 -6.5 4.5l-9.5 9.5l-10 16q-1 6 -3.5 11t-2.5 12v85h14zM2253 625h-69v134h-21v-155h90v21zM1271 625h-67v134h-20v-155h87v21zM1452 336q1 2 2 3.5t2 3.5q2 2 3 6.5t1 6.5q0 9 -2 11t-3 4.5t-3 4.5q-1 1 -8 3q-4 0 -6 2t-6 2q-8 0 -14 6
q-9 0 -13 7q-2 0 -3.5 3.5t-3.5 7.5v22q0 1 2 7q0 8 7 9l6 7q2 1 3.5 2t3.5 2q5 0 7.5 1.5t8.5 1.5l6 -2l4 -1q4 0 5 -1t5 -3q2 0 4 -3.5t2 -5.5q4 0 6 -3l1 -2l-2 -2q-6 -2 -9 -2h-6q-2 2 -2 4h-23q-9 0 -9 -2q-5 -7 -5 -8q-4 0 -4 -8q0 -5 4 -6q0 -5 3 -6q0 -1 3 -4l4 -1
q4 -4 7.5 -4t7.5 -3q3 0 4 -1l2 -1q4 0 8 -5h4q2 0 4 -2h2q5 -4 8.5 -7t5.5 -4q1 -5 1.5 -10.5t0.5 -9.5v-10q0 -5 -4 -6q-3 -4 -5.5 -7.5t-6.5 -5.5q-2 -2 -6 -5.5t-6 -3.5q-6 -2 -10 -2h-9q-11 0 -18.5 1t-12.5 10q-2 0 -3.5 2.5t-5.5 4.5v4l-2 2l4 2h7q1 0 3 -1t4 -1
q4 -4 6.5 -5t4.5 -3h22q8 0 12 4zM1069 316l-59 140h6q6 0 8 -2t3 -2t3 -7l43 -103v-2l2 -6v6l2 2q5 14 13 27.5t12 24.5q4 16 10 28t12 23q0 7 1.5 7t1.5 2q6 2 7 2h11q-8 -18 -15.5 -35t-16.5 -34q-4 -9 -7 -18.5t-6 -18.5l-16 -34h-15zM532 438v-49h60v-12h-60v-61h-16
v140h85v-18h-69zM1959 438v-49h54v-12h-54v-61h-16v140h81v-18h-65zM879 456v-124h63v-16h-80v140h17zM371 316v122h-46v18h105v-18h-47v-122h-12zM784 456v-124h64v-16h-80v140h16zM270 728q2 -1 3 -4t3 -5q4 -4 4 -9v-4q0 -5 -4 -9q-2 -2 -3 -4.5t-3 -2.5l-4 -4l-4 -4h-46
v53h36q4 0 10 -2q1 0 4 -3zM1325 389q4 0 6 3q4 4 9 4l2 5q0 2 5 6q0 1 1 4t1 7q0 2 -1 3.5t-1 4.5q-7 3 -7 8q-5 0 -9 4h-44v-49h38zM2101 392q4 4 7 4q7 7 7 11q2 4 2 11q0 4 -2 8q0 2 -7 8q-3 0 -7 4h-44v-49h36q3 0 8 3zM1525 456v-140h-18v140h18zM518 701l-4 -7
q-2 0 -3 -2t-3 -2q-2 -2 -10 -2h-33v47h33q4 0 10 -2q2 0 6 -5q1 -2 2 -3.5t2 -3.5q3 -2 3 -9q0 -5 -3 -11zM684 129l-27 69q0 2 -1 3l-1 2q0 4 -3 6v-6l-1 -2q-1 -1 -1 -3l-27 -69h61zM1093 727v-4l27 -64h-59l30 64v5zM1755 82q6 0 6 -6q2 -2 2 -5v-4q0 -9 -2 -11
q0 -5 -6 -9q-3 0 -6 -4h-17q-4 4 -11 4q0 2 -5 9q-2 2 -2 11v4q0 3 2 5l3 4l2 2q7 4 11 4q1 3 4 3h10q3 0 3 -3q3 0 6 -4z" />
    <glyph glyph-name="one" unicode="1" 
d="M2478 1093v-587h-2404v587h910q0 30 5.5 58t20.5 53q12 29 26 52.5t37 41.5q39 42 91 62q28 12 55.5 17t56.5 5q33 0 61.5 -6.5t53.5 -15.5q27 -14 50.5 -29.5t45.5 -36.5q35 -38 60 -94q11 -27 15.5 -54t4.5 -53h911zM1030 1194q-20 -49 -20 -101q0 -58 20 -106
q10 -22 24.5 -43.5t29.5 -42.5q20 -17 41.5 -32t45.5 -25q46 -23 105 -23q31 0 56.5 4.5t47.5 16.5q48 19 83 57q22 20 35.5 41t26.5 43q20 54 20 110q0 20 -3.5 43.5t-11.5 47.5q-14 40 -43 72q-14 20 -29.5 33.5t-34.5 25.5l-76 36q-16 3 -33 6t-38 3q-29 0 -55.5 -5.5
t-51.5 -19.5q-50 -19 -85 -57q-17 -19 -30.5 -39.5t-23.5 -44.5zM1142 936l314 317q62 -80 62 -160q0 -24 -3.5 -45.5t-11.5 -41.5q-8 -19 -17.5 -37t-23.5 -33h-320zM1095 928q-14 17 -25 36.5t-19 39.5q-9 18 -12.5 40.5t-3.5 48.5q0 18 3.5 39t12.5 43q7 35 40 68h318z
M1135 207q2 -4 4.5 -11t5.5 -14q2 -10 2 -14v-32q0 -5 -2 -11l-6 -15l-4 -14q-6 -4 -10.5 -10t-8.5 -10q-6 -5 -11 -10.5t-10 -9.5q-9 -5 -15.5 -7t-12.5 -4q-10 -2 -15 -2h-17q-9 0 -19 2t-23 4q-12 6 -18.5 13t-17.5 14q-15 14 -21 35q-4 10 -6 19.5t-2 23.5v14q0 4 2 14
q4 17 12 25q4 8 7.5 13t7.5 11q9 5 13.5 9.5t10.5 9.5l12 4l17 6q5 0 11.5 1t13.5 1q10 0 17 -1t15 -1q6 -4 12.5 -6t15.5 -4q5 -5 10 -9.5t11 -9.5q4 -6 8.5 -11t10.5 -13zM2195 207q4 -4 6.5 -11t4.5 -14q4 -7 4 -14v-32q0 -7 -4 -11q-2 -7 -4.5 -15t-6.5 -14l-16 -20
l-12 -10l-14 -10q-5 -5 -12 -7t-13 -4q-8 -2 -14 -2h-17q-19 0 -43 6q-8 6 -16 13t-17 14q-8 6 -14 14t-8 21q-6 10 -7.5 19.5t-1.5 23.5q0 8 1 14t1 14l6 14t7 11q2 8 6 13t10 11q3 5 10.5 9.5t12.5 9.5q4 2 11 4t13 6q11 0 17 1t12 1q9 0 17 -1t14 -1q6 -4 13 -6t12 -4
l26 -19q2 -6 8 -11t8 -13zM2433 260l1 1q1 1 6 1h38v-219h-38v160l-5 -9v-8q0 -2 -2 -4q-6 -16 -13 -34.5t-16 -31.5q-6 -20 -12 -36.5t-14 -36.5h-37l-55 139q-6 3 -6 12q0 4 -1 4l-2 2v-157h-42v219h40q5 0 6.5 -1t4.5 -1q2 -2 3 -2t4 -2l7 -4q0 -2 2 -3.5t2 -3.5
q4 -18 11 -32.5t16 -34.5l12 -33q3 -8 6 -15l6 -14v-14q3 0 4 -4q0 4 1 4v14l11 13l44 116q0 1 2 3l2 4q0 1 3 3l3 1q2 2 4 2t4 2zM1329 262h38v-219h-36l-100 146l-4 5v2q-3 4 -3 5q-4 1 -4 4q0 4 -7 4v-166h-37v219h33q4 0 9.5 -1t5.5 -3q3 -2 5 -2t4 -2l22 -33
q6 -8 11 -16.5t10 -19.5q13 -13 24 -29t25 -29q0 -2 1 -4.5t1 -6.5l1 -3q0 -2 1 -3v152zM672 262l94 -219h-25q-9 0 -16 4q-2 2 -4 6.5t-6 8.5l-14 27h-100l-9 -27q0 -6 -4 -6q-2 -5 -4 -5l-3 -4q-2 0 -4.5 -1t-6.5 -1q0 -2 -2 -2h-27l96 219h35zM260 262h139v-39h-100v-49
h82v-41h-82v-51h100v-39h-139v219zM839 659q1 7 2 11t1 10q0 12 -3 21q0 7 -4.5 10.5t-6.5 9.5q-2 3 -4.5 6.5t-6.5 7.5l-7 6q-2 3 -9 9q-4 2 -8 4.5t-11 4.5q-5 0 -9.5 0.5t-10.5 0.5q-3 0 -8.5 -0.5t-12.5 -0.5q-6 -2 -10 -4.5t-8 -4.5q-4 -6 -7.5 -8.5t-7.5 -6.5
q-13 -7 -14 -14q-4 -6 -5 -9.5l-3 -10.5q-1 -5 -1.5 -10t-0.5 -11t2 -14.5t4 -15.5t6.5 -12.5t11.5 -12.5q10 -15 25 -15q10 -6 29 -6h20q15 5 19 8q11 4 16 13q3 4 6 7.5t5 8.5q2 4 6.5 9t4.5 9zM1966 659v42l-7 20q-5 7 -15 14q-1 4 -6 6.5t-10 8.5l-4 2t-5 2l-7 5
q-7 0 -12 0.5t-10 0.5q-6 0 -11 -0.5t-9 -0.5l-22 -9q-3 -6 -6 -8.5t-7 -6.5q-3 -4 -6.5 -7t-5.5 -7q-2 -6 -4.5 -9.5t-2.5 -10.5q-6 -9 -6 -21q0 -6 3 -14.5t6 -15.5q4 -15 16 -25q7 -15 26 -15q10 -6 29 -6h22q3 2 8 4t8 4l10 6t6 7q11 8 15 16zM74 262h158v-24
q0 -4 -1 -6q0 -3 -2 -5l-4 -4l-105 -143h1l2 2h108v-39h-164v13q0 11 2 13q0 2 5 7v4l2 4q2 2 4 3.5t2 6.5l94 129h-102v39zM1839 203q-4 -4 -7 -10.5t-7 -14.5q-2 -4 -4 -10t-2 -14q0 -7 2 -15l4 -12q2 -7 6 -14.5t8 -10.5q4 -4 9.5 -8.5t14.5 -7.5q12 -4 27 -4q5 0 10 1
t12 1q3 2 8 5t8 7q3 0 9 2h13q3 0 9 -2q2 -1 3.5 -3t3.5 -4l6 -7q-3 -4 -6 -7.5t-7 -7.5q-7 -5 -11.5 -8t-12.5 -6q-7 -4 -11.5 -5t-10.5 -3t-11 -2h-12q-12 0 -23.5 2t-21.5 4q-10 5 -18.5 12t-16.5 15q-16 13 -22 35q-4 10 -7 19.5t-3 23.5q0 10 1 14l4 14q1 7 3 14t6 11
q6 8 8.5 13t9.5 11q14 9 25 19q4 2 9.5 4t18.5 6q5 0 12 1t15 1h13q4 0 10 -2t10.5 -3t11.5 -3q8 -4 12.5 -6.5t11.5 -7.5l13 -17l-6 -8q-2 -1 -5 -4l-2 -4h-15q-7 0 -16 4l-16 10q-10 2 -12 2h-10q-17 0 -27 -7q-17 -1 -24 -13zM1690 151l7 -10.5t3 -7.5q6 -8 6 -20
q0 -15 -8 -29l-8 -12l-9 -10q-7 -6 -11.5 -9.5t-12.5 -5.5q-5 -2 -14 -3t-15 -1q-8 0 -14.5 1l-19.5 3q-5 2 -10 6.5t-11 13.5q-4 1 -6 5l-4 8q-7 2 -7 9l7 5q2 2 4 2h4l2 2h10q4 0 4 -2q7 0 9 -2q7 -5 10.5 -6.5t5.5 -3.5q2 0 6 -1t10 -1h5q2 0 6 2q5 1 8 2t7 3q6 6 7 9
q2 4 4 7.5t2 7.5q0 7 -6 10q-5 6 -7 6q-2 4 -7.5 5t-7.5 2q-6 0 -14 7q-5 0 -9 1t-9 7q-11 3 -14.5 6t-7.5 7q-12 4 -12 14q-6 10 -6 25q0 18 6 26l6 11l8 10q4 2 10 4t13 6q6 0 10.5 1t13.5 1q4 0 8.5 -1t11.5 -1l15 -6q3 -4 6.5 -6.5t7.5 -7.5q4 -2 7.5 -5.5t3.5 -7.5
l-7 -4q-4 -2 -7 -4.5t-3 -3.5h-18l-5 1l-7 5q-2 0 -4 1t-4 1h-17q-2 0 -3 -1t-5 -3q-2 -3 -6 -6q-1 -3 -1 -10q0 -5 1 -5q2 -2 3 -5.5t3 -7.5h6q1 0 5 -2q5 -1 9.5 -3t10.5 -4l9 -2q5 -4 9 -5t9 -5q5 -2 10 -5t8 -8zM1579 336q-12 7 -16 20q-7 17 -7 31v16l11 20l12 13
q6 7 12 9q3 7 9.5 8t9.5 3q4 0 8 1.5t10 1.5q4 0 10.5 -1.5t10.5 -1.5q5 -2 8.5 -3t7.5 -8q2 -2 5.5 -4.5t6.5 -4.5l13 -13l8 -20q0 -4 1 -9t1 -7q0 -6 -1 -14t-5 -17q-5 -13 -17 -20q-5 -4 -9.5 -7.5t-11.5 -10.5q-5 -1 -12 -1.5t-16 -0.5h-15q-4 0 -10 2q-18 7 -24 18z
M2284 336q-7 -4 -13.5 -7.5t-11.5 -10.5q-8 -2 -12 -2h-30q-5 0 -13 2q-7 4 -12.5 8.5t-10.5 9.5q-6 6 -13 20q-2 9 -4.5 17t-2.5 14q0 2 1 7t1 9q3 5 4 10t4 10q2 3 5 6t5 7q6 4 18 9q3 7 8 8t7 3q6 0 9 1.5t10 1.5q2 0 8.5 -1.5t11.5 -1.5q4 -2 7.5 -3t6.5 -8l17 -9
q2 -4 4 -7t5 -6q2 -5 4 -9.5t3 -10.5q2 -4 3 -9t1 -7q0 -6 -1 -14t-5 -17q0 -6 -5 -11zM2166 127q5 12 5 27q0 16 -5 24q-3 9 -8 15.5t-8 9.5q-10 10 -24 13q-4 5 -12 6t-17 1q-12 0 -25 -7q-8 -1 -13 -4t-11 -9q-4 -3 -7.5 -9.5t-8.5 -15.5q0 -4 -1 -10t-1 -14q0 -9 1 -15
t1 -12q4 -8 8 -14t8 -11q6 -4 11 -8.5t13 -7.5q7 -2 14 -3t11 -1q9 0 17 1t12 3q8 3 14 7.5t10 8.5q11 11 16 25zM1104 127q4 11 4 27q0 13 -4 24q-2 9 -6.5 15.5t-13.5 9.5q-2 6 -7.5 9t-11.5 4q-11 7 -30 7q-14 0 -25 -7q-11 -1 -23 -13q-6 -3 -9 -9.5t-5 -15.5
q-5 -5 -5 -10v-29q0 -5 5 -12q2 -7 5 -14.5t9 -10.5q6 -4 11 -8.5t12 -7.5q11 -4 25 -4q19 0 30 4q13 7 19 16q9 3 13.5 10.5t6.5 14.5zM774 262h139v-39h-100v-55h82v-39h-82v-86h-39v219zM570 223h-58v-180h-43v180h-62v39h163v-39zM1188 864q-19 7 -37 19t-35 26h322
q-18 -14 -36 -26t-36 -19q-24 -6 -45.5 -11t-44.5 -5q-25 0 -45.5 5t-42.5 11zM1389 262h165v-39h-65v-180h-39v180h-61v39zM1366 1315q18 -8 36 -20.5t36 -22.5h-325q38 30 75 43q37 18 88 18q48 0 90 -18zM559 604l-47 68q4 0 11 4q8 5 9 10q9 5 9 11v26q0 1 -2 5
q-3 10 -11 15q-5 9 -14 9q-2 5 -6.5 6t-9.5 1h-57v-155h24v64h23l40 -56q1 -4 8 -6q2 -2 3 -2h20zM1169 604l-67 155h-22l-65 -155h11q7 0 9 2q0 2 7 6l11 27h76l13 -27q1 -4 5 -6q2 -2 8 -2h14zM1930 721q3 -2 8 -7.5t6 -12.5q4 -7 4 -21q0 -12 -4 -23q-1 -5 -6 -9.5
t-8 -6.5q-5 -4 -9 -6.5t-8 -7.5q-9 -4 -23 -4q-6 0 -12 1t-10 3q-5 5 -10.5 7.5t-9.5 6.5q-3 2 -6 6.5t-3 9.5q-4 7 -5 12t-1 11q0 10 6 21q0 7 3 12.5t6 7.5q4 4 9.5 7t10.5 5q9 4 22 4q5 0 11.5 -1t11.5 -3zM801 721q7 -2 9.5 -7.5t4.5 -12.5q4 -7 4 -21q0 -11 -4 -23
q-2 -5 -4.5 -9.5t-9.5 -6.5q-1 -4 -6 -7l-11 -7q-9 -4 -22 -4q-11 0 -23 4q-4 5 -9 7.5t-9 6.5q-2 2 -5.5 6.5t-5.5 9.5q-4 12 -4 23q0 12 4 21q2 7 5.5 12.5t5.5 7.5q4 4 9 7t9 5q5 2 12.5 3t10.5 1q13 0 22 -4q8 -2 11.5 -5t5.5 -7zM2126 759h-22v-120q-1 2 -2 5t-3 4
l-75 104l-3 7h-24v-155h22v121l2 -2l87 -119h18v155zM2218 332h31l6 3q3 3 4 5q6 0 14 5q2 5 3 7t4 4q0 3 3 8t3 10v34q-3 6 -7 10.5t-6 7.5q-10 4 -18 12h-43q-6 -4 -9.5 -7t-9.5 -5q-5 -3 -7.5 -7.5t-4.5 -10.5q-1 -4 -1.5 -7t-0.5 -7v-20q0 -13 5 -18q2 -2 4.5 -4t4.5 -7
l7 -3q2 -2 4 -2q4 -4 7 -5t7 -3zM296 690q5 12 5 20q0 9 -5 18q0 2 -5 7l-6 6q-2 3 -5 7t-10 4q-3 5 -8.5 6t-9.5 1h-52v-155h16v59h36q4 0 9.5 0.5t8.5 2.5q10 4 15 10q4 2 7.5 6t3.5 8zM1579 408q-6 -14 -6 -21v-8q0 -4 3 -5q0 -10 5 -18q0 -2 2 -4t4 -7l5 -3q2 -2 11 -2
q2 -4 5.5 -5t5.5 -3h27q6 2 9.5 3t6.5 5l6 2l4 3q2 5 4.5 7t2.5 4q3 3 4 8t3 10q0 2 1 5.5t1 7.5q0 2 -1 8t-5 13q0 6 -4 10.5t-6 7.5q-3 1 -8 6l-10 6h-42q-4 -4 -10 -7l-10 -5l-5 -8q-3 -5 -3 -10zM997 759h-18v-120l-2 4q-2 6 -2 5l-74 104q-5 0 -6 7h-25v-155h21v124h2
l2 -1v-4l86 -119h16v155zM2115 381q-5 -1 -8.5 -2t-5.5 -2l45 -61h-12l-6 2q-4 0 -4 9l-39 50h-28v-61h-15v140h57q3 0 9 -2q2 -2 6.5 -5.5t5.5 -5.5q4 -2 5 -5.5t7 -7.5v-27q-4 -4 -5 -8t-3 -6zM1342 381q-3 -3 -11 -4l47 -61h-15q-3 0 -3 2q-6 0 -6 9l-39 50h-28v-61h-13
v140h56q2 0 6 -2q10 -1 18 -11q0 -2 3 -5.5t3 -7.5q2 -2 2 -6v-14q0 -1 -2 -7q0 -10 -4 -14l-5 -4q-3 -3 -9 -4zM412 759h-98v-155h98v21h-74v47h58v18h-58v45h74v24zM1721 759h-93v-155h93v21h-69v47h58v18h-58v45h69v24zM2460 454q6 2 5 2h13v-140h-12v114l-2 -2v-2
q-4 -8 -6.5 -17.5t-8.5 -14.5q-5 -7 -7 -12.5t-7 -14.5q-2 -9 -3 -15.5t-5 -9.5q-3 -8 -6.5 -12.5t-5.5 -13.5h-15q-10 14 -15 27t-10 28q-4 12 -12 26.5t-12 28.5v2h-4v-112h-14v140h14q4 0 6 -2l2 -2v-7l49 -105q0 -4 2 -4l1 2v4q0 2 8 6l41 97q2 7 3 7t1 2zM1480 759h-22
v-104q0 -4 -2 -8q-1 -7 -10 -12q0 -2 -4 -3.5t-6 -6.5l-9 -2h-9q-7 0 -13 2q-5 5 -8.5 6.5t-5.5 3.5l-11 12q0 3 -1 7.5t-1 11.5v93h-20v-93q0 -7 1 -11.5t1 -7.5q0 -8 6 -14q3 -8 10 -12q2 -4 4.5 -6.5t8.5 -4.5q2 -2 6.5 -3t7.5 -3q4 0 7 -1.5t8 -1.5t8.5 1.5t11.5 1.5
q2 2 5 3t7 3q3 2 6 4.5t6 6.5q3 2 5 5.5t7 6.5q0 4 3 7t3 7v112zM664 632q2 5 3 8t1 8q0 12 -5.5 20t-12.5 14q-2 0 -3.5 2t-5.5 4l-4 2h-4q-1 0 -1 4q-8 0 -9 1q-8 2 -9.5 3t-5.5 3q-6 5 -9 5q-3 4 -3 6v15q0 1 1.5 2.5t1.5 3.5q2 0 4.5 1t4.5 1q6 2 5 2h10q2 -2 4 -2
q7 0 8 -4q1 -3 4 -3h2q9 0 14 5l4 2q0 2 -2 4l-5 4q-2 1 -4.5 4t-6.5 5q-2 0 -4 2.5t-5 4.5q-5 0 -7 0.5t-4 0.5q-7 0 -12 -0.5t-8 -0.5q-5 -2 -7 -4.5t-6 -4.5q-2 -6 -5.5 -8.5t-8.5 -6.5q0 -4 -2 -7t-2 -9t4 -18l12 -11q2 -2 6 -5t7 -3q5 -2 8 -4t7 -2q1 -2 6 -2t7 -2
l6 -2q2 0 4 -2t2 -3t2 -6q2 -2 2 -7v-9q0 -2 -2 -4t-2 -4t-2 -3q-2 -5 -6 -6l-4 -1q-4 0 -8 -1t-5 -1q-4 0 -7 1t-6 1q-2 0 -3.5 1t-1.5 6l-4 1q-4 4 -11 4h-7l-4 -2l-5 -2q0 -3 3 -3q0 -3 2 -5q0 -4 4 -4v-6h5q7 -7 16 -9t19 -2h10q5 0 11 2q4 2 8.5 4t6.5 5q13 5 14 17z
M1741 316h-18v140h20q3 0 4 -4l74 -104q2 0 2 -5l2 -1v114h14v-140h-12l-82 114v4h-4v-118zM1596 632q9 7 9 16q0 12 -5.5 20t-12.5 14q-6 4 -6 6h-4l-4 2h-3q-4 0 -5 4h-4q-2 0 -5 1q-2 2 -4 3t-7 3l-7 5q-2 1 -3 2l-2 2l-1 2q0 1 -1 3t-1 4q0 4 4 8q0 2 4 6q2 0 3 1t4 1
q2 2 11 2l4 -1q2 -1 5 -1q3 -3 8 -4q6 -3 8 -3q6 0 8 5l5 2q0 2 -2.5 4t-4.5 4q0 1 -3 4l-5 5q-3 0 -5.5 2.5t-6.5 4.5h-6l-5 1q-6 0 -10 -0.5t-8 -0.5l-13 -9q-5 -6 -7 -8.5t-6 -6.5q-1 -4 -3 -7t-2 -9q0 -4 2 -7.5t3 -10.5l10 -11q5 -2 7.5 -5t6.5 -3q4 -2 7.5 -4t6.5 -2
q4 -2 7 -2t6 -2q6 0 10 -4l4 -3q2 -2 2 -6q2 -2 2 -6v-9q0 -3 -2 -5q0 -6 -6 -7q-6 -5 -7 -6t-3 -1q-7 0 -8 -1t-5 -1q-3 0 -6.5 1t-5.5 1q-2 1 -4 3l-4 4l-2 1q-5 4 -10 4h-7q-2 0 -4 -2l-6 -2q2 -1 2 -2t2 -1q0 -3 1 -4l3 -3v-2q6 -6 9 -6q7 -7 14.5 -9t17.5 -2h12
q3 0 11 2q3 2 6.5 4t7.5 5l5 8q3 3 4 9zM78 350q-6 6 -7 17l-3 10q-1 3 -1 10t4 16l2 10t5 10l4 6l5 7q2 2 6.5 4.5t6.5 4.5q6 7 11 8t9 3q3 0 8 1.5t10 1.5q7 0 14.5 -1.5t13.5 -5.5q8 -2 12.5 -6.5t8.5 -9.5q-2 -2 -4 -2v-4h-13q-4 2 -7 5t-7 3h-36l-22 -12
q-4 -3 -7.5 -7.5t-4.5 -10.5q-2 -7 -3 -13t-1 -8q0 -9 4 -13q0 -5 0.5 -10t0.5 -8l5 -4q4 -1 6 -7l7 -4q3 -1 8 -1q3 -4 5.5 -5t6.5 -3h33q2 2 7 3t9 5v29h-14v2q-2 0 -3 1.5t-3 3.5h-2q-1 1 -1 3v4h36v-51q-2 -5 -3.5 -6t-5.5 -8h-12q-8 -2 -12 -2h-34q-4 0 -9 3.5t-11 7.5
q-2 0 -6.5 2.5t-6.5 6.5q-3 4 -5 6.5t-4 7.5zM240 438v-44h56v-15h-56v-47h67v-16h-84v140h84v-18h-67zM1171 438v-44h60v-15h-60v-47h68v-16h-84v140h84v-18h-68zM2375 759h-20q-3 0 -8 -5q-6 -5 -6 -10l-37 -47h-2q0 -2 -2 -2v2l-39 47q-1 7 -4 10q-5 5 -11 5h-18l58 -77
v-2q0 -2 2 -2l2 -2v-72h21v70q2 0 2 2l2 4v2zM641 456v-85q0 -7 2 -10t5 -5q0 -6 3.5 -9.5t5.5 -4.5q0 -2 4.5 -4t6.5 -4q6 -2 8 -2h16q1 0 5 2l9 4q2 1 3.5 2t3.5 2q3 1 8 14q4 3 4 15v85h14v-85q0 -12 -4 -23t-12 -16q-2 -5 -6.5 -9.5t-8.5 -4.5q-8 -1 -13.5 -1.5
t-10.5 -0.5t-11 0.5t-14 1.5q-2 0 -6.5 4.5l-9.5 9.5l-10 16q-1 6 -3.5 11t-2.5 12v85h14zM2253 625h-69v134h-21v-155h90v21zM1271 625h-67v134h-20v-155h87v21zM1452 336q1 2 2 3.5t2 3.5q2 2 3 6.5t1 6.5q0 9 -2 11t-3 4.5t-3 4.5q-1 1 -8 3q-4 0 -6 2t-6 2q-8 0 -14 6
q-9 0 -13 7q-2 0 -3.5 3.5t-3.5 7.5v22q0 1 2 7q0 8 7 9l6 7q2 1 3.5 2t3.5 2q5 0 7.5 1.5t8.5 1.5l6 -2l4 -1q4 0 5 -1t5 -3q2 0 4 -3.5t2 -5.5q4 0 6 -3l1 -2l-2 -2q-6 -2 -9 -2h-6q-2 2 -2 4h-23q-9 0 -9 -2q-5 -7 -5 -8q-4 0 -4 -8q0 -5 4 -6q0 -5 3 -6q0 -1 3 -4l4 -1
q4 -4 7.5 -4t7.5 -3q3 0 4 -1l2 -1q4 0 8 -5h4q2 0 4 -2h2q5 -4 8.5 -7t5.5 -4q1 -5 1.5 -10.5t0.5 -9.5v-10q0 -5 -4 -6q-3 -4 -5.5 -7.5t-6.5 -5.5q-2 -2 -6 -5.5t-6 -3.5q-6 -2 -10 -2h-9q-11 0 -18.5 1t-12.5 10q-2 0 -3.5 2.5t-5.5 4.5v4l-2 2l4 2h7q1 0 3 -1t4 -1
q4 -4 6.5 -5t4.5 -3h22q8 0 12 4zM1069 316l-59 140h6q6 0 8 -2t3 -2t3 -7l43 -103v-2l2 -6v6l2 2q5 14 13 27.5t12 24.5q4 16 10 28t12 23q0 7 1.5 7t1.5 2q6 2 7 2h11q-8 -18 -15.5 -35t-16.5 -34q-4 -9 -7 -18.5t-6 -18.5l-16 -34h-15zM532 438v-49h60v-12h-60v-61h-16
v140h85v-18h-69zM1959 438v-49h54v-12h-54v-61h-16v140h81v-18h-65zM879 456v-124h63v-16h-80v140h17zM371 316v122h-46v18h105v-18h-47v-122h-12zM784 456v-124h64v-16h-80v140h16zM270 728q2 -1 3 -4t3 -5q4 -4 4 -9v-4q0 -5 -4 -9q-2 -2 -3 -4.5t-3 -2.5l-4 -4l-4 -4h-46
v53h36q4 0 10 -2q1 0 4 -3zM1325 389q4 0 6 3q4 4 9 4l2 5q0 2 5 6q0 1 1 4t1 7q0 2 -1 3.5t-1 4.5q-7 3 -7 8q-5 0 -9 4h-44v-49h38zM2101 392q4 4 7 4q7 7 7 11q2 4 2 11q0 4 -2 8q0 2 -7 8q-3 0 -7 4h-44v-49h36q3 0 8 3zM1525 456v-140h-18v140h18zM518 701l-4 -7
q-2 0 -3 -2t-3 -2q-2 -2 -10 -2h-33v47h33q4 0 10 -2q2 0 6 -5q1 -2 2 -3.5t2 -3.5q3 -2 3 -9q0 -5 -3 -11zM684 129l-27 69q0 2 -1 3l-1 2q0 4 -3 6v-6l-1 -2q-1 -1 -1 -3l-27 -69h61zM1093 727v-4l27 -64h-59l30 64v5zM1755 82q6 0 6 -6q2 -2 2 -5v-4q0 -9 -2 -11
q0 -5 -6 -9q-3 0 -6 -4h-17q-4 4 -11 4q0 2 -5 9q-2 2 -2 11v4q0 3 2 5l3 4l2 2q7 4 11 4q1 3 4 3h10q3 0 3 -3q3 0 6 -4z" />
    <glyph glyph-name="two" unicode="2" 
d="M2478 1093v-587h-2404v587h910q0 30 5.5 58t20.5 53q12 29 26 52.5t37 41.5q39 42 91 62q28 12 55.5 17t56.5 5q33 0 61.5 -6.5t53.5 -15.5q27 -14 50.5 -29.5t45.5 -36.5q35 -38 60 -94q11 -27 15.5 -54t4.5 -53h911zM1030 1194q-20 -49 -20 -101q0 -58 20 -106
q10 -22 24.5 -43.5t29.5 -42.5q20 -17 41.5 -32t45.5 -25q46 -23 105 -23q31 0 56.5 4.5t47.5 16.5q48 19 83 57q22 20 35.5 41t26.5 43q20 54 20 110q0 20 -3.5 43.5t-11.5 47.5q-14 40 -43 72q-14 20 -29.5 33.5t-34.5 25.5l-76 36q-16 3 -33 6t-38 3q-29 0 -55.5 -5.5
t-51.5 -19.5q-50 -19 -85 -57q-17 -19 -30.5 -39.5t-23.5 -44.5zM1142 936l314 317q62 -80 62 -160q0 -24 -3.5 -45.5t-11.5 -41.5q-8 -19 -17.5 -37t-23.5 -33h-320zM1095 928q-14 17 -25 36.5t-19 39.5q-9 18 -12.5 40.5t-3.5 48.5q0 18 3.5 39t12.5 43q7 35 40 68h318z
M1135 207q2 -4 4.5 -11t5.5 -14q2 -10 2 -14v-32q0 -5 -2 -11l-6 -15l-4 -14q-6 -4 -10.5 -10t-8.5 -10q-6 -5 -11 -10.5t-10 -9.5q-9 -5 -15.5 -7t-12.5 -4q-10 -2 -15 -2h-17q-9 0 -19 2t-23 4q-12 6 -18.5 13t-17.5 14q-15 14 -21 35q-4 10 -6 19.5t-2 23.5v14q0 4 2 14
q4 17 12 25q4 8 7.5 13t7.5 11q9 5 13.5 9.5t10.5 9.5l12 4l17 6q5 0 11.5 1t13.5 1q10 0 17 -1t15 -1q6 -4 12.5 -6t15.5 -4q5 -5 10 -9.5t11 -9.5q4 -6 8.5 -11t10.5 -13zM2195 207q4 -4 6.5 -11t4.5 -14q4 -7 4 -14v-32q0 -7 -4 -11q-2 -7 -4.5 -15t-6.5 -14l-16 -20
l-12 -10l-14 -10q-5 -5 -12 -7t-13 -4q-8 -2 -14 -2h-17q-19 0 -43 6q-8 6 -16 13t-17 14q-8 6 -14 14t-8 21q-6 10 -7.5 19.5t-1.5 23.5q0 8 1 14t1 14l6 14t7 11q2 8 6 13t10 11q3 5 10.5 9.5t12.5 9.5q4 2 11 4t13 6q11 0 17 1t12 1q9 0 17 -1t14 -1q6 -4 13 -6t12 -4
l26 -19q2 -6 8 -11t8 -13zM2433 260l1 1q1 1 6 1h38v-219h-38v160l-5 -9v-8q0 -2 -2 -4q-6 -16 -13 -34.5t-16 -31.5q-6 -20 -12 -36.5t-14 -36.5h-37l-55 139q-6 3 -6 12q0 4 -1 4l-2 2v-157h-42v219h40q5 0 6.5 -1t4.5 -1q2 -2 3 -2t4 -2l7 -4q0 -2 2 -3.5t2 -3.5
q4 -18 11 -32.5t16 -34.5l12 -33q3 -8 6 -15l6 -14v-14q3 0 4 -4q0 4 1 4v14l11 13l44 116q0 1 2 3l2 4q0 1 3 3l3 1q2 2 4 2t4 2zM1329 262h38v-219h-36l-100 146l-4 5v2q-3 4 -3 5q-4 1 -4 4q0 4 -7 4v-166h-37v219h33q4 0 9.5 -1t5.5 -3q3 -2 5 -2t4 -2l22 -33
q6 -8 11 -16.5t10 -19.5q13 -13 24 -29t25 -29q0 -2 1 -4.5t1 -6.5l1 -3q0 -2 1 -3v152zM672 262l94 -219h-25q-9 0 -16 4q-2 2 -4 6.5t-6 8.5l-14 27h-100l-9 -27q0 -6 -4 -6q-2 -5 -4 -5l-3 -4q-2 0 -4.5 -1t-6.5 -1q0 -2 -2 -2h-27l96 219h35zM260 262h139v-39h-100v-49
h82v-41h-82v-51h100v-39h-139v219zM839 659q1 7 2 11t1 10q0 12 -3 21q0 7 -4.5 10.5t-6.5 9.5q-2 3 -4.5 6.5t-6.5 7.5l-7 6q-2 3 -9 9q-4 2 -8 4.5t-11 4.5q-5 0 -9.5 0.5t-10.5 0.5q-3 0 -8.5 -0.5t-12.5 -0.5q-6 -2 -10 -4.5t-8 -4.5q-4 -6 -7.5 -8.5t-7.5 -6.5
q-13 -7 -14 -14q-4 -6 -5 -9.5l-3 -10.5q-1 -5 -1.5 -10t-0.5 -11t2 -14.5t4 -15.5t6.5 -12.5t11.5 -12.5q10 -15 25 -15q10 -6 29 -6h20q15 5 19 8q11 4 16 13q3 4 6 7.5t5 8.5q2 4 6.5 9t4.5 9zM1966 659v42l-7 20q-5 7 -15 14q-1 4 -6 6.5t-10 8.5l-4 2t-5 2l-7 5
q-7 0 -12 0.5t-10 0.5q-6 0 -11 -0.5t-9 -0.5l-22 -9q-3 -6 -6 -8.5t-7 -6.5q-3 -4 -6.5 -7t-5.5 -7q-2 -6 -4.5 -9.5t-2.5 -10.5q-6 -9 -6 -21q0 -6 3 -14.5t6 -15.5q4 -15 16 -25q7 -15 26 -15q10 -6 29 -6h22q3 2 8 4t8 4l10 6t6 7q11 8 15 16zM74 262h158v-24
q0 -4 -1 -6q0 -3 -2 -5l-4 -4l-105 -143h1l2 2h108v-39h-164v13q0 11 2 13q0 2 5 7v4l2 4q2 2 4 3.5t2 6.5l94 129h-102v39zM1839 203q-4 -4 -7 -10.5t-7 -14.5q-2 -4 -4 -10t-2 -14q0 -7 2 -15l4 -12q2 -7 6 -14.5t8 -10.5q4 -4 9.5 -8.5t14.5 -7.5q12 -4 27 -4q5 0 10 1
t12 1q3 2 8 5t8 7q3 0 9 2h13q3 0 9 -2q2 -1 3.5 -3t3.5 -4l6 -7q-3 -4 -6 -7.5t-7 -7.5q-7 -5 -11.5 -8t-12.5 -6q-7 -4 -11.5 -5t-10.5 -3t-11 -2h-12q-12 0 -23.5 2t-21.5 4q-10 5 -18.5 12t-16.5 15q-16 13 -22 35q-4 10 -7 19.5t-3 23.5q0 10 1 14l4 14q1 7 3 14t6 11
q6 8 8.5 13t9.5 11q14 9 25 19q4 2 9.5 4t18.5 6q5 0 12 1t15 1h13q4 0 10 -2t10.5 -3t11.5 -3q8 -4 12.5 -6.5t11.5 -7.5l13 -17l-6 -8q-2 -1 -5 -4l-2 -4h-15q-7 0 -16 4l-16 10q-10 2 -12 2h-10q-17 0 -27 -7q-17 -1 -24 -13zM1690 151l7 -10.5t3 -7.5q6 -8 6 -20
q0 -15 -8 -29l-8 -12l-9 -10q-7 -6 -11.5 -9.5t-12.5 -5.5q-5 -2 -14 -3t-15 -1q-8 0 -14.5 1l-19.5 3q-5 2 -10 6.5t-11 13.5q-4 1 -6 5l-4 8q-7 2 -7 9l7 5q2 2 4 2h4l2 2h10q4 0 4 -2q7 0 9 -2q7 -5 10.5 -6.5t5.5 -3.5q2 0 6 -1t10 -1h5q2 0 6 2q5 1 8 2t7 3q6 6 7 9
q2 4 4 7.5t2 7.5q0 7 -6 10q-5 6 -7 6q-2 4 -7.5 5t-7.5 2q-6 0 -14 7q-5 0 -9 1t-9 7q-11 3 -14.5 6t-7.5 7q-12 4 -12 14q-6 10 -6 25q0 18 6 26l6 11l8 10q4 2 10 4t13 6q6 0 10.5 1t13.5 1q4 0 8.5 -1t11.5 -1l15 -6q3 -4 6.5 -6.5t7.5 -7.5q4 -2 7.5 -5.5t3.5 -7.5
l-7 -4q-4 -2 -7 -4.5t-3 -3.5h-18l-5 1l-7 5q-2 0 -4 1t-4 1h-17q-2 0 -3 -1t-5 -3q-2 -3 -6 -6q-1 -3 -1 -10q0 -5 1 -5q2 -2 3 -5.5t3 -7.5h6q1 0 5 -2q5 -1 9.5 -3t10.5 -4l9 -2q5 -4 9 -5t9 -5q5 -2 10 -5t8 -8zM1579 336q-12 7 -16 20q-7 17 -7 31v16l11 20l12 13
q6 7 12 9q3 7 9.5 8t9.5 3q4 0 8 1.5t10 1.5q4 0 10.5 -1.5t10.5 -1.5q5 -2 8.5 -3t7.5 -8q2 -2 5.5 -4.5t6.5 -4.5l13 -13l8 -20q0 -4 1 -9t1 -7q0 -6 -1 -14t-5 -17q-5 -13 -17 -20q-5 -4 -9.5 -7.5t-11.5 -10.5q-5 -1 -12 -1.5t-16 -0.5h-15q-4 0 -10 2q-18 7 -24 18z
M2284 336q-7 -4 -13.5 -7.5t-11.5 -10.5q-8 -2 -12 -2h-30q-5 0 -13 2q-7 4 -12.5 8.5t-10.5 9.5q-6 6 -13 20q-2 9 -4.5 17t-2.5 14q0 2 1 7t1 9q3 5 4 10t4 10q2 3 5 6t5 7q6 4 18 9q3 7 8 8t7 3q6 0 9 1.5t10 1.5q2 0 8.5 -1.5t11.5 -1.5q4 -2 7.5 -3t6.5 -8l17 -9
q2 -4 4 -7t5 -6q2 -5 4 -9.5t3 -10.5q2 -4 3 -9t1 -7q0 -6 -1 -14t-5 -17q0 -6 -5 -11zM2166 127q5 12 5 27q0 16 -5 24q-3 9 -8 15.5t-8 9.5q-10 10 -24 13q-4 5 -12 6t-17 1q-12 0 -25 -7q-8 -1 -13 -4t-11 -9q-4 -3 -7.5 -9.5t-8.5 -15.5q0 -4 -1 -10t-1 -14q0 -9 1 -15
t1 -12q4 -8 8 -14t8 -11q6 -4 11 -8.5t13 -7.5q7 -2 14 -3t11 -1q9 0 17 1t12 3q8 3 14 7.5t10 8.5q11 11 16 25zM1104 127q4 11 4 27q0 13 -4 24q-2 9 -6.5 15.5t-13.5 9.5q-2 6 -7.5 9t-11.5 4q-11 7 -30 7q-14 0 -25 -7q-11 -1 -23 -13q-6 -3 -9 -9.5t-5 -15.5
q-5 -5 -5 -10v-29q0 -5 5 -12q2 -7 5 -14.5t9 -10.5q6 -4 11 -8.5t12 -7.5q11 -4 25 -4q19 0 30 4q13 7 19 16q9 3 13.5 10.5t6.5 14.5zM774 262h139v-39h-100v-55h82v-39h-82v-86h-39v219zM570 223h-58v-180h-43v180h-62v39h163v-39zM1188 864q-19 7 -37 19t-35 26h322
q-18 -14 -36 -26t-36 -19q-24 -6 -45.5 -11t-44.5 -5q-25 0 -45.5 5t-42.5 11zM1389 262h165v-39h-65v-180h-39v180h-61v39zM1366 1315q18 -8 36 -20.5t36 -22.5h-325q38 30 75 43q37 18 88 18q48 0 90 -18zM559 604l-47 68q4 0 11 4q8 5 9 10q9 5 9 11v26q0 1 -2 5
q-3 10 -11 15q-5 9 -14 9q-2 5 -6.5 6t-9.5 1h-57v-155h24v64h23l40 -56q1 -4 8 -6q2 -2 3 -2h20zM1169 604l-67 155h-22l-65 -155h11q7 0 9 2q0 2 7 6l11 27h76l13 -27q1 -4 5 -6q2 -2 8 -2h14zM1930 721q3 -2 8 -7.5t6 -12.5q4 -7 4 -21q0 -12 -4 -23q-1 -5 -6 -9.5
t-8 -6.5q-5 -4 -9 -6.5t-8 -7.5q-9 -4 -23 -4q-6 0 -12 1t-10 3q-5 5 -10.5 7.5t-9.5 6.5q-3 2 -6 6.5t-3 9.5q-4 7 -5 12t-1 11q0 10 6 21q0 7 3 12.5t6 7.5q4 4 9.5 7t10.5 5q9 4 22 4q5 0 11.5 -1t11.5 -3zM801 721q7 -2 9.5 -7.5t4.5 -12.5q4 -7 4 -21q0 -11 -4 -23
q-2 -5 -4.5 -9.5t-9.5 -6.5q-1 -4 -6 -7l-11 -7q-9 -4 -22 -4q-11 0 -23 4q-4 5 -9 7.5t-9 6.5q-2 2 -5.5 6.5t-5.5 9.5q-4 12 -4 23q0 12 4 21q2 7 5.5 12.5t5.5 7.5q4 4 9 7t9 5q5 2 12.5 3t10.5 1q13 0 22 -4q8 -2 11.5 -5t5.5 -7zM2126 759h-22v-120q-1 2 -2 5t-3 4
l-75 104l-3 7h-24v-155h22v121l2 -2l87 -119h18v155zM2218 332h31l6 3q3 3 4 5q6 0 14 5q2 5 3 7t4 4q0 3 3 8t3 10v34q-3 6 -7 10.5t-6 7.5q-10 4 -18 12h-43q-6 -4 -9.5 -7t-9.5 -5q-5 -3 -7.5 -7.5t-4.5 -10.5q-1 -4 -1.5 -7t-0.5 -7v-20q0 -13 5 -18q2 -2 4.5 -4t4.5 -7
l7 -3q2 -2 4 -2q4 -4 7 -5t7 -3zM296 690q5 12 5 20q0 9 -5 18q0 2 -5 7l-6 6q-2 3 -5 7t-10 4q-3 5 -8.5 6t-9.5 1h-52v-155h16v59h36q4 0 9.5 0.5t8.5 2.5q10 4 15 10q4 2 7.5 6t3.5 8zM1579 408q-6 -14 -6 -21v-8q0 -4 3 -5q0 -10 5 -18q0 -2 2 -4t4 -7l5 -3q2 -2 11 -2
q2 -4 5.5 -5t5.5 -3h27q6 2 9.5 3t6.5 5l6 2l4 3q2 5 4.5 7t2.5 4q3 3 4 8t3 10q0 2 1 5.5t1 7.5q0 2 -1 8t-5 13q0 6 -4 10.5t-6 7.5q-3 1 -8 6l-10 6h-42q-4 -4 -10 -7l-10 -5l-5 -8q-3 -5 -3 -10zM997 759h-18v-120l-2 4q-2 6 -2 5l-74 104q-5 0 -6 7h-25v-155h21v124h2
l2 -1v-4l86 -119h16v155zM2115 381q-5 -1 -8.5 -2t-5.5 -2l45 -61h-12l-6 2q-4 0 -4 9l-39 50h-28v-61h-15v140h57q3 0 9 -2q2 -2 6.5 -5.5t5.5 -5.5q4 -2 5 -5.5t7 -7.5v-27q-4 -4 -5 -8t-3 -6zM1342 381q-3 -3 -11 -4l47 -61h-15q-3 0 -3 2q-6 0 -6 9l-39 50h-28v-61h-13
v140h56q2 0 6 -2q10 -1 18 -11q0 -2 3 -5.5t3 -7.5q2 -2 2 -6v-14q0 -1 -2 -7q0 -10 -4 -14l-5 -4q-3 -3 -9 -4zM412 759h-98v-155h98v21h-74v47h58v18h-58v45h74v24zM1721 759h-93v-155h93v21h-69v47h58v18h-58v45h69v24zM2460 454q6 2 5 2h13v-140h-12v114l-2 -2v-2
q-4 -8 -6.5 -17.5t-8.5 -14.5q-5 -7 -7 -12.5t-7 -14.5q-2 -9 -3 -15.5t-5 -9.5q-3 -8 -6.5 -12.5t-5.5 -13.5h-15q-10 14 -15 27t-10 28q-4 12 -12 26.5t-12 28.5v2h-4v-112h-14v140h14q4 0 6 -2l2 -2v-7l49 -105q0 -4 2 -4l1 2v4q0 2 8 6l41 97q2 7 3 7t1 2zM1480 759h-22
v-104q0 -4 -2 -8q-1 -7 -10 -12q0 -2 -4 -3.5t-6 -6.5l-9 -2h-9q-7 0 -13 2q-5 5 -8.5 6.5t-5.5 3.5l-11 12q0 3 -1 7.5t-1 11.5v93h-20v-93q0 -7 1 -11.5t1 -7.5q0 -8 6 -14q3 -8 10 -12q2 -4 4.5 -6.5t8.5 -4.5q2 -2 6.5 -3t7.5 -3q4 0 7 -1.5t8 -1.5t8.5 1.5t11.5 1.5
q2 2 5 3t7 3q3 2 6 4.5t6 6.5q3 2 5 5.5t7 6.5q0 4 3 7t3 7v112zM664 632q2 5 3 8t1 8q0 12 -5.5 20t-12.5 14q-2 0 -3.5 2t-5.5 4l-4 2h-4q-1 0 -1 4q-8 0 -9 1q-8 2 -9.5 3t-5.5 3q-6 5 -9 5q-3 4 -3 6v15q0 1 1.5 2.5t1.5 3.5q2 0 4.5 1t4.5 1q6 2 5 2h10q2 -2 4 -2
q7 0 8 -4q1 -3 4 -3h2q9 0 14 5l4 2q0 2 -2 4l-5 4q-2 1 -4.5 4t-6.5 5q-2 0 -4 2.5t-5 4.5q-5 0 -7 0.5t-4 0.5q-7 0 -12 -0.5t-8 -0.5q-5 -2 -7 -4.5t-6 -4.5q-2 -6 -5.5 -8.5t-8.5 -6.5q0 -4 -2 -7t-2 -9t4 -18l12 -11q2 -2 6 -5t7 -3q5 -2 8 -4t7 -2q1 -2 6 -2t7 -2
l6 -2q2 0 4 -2t2 -3t2 -6q2 -2 2 -7v-9q0 -2 -2 -4t-2 -4t-2 -3q-2 -5 -6 -6l-4 -1q-4 0 -8 -1t-5 -1q-4 0 -7 1t-6 1q-2 0 -3.5 1t-1.5 6l-4 1q-4 4 -11 4h-7l-4 -2l-5 -2q0 -3 3 -3q0 -3 2 -5q0 -4 4 -4v-6h5q7 -7 16 -9t19 -2h10q5 0 11 2q4 2 8.5 4t6.5 5q13 5 14 17z
M1741 316h-18v140h20q3 0 4 -4l74 -104q2 0 2 -5l2 -1v114h14v-140h-12l-82 114v4h-4v-118zM1596 632q9 7 9 16q0 12 -5.5 20t-12.5 14q-6 4 -6 6h-4l-4 2h-3q-4 0 -5 4h-4q-2 0 -5 1q-2 2 -4 3t-7 3l-7 5q-2 1 -3 2l-2 2l-1 2q0 1 -1 3t-1 4q0 4 4 8q0 2 4 6q2 0 3 1t4 1
q2 2 11 2l4 -1q2 -1 5 -1q3 -3 8 -4q6 -3 8 -3q6 0 8 5l5 2q0 2 -2.5 4t-4.5 4q0 1 -3 4l-5 5q-3 0 -5.5 2.5t-6.5 4.5h-6l-5 1q-6 0 -10 -0.5t-8 -0.5l-13 -9q-5 -6 -7 -8.5t-6 -6.5q-1 -4 -3 -7t-2 -9q0 -4 2 -7.5t3 -10.5l10 -11q5 -2 7.5 -5t6.5 -3q4 -2 7.5 -4t6.5 -2
q4 -2 7 -2t6 -2q6 0 10 -4l4 -3q2 -2 2 -6q2 -2 2 -6v-9q0 -3 -2 -5q0 -6 -6 -7q-6 -5 -7 -6t-3 -1q-7 0 -8 -1t-5 -1q-3 0 -6.5 1t-5.5 1q-2 1 -4 3l-4 4l-2 1q-5 4 -10 4h-7q-2 0 -4 -2l-6 -2q2 -1 2 -2t2 -1q0 -3 1 -4l3 -3v-2q6 -6 9 -6q7 -7 14.5 -9t17.5 -2h12
q3 0 11 2q3 2 6.5 4t7.5 5l5 8q3 3 4 9zM78 350q-6 6 -7 17l-3 10q-1 3 -1 10t4 16l2 10t5 10l4 6l5 7q2 2 6.5 4.5t6.5 4.5q6 7 11 8t9 3q3 0 8 1.5t10 1.5q7 0 14.5 -1.5t13.5 -5.5q8 -2 12.5 -6.5t8.5 -9.5q-2 -2 -4 -2v-4h-13q-4 2 -7 5t-7 3h-36l-22 -12
q-4 -3 -7.5 -7.5t-4.5 -10.5q-2 -7 -3 -13t-1 -8q0 -9 4 -13q0 -5 0.5 -10t0.5 -8l5 -4q4 -1 6 -7l7 -4q3 -1 8 -1q3 -4 5.5 -5t6.5 -3h33q2 2 7 3t9 5v29h-14v2q-2 0 -3 1.5t-3 3.5h-2q-1 1 -1 3v4h36v-51q-2 -5 -3.5 -6t-5.5 -8h-12q-8 -2 -12 -2h-34q-4 0 -9 3.5t-11 7.5
q-2 0 -6.5 2.5t-6.5 6.5q-3 4 -5 6.5t-4 7.5zM240 438v-44h56v-15h-56v-47h67v-16h-84v140h84v-18h-67zM1171 438v-44h60v-15h-60v-47h68v-16h-84v140h84v-18h-68zM2375 759h-20q-3 0 -8 -5q-6 -5 -6 -10l-37 -47h-2q0 -2 -2 -2v2l-39 47q-1 7 -4 10q-5 5 -11 5h-18l58 -77
v-2q0 -2 2 -2l2 -2v-72h21v70q2 0 2 2l2 4v2zM641 456v-85q0 -7 2 -10t5 -5q0 -6 3.5 -9.5t5.5 -4.5q0 -2 4.5 -4t6.5 -4q6 -2 8 -2h16q1 0 5 2l9 4q2 1 3.5 2t3.5 2q3 1 8 14q4 3 4 15v85h14v-85q0 -12 -4 -23t-12 -16q-2 -5 -6.5 -9.5t-8.5 -4.5q-8 -1 -13.5 -1.5
t-10.5 -0.5t-11 0.5t-14 1.5q-2 0 -6.5 4.5l-9.5 9.5l-10 16q-1 6 -3.5 11t-2.5 12v85h14zM2253 625h-69v134h-21v-155h90v21zM1271 625h-67v134h-20v-155h87v21zM1452 336q1 2 2 3.5t2 3.5q2 2 3 6.5t1 6.5q0 9 -2 11t-3 4.5t-3 4.5q-1 1 -8 3q-4 0 -6 2t-6 2q-8 0 -14 6
q-9 0 -13 7q-2 0 -3.5 3.5t-3.5 7.5v22q0 1 2 7q0 8 7 9l6 7q2 1 3.5 2t3.5 2q5 0 7.5 1.5t8.5 1.5l6 -2l4 -1q4 0 5 -1t5 -3q2 0 4 -3.5t2 -5.5q4 0 6 -3l1 -2l-2 -2q-6 -2 -9 -2h-6q-2 2 -2 4h-23q-9 0 -9 -2q-5 -7 -5 -8q-4 0 -4 -8q0 -5 4 -6q0 -5 3 -6q0 -1 3 -4l4 -1
q4 -4 7.5 -4t7.5 -3q3 0 4 -1l2 -1q4 0 8 -5h4q2 0 4 -2h2q5 -4 8.5 -7t5.5 -4q1 -5 1.5 -10.5t0.5 -9.5v-10q0 -5 -4 -6q-3 -4 -5.5 -7.5t-6.5 -5.5q-2 -2 -6 -5.5t-6 -3.5q-6 -2 -10 -2h-9q-11 0 -18.5 1t-12.5 10q-2 0 -3.5 2.5t-5.5 4.5v4l-2 2l4 2h7q1 0 3 -1t4 -1
q4 -4 6.5 -5t4.5 -3h22q8 0 12 4zM1069 316l-59 140h6q6 0 8 -2t3 -2t3 -7l43 -103v-2l2 -6v6l2 2q5 14 13 27.5t12 24.5q4 16 10 28t12 23q0 7 1.5 7t1.5 2q6 2 7 2h11q-8 -18 -15.5 -35t-16.5 -34q-4 -9 -7 -18.5t-6 -18.5l-16 -34h-15zM532 438v-49h60v-12h-60v-61h-16
v140h85v-18h-69zM1959 438v-49h54v-12h-54v-61h-16v140h81v-18h-65zM879 456v-124h63v-16h-80v140h17zM371 316v122h-46v18h105v-18h-47v-122h-12zM784 456v-124h64v-16h-80v140h16zM270 728q2 -1 3 -4t3 -5q4 -4 4 -9v-4q0 -5 -4 -9q-2 -2 -3 -4.5t-3 -2.5l-4 -4l-4 -4h-46
v53h36q4 0 10 -2q1 0 4 -3zM1325 389q4 0 6 3q4 4 9 4l2 5q0 2 5 6q0 1 1 4t1 7q0 2 -1 3.5t-1 4.5q-7 3 -7 8q-5 0 -9 4h-44v-49h38zM2101 392q4 4 7 4q7 7 7 11q2 4 2 11q0 4 -2 8q0 2 -7 8q-3 0 -7 4h-44v-49h36q3 0 8 3zM1525 456v-140h-18v140h18zM518 701l-4 -7
q-2 0 -3 -2t-3 -2q-2 -2 -10 -2h-33v47h33q4 0 10 -2q2 0 6 -5q1 -2 2 -3.5t2 -3.5q3 -2 3 -9q0 -5 -3 -11zM684 129l-27 69q0 2 -1 3l-1 2q0 4 -3 6v-6l-1 -2q-1 -1 -1 -3l-27 -69h61zM1093 727v-4l27 -64h-59l30 64v5zM1755 82q6 0 6 -6q2 -2 2 -5v-4q0 -9 -2 -11
q0 -5 -6 -9q-3 0 -6 -4h-17q-4 4 -11 4q0 2 -5 9q-2 2 -2 11v4q0 3 2 5l3 4l2 2q7 4 11 4q1 3 4 3h10q3 0 3 -3q3 0 6 -4z" />
    <glyph glyph-name="three" unicode="3" 
d="M2478 1093v-587h-2404v587h910q0 30 5.5 58t20.5 53q12 29 26 52.5t37 41.5q39 42 91 62q28 12 55.5 17t56.5 5q33 0 61.5 -6.5t53.5 -15.5q27 -14 50.5 -29.5t45.5 -36.5q35 -38 60 -94q11 -27 15.5 -54t4.5 -53h911zM1030 1194q-20 -49 -20 -101q0 -58 20 -106
q10 -22 24.5 -43.5t29.5 -42.5q20 -17 41.5 -32t45.5 -25q46 -23 105 -23q31 0 56.5 4.5t47.5 16.5q48 19 83 57q22 20 35.5 41t26.5 43q20 54 20 110q0 20 -3.5 43.5t-11.5 47.5q-14 40 -43 72q-14 20 -29.5 33.5t-34.5 25.5l-76 36q-16 3 -33 6t-38 3q-29 0 -55.5 -5.5
t-51.5 -19.5q-50 -19 -85 -57q-17 -19 -30.5 -39.5t-23.5 -44.5zM1142 936l314 317q62 -80 62 -160q0 -24 -3.5 -45.5t-11.5 -41.5q-8 -19 -17.5 -37t-23.5 -33h-320zM1095 928q-14 17 -25 36.5t-19 39.5q-9 18 -12.5 40.5t-3.5 48.5q0 18 3.5 39t12.5 43q7 35 40 68h318z
M1135 207q2 -4 4.5 -11t5.5 -14q2 -10 2 -14v-32q0 -5 -2 -11l-6 -15l-4 -14q-6 -4 -10.5 -10t-8.5 -10q-6 -5 -11 -10.5t-10 -9.5q-9 -5 -15.5 -7t-12.5 -4q-10 -2 -15 -2h-17q-9 0 -19 2t-23 4q-12 6 -18.5 13t-17.5 14q-15 14 -21 35q-4 10 -6 19.5t-2 23.5v14q0 4 2 14
q4 17 12 25q4 8 7.5 13t7.5 11q9 5 13.5 9.5t10.5 9.5l12 4l17 6q5 0 11.5 1t13.5 1q10 0 17 -1t15 -1q6 -4 12.5 -6t15.5 -4q5 -5 10 -9.5t11 -9.5q4 -6 8.5 -11t10.5 -13zM2195 207q4 -4 6.5 -11t4.5 -14q4 -7 4 -14v-32q0 -7 -4 -11q-2 -7 -4.5 -15t-6.5 -14l-16 -20
l-12 -10l-14 -10q-5 -5 -12 -7t-13 -4q-8 -2 -14 -2h-17q-19 0 -43 6q-8 6 -16 13t-17 14q-8 6 -14 14t-8 21q-6 10 -7.5 19.5t-1.5 23.5q0 8 1 14t1 14l6 14t7 11q2 8 6 13t10 11q3 5 10.5 9.5t12.5 9.5q4 2 11 4t13 6q11 0 17 1t12 1q9 0 17 -1t14 -1q6 -4 13 -6t12 -4
l26 -19q2 -6 8 -11t8 -13zM2433 260l1 1q1 1 6 1h38v-219h-38v160l-5 -9v-8q0 -2 -2 -4q-6 -16 -13 -34.5t-16 -31.5q-6 -20 -12 -36.5t-14 -36.5h-37l-55 139q-6 3 -6 12q0 4 -1 4l-2 2v-157h-42v219h40q5 0 6.5 -1t4.5 -1q2 -2 3 -2t4 -2l7 -4q0 -2 2 -3.5t2 -3.5
q4 -18 11 -32.5t16 -34.5l12 -33q3 -8 6 -15l6 -14v-14q3 0 4 -4q0 4 1 4v14l11 13l44 116q0 1 2 3l2 4q0 1 3 3l3 1q2 2 4 2t4 2zM1329 262h38v-219h-36l-100 146l-4 5v2q-3 4 -3 5q-4 1 -4 4q0 4 -7 4v-166h-37v219h33q4 0 9.5 -1t5.5 -3q3 -2 5 -2t4 -2l22 -33
q6 -8 11 -16.5t10 -19.5q13 -13 24 -29t25 -29q0 -2 1 -4.5t1 -6.5l1 -3q0 -2 1 -3v152zM672 262l94 -219h-25q-9 0 -16 4q-2 2 -4 6.5t-6 8.5l-14 27h-100l-9 -27q0 -6 -4 -6q-2 -5 -4 -5l-3 -4q-2 0 -4.5 -1t-6.5 -1q0 -2 -2 -2h-27l96 219h35zM260 262h139v-39h-100v-49
h82v-41h-82v-51h100v-39h-139v219zM839 659q1 7 2 11t1 10q0 12 -3 21q0 7 -4.5 10.5t-6.5 9.5q-2 3 -4.5 6.5t-6.5 7.5l-7 6q-2 3 -9 9q-4 2 -8 4.5t-11 4.5q-5 0 -9.5 0.5t-10.5 0.5q-3 0 -8.5 -0.5t-12.5 -0.5q-6 -2 -10 -4.5t-8 -4.5q-4 -6 -7.5 -8.5t-7.5 -6.5
q-13 -7 -14 -14q-4 -6 -5 -9.5l-3 -10.5q-1 -5 -1.5 -10t-0.5 -11t2 -14.5t4 -15.5t6.5 -12.5t11.5 -12.5q10 -15 25 -15q10 -6 29 -6h20q15 5 19 8q11 4 16 13q3 4 6 7.5t5 8.5q2 4 6.5 9t4.5 9zM1966 659v42l-7 20q-5 7 -15 14q-1 4 -6 6.5t-10 8.5l-4 2t-5 2l-7 5
q-7 0 -12 0.5t-10 0.5q-6 0 -11 -0.5t-9 -0.5l-22 -9q-3 -6 -6 -8.5t-7 -6.5q-3 -4 -6.5 -7t-5.5 -7q-2 -6 -4.5 -9.5t-2.5 -10.5q-6 -9 -6 -21q0 -6 3 -14.5t6 -15.5q4 -15 16 -25q7 -15 26 -15q10 -6 29 -6h22q3 2 8 4t8 4l10 6t6 7q11 8 15 16zM74 262h158v-24
q0 -4 -1 -6q0 -3 -2 -5l-4 -4l-105 -143h1l2 2h108v-39h-164v13q0 11 2 13q0 2 5 7v4l2 4q2 2 4 3.5t2 6.5l94 129h-102v39zM1839 203q-4 -4 -7 -10.5t-7 -14.5q-2 -4 -4 -10t-2 -14q0 -7 2 -15l4 -12q2 -7 6 -14.5t8 -10.5q4 -4 9.5 -8.5t14.5 -7.5q12 -4 27 -4q5 0 10 1
t12 1q3 2 8 5t8 7q3 0 9 2h13q3 0 9 -2q2 -1 3.5 -3t3.5 -4l6 -7q-3 -4 -6 -7.5t-7 -7.5q-7 -5 -11.5 -8t-12.5 -6q-7 -4 -11.5 -5t-10.5 -3t-11 -2h-12q-12 0 -23.5 2t-21.5 4q-10 5 -18.5 12t-16.5 15q-16 13 -22 35q-4 10 -7 19.5t-3 23.5q0 10 1 14l4 14q1 7 3 14t6 11
q6 8 8.5 13t9.5 11q14 9 25 19q4 2 9.5 4t18.5 6q5 0 12 1t15 1h13q4 0 10 -2t10.5 -3t11.5 -3q8 -4 12.5 -6.5t11.5 -7.5l13 -17l-6 -8q-2 -1 -5 -4l-2 -4h-15q-7 0 -16 4l-16 10q-10 2 -12 2h-10q-17 0 -27 -7q-17 -1 -24 -13zM1690 151l7 -10.5t3 -7.5q6 -8 6 -20
q0 -15 -8 -29l-8 -12l-9 -10q-7 -6 -11.5 -9.5t-12.5 -5.5q-5 -2 -14 -3t-15 -1q-8 0 -14.5 1l-19.5 3q-5 2 -10 6.5t-11 13.5q-4 1 -6 5l-4 8q-7 2 -7 9l7 5q2 2 4 2h4l2 2h10q4 0 4 -2q7 0 9 -2q7 -5 10.5 -6.5t5.5 -3.5q2 0 6 -1t10 -1h5q2 0 6 2q5 1 8 2t7 3q6 6 7 9
q2 4 4 7.5t2 7.5q0 7 -6 10q-5 6 -7 6q-2 4 -7.5 5t-7.5 2q-6 0 -14 7q-5 0 -9 1t-9 7q-11 3 -14.5 6t-7.5 7q-12 4 -12 14q-6 10 -6 25q0 18 6 26l6 11l8 10q4 2 10 4t13 6q6 0 10.5 1t13.5 1q4 0 8.5 -1t11.5 -1l15 -6q3 -4 6.5 -6.5t7.5 -7.5q4 -2 7.5 -5.5t3.5 -7.5
l-7 -4q-4 -2 -7 -4.5t-3 -3.5h-18l-5 1l-7 5q-2 0 -4 1t-4 1h-17q-2 0 -3 -1t-5 -3q-2 -3 -6 -6q-1 -3 -1 -10q0 -5 1 -5q2 -2 3 -5.5t3 -7.5h6q1 0 5 -2q5 -1 9.5 -3t10.5 -4l9 -2q5 -4 9 -5t9 -5q5 -2 10 -5t8 -8zM1579 336q-12 7 -16 20q-7 17 -7 31v16l11 20l12 13
q6 7 12 9q3 7 9.5 8t9.5 3q4 0 8 1.5t10 1.5q4 0 10.5 -1.5t10.5 -1.5q5 -2 8.5 -3t7.5 -8q2 -2 5.5 -4.5t6.5 -4.5l13 -13l8 -20q0 -4 1 -9t1 -7q0 -6 -1 -14t-5 -17q-5 -13 -17 -20q-5 -4 -9.5 -7.5t-11.5 -10.5q-5 -1 -12 -1.5t-16 -0.5h-15q-4 0 -10 2q-18 7 -24 18z
M2284 336q-7 -4 -13.5 -7.5t-11.5 -10.5q-8 -2 -12 -2h-30q-5 0 -13 2q-7 4 -12.5 8.5t-10.5 9.5q-6 6 -13 20q-2 9 -4.5 17t-2.5 14q0 2 1 7t1 9q3 5 4 10t4 10q2 3 5 6t5 7q6 4 18 9q3 7 8 8t7 3q6 0 9 1.5t10 1.5q2 0 8.5 -1.5t11.5 -1.5q4 -2 7.5 -3t6.5 -8l17 -9
q2 -4 4 -7t5 -6q2 -5 4 -9.5t3 -10.5q2 -4 3 -9t1 -7q0 -6 -1 -14t-5 -17q0 -6 -5 -11zM2166 127q5 12 5 27q0 16 -5 24q-3 9 -8 15.5t-8 9.5q-10 10 -24 13q-4 5 -12 6t-17 1q-12 0 -25 -7q-8 -1 -13 -4t-11 -9q-4 -3 -7.5 -9.5t-8.5 -15.5q0 -4 -1 -10t-1 -14q0 -9 1 -15
t1 -12q4 -8 8 -14t8 -11q6 -4 11 -8.5t13 -7.5q7 -2 14 -3t11 -1q9 0 17 1t12 3q8 3 14 7.5t10 8.5q11 11 16 25zM1104 127q4 11 4 27q0 13 -4 24q-2 9 -6.5 15.5t-13.5 9.5q-2 6 -7.5 9t-11.5 4q-11 7 -30 7q-14 0 -25 -7q-11 -1 -23 -13q-6 -3 -9 -9.5t-5 -15.5
q-5 -5 -5 -10v-29q0 -5 5 -12q2 -7 5 -14.5t9 -10.5q6 -4 11 -8.5t12 -7.5q11 -4 25 -4q19 0 30 4q13 7 19 16q9 3 13.5 10.5t6.5 14.5zM774 262h139v-39h-100v-55h82v-39h-82v-86h-39v219zM570 223h-58v-180h-43v180h-62v39h163v-39zM1188 864q-19 7 -37 19t-35 26h322
q-18 -14 -36 -26t-36 -19q-24 -6 -45.5 -11t-44.5 -5q-25 0 -45.5 5t-42.5 11zM1389 262h165v-39h-65v-180h-39v180h-61v39zM1366 1315q18 -8 36 -20.5t36 -22.5h-325q38 30 75 43q37 18 88 18q48 0 90 -18zM559 604l-47 68q4 0 11 4q8 5 9 10q9 5 9 11v26q0 1 -2 5
q-3 10 -11 15q-5 9 -14 9q-2 5 -6.5 6t-9.5 1h-57v-155h24v64h23l40 -56q1 -4 8 -6q2 -2 3 -2h20zM1169 604l-67 155h-22l-65 -155h11q7 0 9 2q0 2 7 6l11 27h76l13 -27q1 -4 5 -6q2 -2 8 -2h14zM1930 721q3 -2 8 -7.5t6 -12.5q4 -7 4 -21q0 -12 -4 -23q-1 -5 -6 -9.5
t-8 -6.5q-5 -4 -9 -6.5t-8 -7.5q-9 -4 -23 -4q-6 0 -12 1t-10 3q-5 5 -10.5 7.5t-9.5 6.5q-3 2 -6 6.5t-3 9.5q-4 7 -5 12t-1 11q0 10 6 21q0 7 3 12.5t6 7.5q4 4 9.5 7t10.5 5q9 4 22 4q5 0 11.5 -1t11.5 -3zM801 721q7 -2 9.5 -7.5t4.5 -12.5q4 -7 4 -21q0 -11 -4 -23
q-2 -5 -4.5 -9.5t-9.5 -6.5q-1 -4 -6 -7l-11 -7q-9 -4 -22 -4q-11 0 -23 4q-4 5 -9 7.5t-9 6.5q-2 2 -5.5 6.5t-5.5 9.5q-4 12 -4 23q0 12 4 21q2 7 5.5 12.5t5.5 7.5q4 4 9 7t9 5q5 2 12.5 3t10.5 1q13 0 22 -4q8 -2 11.5 -5t5.5 -7zM2126 759h-22v-120q-1 2 -2 5t-3 4
l-75 104l-3 7h-24v-155h22v121l2 -2l87 -119h18v155zM2218 332h31l6 3q3 3 4 5q6 0 14 5q2 5 3 7t4 4q0 3 3 8t3 10v34q-3 6 -7 10.5t-6 7.5q-10 4 -18 12h-43q-6 -4 -9.5 -7t-9.5 -5q-5 -3 -7.5 -7.5t-4.5 -10.5q-1 -4 -1.5 -7t-0.5 -7v-20q0 -13 5 -18q2 -2 4.5 -4t4.5 -7
l7 -3q2 -2 4 -2q4 -4 7 -5t7 -3zM296 690q5 12 5 20q0 9 -5 18q0 2 -5 7l-6 6q-2 3 -5 7t-10 4q-3 5 -8.5 6t-9.5 1h-52v-155h16v59h36q4 0 9.5 0.5t8.5 2.5q10 4 15 10q4 2 7.5 6t3.5 8zM1579 408q-6 -14 -6 -21v-8q0 -4 3 -5q0 -10 5 -18q0 -2 2 -4t4 -7l5 -3q2 -2 11 -2
q2 -4 5.5 -5t5.5 -3h27q6 2 9.5 3t6.5 5l6 2l4 3q2 5 4.5 7t2.5 4q3 3 4 8t3 10q0 2 1 5.5t1 7.5q0 2 -1 8t-5 13q0 6 -4 10.5t-6 7.5q-3 1 -8 6l-10 6h-42q-4 -4 -10 -7l-10 -5l-5 -8q-3 -5 -3 -10zM997 759h-18v-120l-2 4q-2 6 -2 5l-74 104q-5 0 -6 7h-25v-155h21v124h2
l2 -1v-4l86 -119h16v155zM2115 381q-5 -1 -8.5 -2t-5.5 -2l45 -61h-12l-6 2q-4 0 -4 9l-39 50h-28v-61h-15v140h57q3 0 9 -2q2 -2 6.5 -5.5t5.5 -5.5q4 -2 5 -5.5t7 -7.5v-27q-4 -4 -5 -8t-3 -6zM1342 381q-3 -3 -11 -4l47 -61h-15q-3 0 -3 2q-6 0 -6 9l-39 50h-28v-61h-13
v140h56q2 0 6 -2q10 -1 18 -11q0 -2 3 -5.5t3 -7.5q2 -2 2 -6v-14q0 -1 -2 -7q0 -10 -4 -14l-5 -4q-3 -3 -9 -4zM412 759h-98v-155h98v21h-74v47h58v18h-58v45h74v24zM1721 759h-93v-155h93v21h-69v47h58v18h-58v45h69v24zM2460 454q6 2 5 2h13v-140h-12v114l-2 -2v-2
q-4 -8 -6.5 -17.5t-8.5 -14.5q-5 -7 -7 -12.5t-7 -14.5q-2 -9 -3 -15.5t-5 -9.5q-3 -8 -6.5 -12.5t-5.5 -13.5h-15q-10 14 -15 27t-10 28q-4 12 -12 26.5t-12 28.5v2h-4v-112h-14v140h14q4 0 6 -2l2 -2v-7l49 -105q0 -4 2 -4l1 2v4q0 2 8 6l41 97q2 7 3 7t1 2zM1480 759h-22
v-104q0 -4 -2 -8q-1 -7 -10 -12q0 -2 -4 -3.5t-6 -6.5l-9 -2h-9q-7 0 -13 2q-5 5 -8.5 6.5t-5.5 3.5l-11 12q0 3 -1 7.5t-1 11.5v93h-20v-93q0 -7 1 -11.5t1 -7.5q0 -8 6 -14q3 -8 10 -12q2 -4 4.5 -6.5t8.5 -4.5q2 -2 6.5 -3t7.5 -3q4 0 7 -1.5t8 -1.5t8.5 1.5t11.5 1.5
q2 2 5 3t7 3q3 2 6 4.5t6 6.5q3 2 5 5.5t7 6.5q0 4 3 7t3 7v112zM664 632q2 5 3 8t1 8q0 12 -5.5 20t-12.5 14q-2 0 -3.5 2t-5.5 4l-4 2h-4q-1 0 -1 4q-8 0 -9 1q-8 2 -9.5 3t-5.5 3q-6 5 -9 5q-3 4 -3 6v15q0 1 1.5 2.5t1.5 3.5q2 0 4.5 1t4.5 1q6 2 5 2h10q2 -2 4 -2
q7 0 8 -4q1 -3 4 -3h2q9 0 14 5l4 2q0 2 -2 4l-5 4q-2 1 -4.5 4t-6.5 5q-2 0 -4 2.5t-5 4.5q-5 0 -7 0.5t-4 0.5q-7 0 -12 -0.5t-8 -0.5q-5 -2 -7 -4.5t-6 -4.5q-2 -6 -5.5 -8.5t-8.5 -6.5q0 -4 -2 -7t-2 -9t4 -18l12 -11q2 -2 6 -5t7 -3q5 -2 8 -4t7 -2q1 -2 6 -2t7 -2
l6 -2q2 0 4 -2t2 -3t2 -6q2 -2 2 -7v-9q0 -2 -2 -4t-2 -4t-2 -3q-2 -5 -6 -6l-4 -1q-4 0 -8 -1t-5 -1q-4 0 -7 1t-6 1q-2 0 -3.5 1t-1.5 6l-4 1q-4 4 -11 4h-7l-4 -2l-5 -2q0 -3 3 -3q0 -3 2 -5q0 -4 4 -4v-6h5q7 -7 16 -9t19 -2h10q5 0 11 2q4 2 8.5 4t6.5 5q13 5 14 17z
M1741 316h-18v140h20q3 0 4 -4l74 -104q2 0 2 -5l2 -1v114h14v-140h-12l-82 114v4h-4v-118zM1596 632q9 7 9 16q0 12 -5.5 20t-12.5 14q-6 4 -6 6h-4l-4 2h-3q-4 0 -5 4h-4q-2 0 -5 1q-2 2 -4 3t-7 3l-7 5q-2 1 -3 2l-2 2l-1 2q0 1 -1 3t-1 4q0 4 4 8q0 2 4 6q2 0 3 1t4 1
q2 2 11 2l4 -1q2 -1 5 -1q3 -3 8 -4q6 -3 8 -3q6 0 8 5l5 2q0 2 -2.5 4t-4.5 4q0 1 -3 4l-5 5q-3 0 -5.5 2.5t-6.5 4.5h-6l-5 1q-6 0 -10 -0.5t-8 -0.5l-13 -9q-5 -6 -7 -8.5t-6 -6.5q-1 -4 -3 -7t-2 -9q0 -4 2 -7.5t3 -10.5l10 -11q5 -2 7.5 -5t6.5 -3q4 -2 7.5 -4t6.5 -2
q4 -2 7 -2t6 -2q6 0 10 -4l4 -3q2 -2 2 -6q2 -2 2 -6v-9q0 -3 -2 -5q0 -6 -6 -7q-6 -5 -7 -6t-3 -1q-7 0 -8 -1t-5 -1q-3 0 -6.5 1t-5.5 1q-2 1 -4 3l-4 4l-2 1q-5 4 -10 4h-7q-2 0 -4 -2l-6 -2q2 -1 2 -2t2 -1q0 -3 1 -4l3 -3v-2q6 -6 9 -6q7 -7 14.5 -9t17.5 -2h12
q3 0 11 2q3 2 6.5 4t7.5 5l5 8q3 3 4 9zM78 350q-6 6 -7 17l-3 10q-1 3 -1 10t4 16l2 10t5 10l4 6l5 7q2 2 6.5 4.5t6.5 4.5q6 7 11 8t9 3q3 0 8 1.5t10 1.5q7 0 14.5 -1.5t13.5 -5.5q8 -2 12.5 -6.5t8.5 -9.5q-2 -2 -4 -2v-4h-13q-4 2 -7 5t-7 3h-36l-22 -12
q-4 -3 -7.5 -7.5t-4.5 -10.5q-2 -7 -3 -13t-1 -8q0 -9 4 -13q0 -5 0.5 -10t0.5 -8l5 -4q4 -1 6 -7l7 -4q3 -1 8 -1q3 -4 5.5 -5t6.5 -3h33q2 2 7 3t9 5v29h-14v2q-2 0 -3 1.5t-3 3.5h-2q-1 1 -1 3v4h36v-51q-2 -5 -3.5 -6t-5.5 -8h-12q-8 -2 -12 -2h-34q-4 0 -9 3.5t-11 7.5
q-2 0 -6.5 2.5t-6.5 6.5q-3 4 -5 6.5t-4 7.5zM240 438v-44h56v-15h-56v-47h67v-16h-84v140h84v-18h-67zM1171 438v-44h60v-15h-60v-47h68v-16h-84v140h84v-18h-68zM2375 759h-20q-3 0 -8 -5q-6 -5 -6 -10l-37 -47h-2q0 -2 -2 -2v2l-39 47q-1 7 -4 10q-5 5 -11 5h-18l58 -77
v-2q0 -2 2 -2l2 -2v-72h21v70q2 0 2 2l2 4v2zM641 456v-85q0 -7 2 -10t5 -5q0 -6 3.5 -9.5t5.5 -4.5q0 -2 4.5 -4t6.5 -4q6 -2 8 -2h16q1 0 5 2l9 4q2 1 3.5 2t3.5 2q3 1 8 14q4 3 4 15v85h14v-85q0 -12 -4 -23t-12 -16q-2 -5 -6.5 -9.5t-8.5 -4.5q-8 -1 -13.5 -1.5
t-10.5 -0.5t-11 0.5t-14 1.5q-2 0 -6.5 4.5l-9.5 9.5l-10 16q-1 6 -3.5 11t-2.5 12v85h14zM2253 625h-69v134h-21v-155h90v21zM1271 625h-67v134h-20v-155h87v21zM1452 336q1 2 2 3.5t2 3.5q2 2 3 6.5t1 6.5q0 9 -2 11t-3 4.5t-3 4.5q-1 1 -8 3q-4 0 -6 2t-6 2q-8 0 -14 6
q-9 0 -13 7q-2 0 -3.5 3.5t-3.5 7.5v22q0 1 2 7q0 8 7 9l6 7q2 1 3.5 2t3.5 2q5 0 7.5 1.5t8.5 1.5l6 -2l4 -1q4 0 5 -1t5 -3q2 0 4 -3.5t2 -5.5q4 0 6 -3l1 -2l-2 -2q-6 -2 -9 -2h-6q-2 2 -2 4h-23q-9 0 -9 -2q-5 -7 -5 -8q-4 0 -4 -8q0 -5 4 -6q0 -5 3 -6q0 -1 3 -4l4 -1
q4 -4 7.5 -4t7.5 -3q3 0 4 -1l2 -1q4 0 8 -5h4q2 0 4 -2h2q5 -4 8.5 -7t5.5 -4q1 -5 1.5 -10.5t0.5 -9.5v-10q0 -5 -4 -6q-3 -4 -5.5 -7.5t-6.5 -5.5q-2 -2 -6 -5.5t-6 -3.5q-6 -2 -10 -2h-9q-11 0 -18.5 1t-12.5 10q-2 0 -3.5 2.5t-5.5 4.5v4l-2 2l4 2h7q1 0 3 -1t4 -1
q4 -4 6.5 -5t4.5 -3h22q8 0 12 4zM1069 316l-59 140h6q6 0 8 -2t3 -2t3 -7l43 -103v-2l2 -6v6l2 2q5 14 13 27.5t12 24.5q4 16 10 28t12 23q0 7 1.5 7t1.5 2q6 2 7 2h11q-8 -18 -15.5 -35t-16.5 -34q-4 -9 -7 -18.5t-6 -18.5l-16 -34h-15zM532 438v-49h60v-12h-60v-61h-16
v140h85v-18h-69zM1959 438v-49h54v-12h-54v-61h-16v140h81v-18h-65zM879 456v-124h63v-16h-80v140h17zM371 316v122h-46v18h105v-18h-47v-122h-12zM784 456v-124h64v-16h-80v140h16zM270 728q2 -1 3 -4t3 -5q4 -4 4 -9v-4q0 -5 -4 -9q-2 -2 -3 -4.5t-3 -2.5l-4 -4l-4 -4h-46
v53h36q4 0 10 -2q1 0 4 -3zM1325 389q4 0 6 3q4 4 9 4l2 5q0 2 5 6q0 1 1 4t1 7q0 2 -1 3.5t-1 4.5q-7 3 -7 8q-5 0 -9 4h-44v-49h38zM2101 392q4 4 7 4q7 7 7 11q2 4 2 11q0 4 -2 8q0 2 -7 8q-3 0 -7 4h-44v-49h36q3 0 8 3zM1525 456v-140h-18v140h18zM518 701l-4 -7
q-2 0 -3 -2t-3 -2q-2 -2 -10 -2h-33v47h33q4 0 10 -2q2 0 6 -5q1 -2 2 -3.5t2 -3.5q3 -2 3 -9q0 -5 -3 -11zM684 129l-27 69q0 2 -1 3l-1 2q0 4 -3 6v-6l-1 -2q-1 -1 -1 -3l-27 -69h61zM1093 727v-4l27 -64h-59l30 64v5zM1755 82q6 0 6 -6q2 -2 2 -5v-4q0 -9 -2 -11
q0 -5 -6 -9q-3 0 -6 -4h-17q-4 4 -11 4q0 2 -5 9q-2 2 -2 11v4q0 3 2 5l3 4l2 2q7 4 11 4q1 3 4 3h10q3 0 3 -3q3 0 6 -4z" />
    <glyph glyph-name="four" unicode="4" 
d="M2478 1093v-587h-2404v587h910q0 30 5.5 58t20.5 53q12 29 26 52.5t37 41.5q39 42 91 62q28 12 55.5 17t56.5 5q33 0 61.5 -6.5t53.5 -15.5q27 -14 50.5 -29.5t45.5 -36.5q35 -38 60 -94q11 -27 15.5 -54t4.5 -53h911zM1030 1194q-20 -49 -20 -101q0 -58 20 -106
q10 -22 24.5 -43.5t29.5 -42.5q20 -17 41.5 -32t45.5 -25q46 -23 105 -23q31 0 56.5 4.5t47.5 16.5q48 19 83 57q22 20 35.5 41t26.5 43q20 54 20 110q0 20 -3.5 43.5t-11.5 47.5q-14 40 -43 72q-14 20 -29.5 33.5t-34.5 25.5l-76 36q-16 3 -33 6t-38 3q-29 0 -55.5 -5.5
t-51.5 -19.5q-50 -19 -85 -57q-17 -19 -30.5 -39.5t-23.5 -44.5zM1142 936l314 317q62 -80 62 -160q0 -24 -3.5 -45.5t-11.5 -41.5q-8 -19 -17.5 -37t-23.5 -33h-320zM1095 928q-14 17 -25 36.5t-19 39.5q-9 18 -12.5 40.5t-3.5 48.5q0 18 3.5 39t12.5 43q7 35 40 68h318z
M1135 207q2 -4 4.5 -11t5.5 -14q2 -10 2 -14v-32q0 -5 -2 -11l-6 -15l-4 -14q-6 -4 -10.5 -10t-8.5 -10q-6 -5 -11 -10.5t-10 -9.5q-9 -5 -15.5 -7t-12.5 -4q-10 -2 -15 -2h-17q-9 0 -19 2t-23 4q-12 6 -18.5 13t-17.5 14q-15 14 -21 35q-4 10 -6 19.5t-2 23.5v14q0 4 2 14
q4 17 12 25q4 8 7.5 13t7.5 11q9 5 13.5 9.5t10.5 9.5l12 4l17 6q5 0 11.5 1t13.5 1q10 0 17 -1t15 -1q6 -4 12.5 -6t15.5 -4q5 -5 10 -9.5t11 -9.5q4 -6 8.5 -11t10.5 -13zM2195 207q4 -4 6.5 -11t4.5 -14q4 -7 4 -14v-32q0 -7 -4 -11q-2 -7 -4.5 -15t-6.5 -14l-16 -20
l-12 -10l-14 -10q-5 -5 -12 -7t-13 -4q-8 -2 -14 -2h-17q-19 0 -43 6q-8 6 -16 13t-17 14q-8 6 -14 14t-8 21q-6 10 -7.5 19.5t-1.5 23.5q0 8 1 14t1 14l6 14t7 11q2 8 6 13t10 11q3 5 10.5 9.5t12.5 9.5q4 2 11 4t13 6q11 0 17 1t12 1q9 0 17 -1t14 -1q6 -4 13 -6t12 -4
l26 -19q2 -6 8 -11t8 -13zM2433 260l1 1q1 1 6 1h38v-219h-38v160l-5 -9v-8q0 -2 -2 -4q-6 -16 -13 -34.5t-16 -31.5q-6 -20 -12 -36.5t-14 -36.5h-37l-55 139q-6 3 -6 12q0 4 -1 4l-2 2v-157h-42v219h40q5 0 6.5 -1t4.5 -1q2 -2 3 -2t4 -2l7 -4q0 -2 2 -3.5t2 -3.5
q4 -18 11 -32.5t16 -34.5l12 -33q3 -8 6 -15l6 -14v-14q3 0 4 -4q0 4 1 4v14l11 13l44 116q0 1 2 3l2 4q0 1 3 3l3 1q2 2 4 2t4 2zM1329 262h38v-219h-36l-100 146l-4 5v2q-3 4 -3 5q-4 1 -4 4q0 4 -7 4v-166h-37v219h33q4 0 9.5 -1t5.5 -3q3 -2 5 -2t4 -2l22 -33
q6 -8 11 -16.5t10 -19.5q13 -13 24 -29t25 -29q0 -2 1 -4.5t1 -6.5l1 -3q0 -2 1 -3v152zM672 262l94 -219h-25q-9 0 -16 4q-2 2 -4 6.5t-6 8.5l-14 27h-100l-9 -27q0 -6 -4 -6q-2 -5 -4 -5l-3 -4q-2 0 -4.5 -1t-6.5 -1q0 -2 -2 -2h-27l96 219h35zM260 262h139v-39h-100v-49
h82v-41h-82v-51h100v-39h-139v219zM839 659q1 7 2 11t1 10q0 12 -3 21q0 7 -4.5 10.5t-6.5 9.5q-2 3 -4.5 6.5t-6.5 7.5l-7 6q-2 3 -9 9q-4 2 -8 4.5t-11 4.5q-5 0 -9.5 0.5t-10.5 0.5q-3 0 -8.5 -0.5t-12.5 -0.5q-6 -2 -10 -4.5t-8 -4.5q-4 -6 -7.5 -8.5t-7.5 -6.5
q-13 -7 -14 -14q-4 -6 -5 -9.5l-3 -10.5q-1 -5 -1.5 -10t-0.5 -11t2 -14.5t4 -15.5t6.5 -12.5t11.5 -12.5q10 -15 25 -15q10 -6 29 -6h20q15 5 19 8q11 4 16 13q3 4 6 7.5t5 8.5q2 4 6.5 9t4.5 9zM1966 659v42l-7 20q-5 7 -15 14q-1 4 -6 6.5t-10 8.5l-4 2t-5 2l-7 5
q-7 0 -12 0.5t-10 0.5q-6 0 -11 -0.5t-9 -0.5l-22 -9q-3 -6 -6 -8.5t-7 -6.5q-3 -4 -6.5 -7t-5.5 -7q-2 -6 -4.5 -9.5t-2.5 -10.5q-6 -9 -6 -21q0 -6 3 -14.5t6 -15.5q4 -15 16 -25q7 -15 26 -15q10 -6 29 -6h22q3 2 8 4t8 4l10 6t6 7q11 8 15 16zM74 262h158v-24
q0 -4 -1 -6q0 -3 -2 -5l-4 -4l-105 -143h1l2 2h108v-39h-164v13q0 11 2 13q0 2 5 7v4l2 4q2 2 4 3.5t2 6.5l94 129h-102v39zM1839 203q-4 -4 -7 -10.5t-7 -14.5q-2 -4 -4 -10t-2 -14q0 -7 2 -15l4 -12q2 -7 6 -14.5t8 -10.5q4 -4 9.5 -8.5t14.5 -7.5q12 -4 27 -4q5 0 10 1
t12 1q3 2 8 5t8 7q3 0 9 2h13q3 0 9 -2q2 -1 3.5 -3t3.5 -4l6 -7q-3 -4 -6 -7.5t-7 -7.5q-7 -5 -11.5 -8t-12.5 -6q-7 -4 -11.5 -5t-10.5 -3t-11 -2h-12q-12 0 -23.5 2t-21.5 4q-10 5 -18.5 12t-16.5 15q-16 13 -22 35q-4 10 -7 19.5t-3 23.5q0 10 1 14l4 14q1 7 3 14t6 11
q6 8 8.5 13t9.5 11q14 9 25 19q4 2 9.5 4t18.5 6q5 0 12 1t15 1h13q4 0 10 -2t10.5 -3t11.5 -3q8 -4 12.5 -6.5t11.5 -7.5l13 -17l-6 -8q-2 -1 -5 -4l-2 -4h-15q-7 0 -16 4l-16 10q-10 2 -12 2h-10q-17 0 -27 -7q-17 -1 -24 -13zM1690 151l7 -10.5t3 -7.5q6 -8 6 -20
q0 -15 -8 -29l-8 -12l-9 -10q-7 -6 -11.5 -9.5t-12.5 -5.5q-5 -2 -14 -3t-15 -1q-8 0 -14.5 1l-19.5 3q-5 2 -10 6.5t-11 13.5q-4 1 -6 5l-4 8q-7 2 -7 9l7 5q2 2 4 2h4l2 2h10q4 0 4 -2q7 0 9 -2q7 -5 10.5 -6.5t5.5 -3.5q2 0 6 -1t10 -1h5q2 0 6 2q5 1 8 2t7 3q6 6 7 9
q2 4 4 7.5t2 7.5q0 7 -6 10q-5 6 -7 6q-2 4 -7.5 5t-7.5 2q-6 0 -14 7q-5 0 -9 1t-9 7q-11 3 -14.5 6t-7.5 7q-12 4 -12 14q-6 10 -6 25q0 18 6 26l6 11l8 10q4 2 10 4t13 6q6 0 10.5 1t13.5 1q4 0 8.5 -1t11.5 -1l15 -6q3 -4 6.5 -6.5t7.5 -7.5q4 -2 7.5 -5.5t3.5 -7.5
l-7 -4q-4 -2 -7 -4.5t-3 -3.5h-18l-5 1l-7 5q-2 0 -4 1t-4 1h-17q-2 0 -3 -1t-5 -3q-2 -3 -6 -6q-1 -3 -1 -10q0 -5 1 -5q2 -2 3 -5.5t3 -7.5h6q1 0 5 -2q5 -1 9.5 -3t10.5 -4l9 -2q5 -4 9 -5t9 -5q5 -2 10 -5t8 -8zM1579 336q-12 7 -16 20q-7 17 -7 31v16l11 20l12 13
q6 7 12 9q3 7 9.5 8t9.5 3q4 0 8 1.5t10 1.5q4 0 10.5 -1.5t10.5 -1.5q5 -2 8.5 -3t7.5 -8q2 -2 5.5 -4.5t6.5 -4.5l13 -13l8 -20q0 -4 1 -9t1 -7q0 -6 -1 -14t-5 -17q-5 -13 -17 -20q-5 -4 -9.5 -7.5t-11.5 -10.5q-5 -1 -12 -1.5t-16 -0.5h-15q-4 0 -10 2q-18 7 -24 18z
M2284 336q-7 -4 -13.5 -7.5t-11.5 -10.5q-8 -2 -12 -2h-30q-5 0 -13 2q-7 4 -12.5 8.5t-10.5 9.5q-6 6 -13 20q-2 9 -4.5 17t-2.5 14q0 2 1 7t1 9q3 5 4 10t4 10q2 3 5 6t5 7q6 4 18 9q3 7 8 8t7 3q6 0 9 1.5t10 1.5q2 0 8.5 -1.5t11.5 -1.5q4 -2 7.5 -3t6.5 -8l17 -9
q2 -4 4 -7t5 -6q2 -5 4 -9.5t3 -10.5q2 -4 3 -9t1 -7q0 -6 -1 -14t-5 -17q0 -6 -5 -11zM2166 127q5 12 5 27q0 16 -5 24q-3 9 -8 15.5t-8 9.5q-10 10 -24 13q-4 5 -12 6t-17 1q-12 0 -25 -7q-8 -1 -13 -4t-11 -9q-4 -3 -7.5 -9.5t-8.5 -15.5q0 -4 -1 -10t-1 -14q0 -9 1 -15
t1 -12q4 -8 8 -14t8 -11q6 -4 11 -8.5t13 -7.5q7 -2 14 -3t11 -1q9 0 17 1t12 3q8 3 14 7.5t10 8.5q11 11 16 25zM1104 127q4 11 4 27q0 13 -4 24q-2 9 -6.5 15.5t-13.5 9.5q-2 6 -7.5 9t-11.5 4q-11 7 -30 7q-14 0 -25 -7q-11 -1 -23 -13q-6 -3 -9 -9.5t-5 -15.5
q-5 -5 -5 -10v-29q0 -5 5 -12q2 -7 5 -14.5t9 -10.5q6 -4 11 -8.5t12 -7.5q11 -4 25 -4q19 0 30 4q13 7 19 16q9 3 13.5 10.5t6.5 14.5zM774 262h139v-39h-100v-55h82v-39h-82v-86h-39v219zM570 223h-58v-180h-43v180h-62v39h163v-39zM1188 864q-19 7 -37 19t-35 26h322
q-18 -14 -36 -26t-36 -19q-24 -6 -45.5 -11t-44.5 -5q-25 0 -45.5 5t-42.5 11zM1389 262h165v-39h-65v-180h-39v180h-61v39zM1366 1315q18 -8 36 -20.5t36 -22.5h-325q38 30 75 43q37 18 88 18q48 0 90 -18zM559 604l-47 68q4 0 11 4q8 5 9 10q9 5 9 11v26q0 1 -2 5
q-3 10 -11 15q-5 9 -14 9q-2 5 -6.5 6t-9.5 1h-57v-155h24v64h23l40 -56q1 -4 8 -6q2 -2 3 -2h20zM1169 604l-67 155h-22l-65 -155h11q7 0 9 2q0 2 7 6l11 27h76l13 -27q1 -4 5 -6q2 -2 8 -2h14zM1930 721q3 -2 8 -7.5t6 -12.5q4 -7 4 -21q0 -12 -4 -23q-1 -5 -6 -9.5
t-8 -6.5q-5 -4 -9 -6.5t-8 -7.5q-9 -4 -23 -4q-6 0 -12 1t-10 3q-5 5 -10.5 7.5t-9.5 6.5q-3 2 -6 6.5t-3 9.5q-4 7 -5 12t-1 11q0 10 6 21q0 7 3 12.5t6 7.5q4 4 9.5 7t10.5 5q9 4 22 4q5 0 11.5 -1t11.5 -3zM801 721q7 -2 9.5 -7.5t4.5 -12.5q4 -7 4 -21q0 -11 -4 -23
q-2 -5 -4.5 -9.5t-9.5 -6.5q-1 -4 -6 -7l-11 -7q-9 -4 -22 -4q-11 0 -23 4q-4 5 -9 7.5t-9 6.5q-2 2 -5.5 6.5t-5.5 9.5q-4 12 -4 23q0 12 4 21q2 7 5.5 12.5t5.5 7.5q4 4 9 7t9 5q5 2 12.5 3t10.5 1q13 0 22 -4q8 -2 11.5 -5t5.5 -7zM2126 759h-22v-120q-1 2 -2 5t-3 4
l-75 104l-3 7h-24v-155h22v121l2 -2l87 -119h18v155zM2218 332h31l6 3q3 3 4 5q6 0 14 5q2 5 3 7t4 4q0 3 3 8t3 10v34q-3 6 -7 10.5t-6 7.5q-10 4 -18 12h-43q-6 -4 -9.5 -7t-9.5 -5q-5 -3 -7.5 -7.5t-4.5 -10.5q-1 -4 -1.5 -7t-0.5 -7v-20q0 -13 5 -18q2 -2 4.5 -4t4.5 -7
l7 -3q2 -2 4 -2q4 -4 7 -5t7 -3zM296 690q5 12 5 20q0 9 -5 18q0 2 -5 7l-6 6q-2 3 -5 7t-10 4q-3 5 -8.5 6t-9.5 1h-52v-155h16v59h36q4 0 9.5 0.5t8.5 2.5q10 4 15 10q4 2 7.5 6t3.5 8zM1579 408q-6 -14 -6 -21v-8q0 -4 3 -5q0 -10 5 -18q0 -2 2 -4t4 -7l5 -3q2 -2 11 -2
q2 -4 5.5 -5t5.5 -3h27q6 2 9.5 3t6.5 5l6 2l4 3q2 5 4.5 7t2.5 4q3 3 4 8t3 10q0 2 1 5.5t1 7.5q0 2 -1 8t-5 13q0 6 -4 10.5t-6 7.5q-3 1 -8 6l-10 6h-42q-4 -4 -10 -7l-10 -5l-5 -8q-3 -5 -3 -10zM997 759h-18v-120l-2 4q-2 6 -2 5l-74 104q-5 0 -6 7h-25v-155h21v124h2
l2 -1v-4l86 -119h16v155zM2115 381q-5 -1 -8.5 -2t-5.5 -2l45 -61h-12l-6 2q-4 0 -4 9l-39 50h-28v-61h-15v140h57q3 0 9 -2q2 -2 6.5 -5.5t5.5 -5.5q4 -2 5 -5.5t7 -7.5v-27q-4 -4 -5 -8t-3 -6zM1342 381q-3 -3 -11 -4l47 -61h-15q-3 0 -3 2q-6 0 -6 9l-39 50h-28v-61h-13
v140h56q2 0 6 -2q10 -1 18 -11q0 -2 3 -5.5t3 -7.5q2 -2 2 -6v-14q0 -1 -2 -7q0 -10 -4 -14l-5 -4q-3 -3 -9 -4zM412 759h-98v-155h98v21h-74v47h58v18h-58v45h74v24zM1721 759h-93v-155h93v21h-69v47h58v18h-58v45h69v24zM2460 454q6 2 5 2h13v-140h-12v114l-2 -2v-2
q-4 -8 -6.5 -17.5t-8.5 -14.5q-5 -7 -7 -12.5t-7 -14.5q-2 -9 -3 -15.5t-5 -9.5q-3 -8 -6.5 -12.5t-5.5 -13.5h-15q-10 14 -15 27t-10 28q-4 12 -12 26.5t-12 28.5v2h-4v-112h-14v140h14q4 0 6 -2l2 -2v-7l49 -105q0 -4 2 -4l1 2v4q0 2 8 6l41 97q2 7 3 7t1 2zM1480 759h-22
v-104q0 -4 -2 -8q-1 -7 -10 -12q0 -2 -4 -3.5t-6 -6.5l-9 -2h-9q-7 0 -13 2q-5 5 -8.5 6.5t-5.5 3.5l-11 12q0 3 -1 7.5t-1 11.5v93h-20v-93q0 -7 1 -11.5t1 -7.5q0 -8 6 -14q3 -8 10 -12q2 -4 4.5 -6.5t8.5 -4.5q2 -2 6.5 -3t7.5 -3q4 0 7 -1.5t8 -1.5t8.5 1.5t11.5 1.5
q2 2 5 3t7 3q3 2 6 4.5t6 6.5q3 2 5 5.5t7 6.5q0 4 3 7t3 7v112zM664 632q2 5 3 8t1 8q0 12 -5.5 20t-12.5 14q-2 0 -3.5 2t-5.5 4l-4 2h-4q-1 0 -1 4q-8 0 -9 1q-8 2 -9.5 3t-5.5 3q-6 5 -9 5q-3 4 -3 6v15q0 1 1.5 2.5t1.5 3.5q2 0 4.5 1t4.5 1q6 2 5 2h10q2 -2 4 -2
q7 0 8 -4q1 -3 4 -3h2q9 0 14 5l4 2q0 2 -2 4l-5 4q-2 1 -4.5 4t-6.5 5q-2 0 -4 2.5t-5 4.5q-5 0 -7 0.5t-4 0.5q-7 0 -12 -0.5t-8 -0.5q-5 -2 -7 -4.5t-6 -4.5q-2 -6 -5.5 -8.5t-8.5 -6.5q0 -4 -2 -7t-2 -9t4 -18l12 -11q2 -2 6 -5t7 -3q5 -2 8 -4t7 -2q1 -2 6 -2t7 -2
l6 -2q2 0 4 -2t2 -3t2 -6q2 -2 2 -7v-9q0 -2 -2 -4t-2 -4t-2 -3q-2 -5 -6 -6l-4 -1q-4 0 -8 -1t-5 -1q-4 0 -7 1t-6 1q-2 0 -3.5 1t-1.5 6l-4 1q-4 4 -11 4h-7l-4 -2l-5 -2q0 -3 3 -3q0 -3 2 -5q0 -4 4 -4v-6h5q7 -7 16 -9t19 -2h10q5 0 11 2q4 2 8.5 4t6.5 5q13 5 14 17z
M1741 316h-18v140h20q3 0 4 -4l74 -104q2 0 2 -5l2 -1v114h14v-140h-12l-82 114v4h-4v-118zM1596 632q9 7 9 16q0 12 -5.5 20t-12.5 14q-6 4 -6 6h-4l-4 2h-3q-4 0 -5 4h-4q-2 0 -5 1q-2 2 -4 3t-7 3l-7 5q-2 1 -3 2l-2 2l-1 2q0 1 -1 3t-1 4q0 4 4 8q0 2 4 6q2 0 3 1t4 1
q2 2 11 2l4 -1q2 -1 5 -1q3 -3 8 -4q6 -3 8 -3q6 0 8 5l5 2q0 2 -2.5 4t-4.5 4q0 1 -3 4l-5 5q-3 0 -5.5 2.5t-6.5 4.5h-6l-5 1q-6 0 -10 -0.5t-8 -0.5l-13 -9q-5 -6 -7 -8.5t-6 -6.5q-1 -4 -3 -7t-2 -9q0 -4 2 -7.5t3 -10.5l10 -11q5 -2 7.5 -5t6.5 -3q4 -2 7.5 -4t6.5 -2
q4 -2 7 -2t6 -2q6 0 10 -4l4 -3q2 -2 2 -6q2 -2 2 -6v-9q0 -3 -2 -5q0 -6 -6 -7q-6 -5 -7 -6t-3 -1q-7 0 -8 -1t-5 -1q-3 0 -6.5 1t-5.5 1q-2 1 -4 3l-4 4l-2 1q-5 4 -10 4h-7q-2 0 -4 -2l-6 -2q2 -1 2 -2t2 -1q0 -3 1 -4l3 -3v-2q6 -6 9 -6q7 -7 14.5 -9t17.5 -2h12
q3 0 11 2q3 2 6.5 4t7.5 5l5 8q3 3 4 9zM78 350q-6 6 -7 17l-3 10q-1 3 -1 10t4 16l2 10t5 10l4 6l5 7q2 2 6.5 4.5t6.5 4.5q6 7 11 8t9 3q3 0 8 1.5t10 1.5q7 0 14.5 -1.5t13.5 -5.5q8 -2 12.5 -6.5t8.5 -9.5q-2 -2 -4 -2v-4h-13q-4 2 -7 5t-7 3h-36l-22 -12
q-4 -3 -7.5 -7.5t-4.5 -10.5q-2 -7 -3 -13t-1 -8q0 -9 4 -13q0 -5 0.5 -10t0.5 -8l5 -4q4 -1 6 -7l7 -4q3 -1 8 -1q3 -4 5.5 -5t6.5 -3h33q2 2 7 3t9 5v29h-14v2q-2 0 -3 1.5t-3 3.5h-2q-1 1 -1 3v4h36v-51q-2 -5 -3.5 -6t-5.5 -8h-12q-8 -2 -12 -2h-34q-4 0 -9 3.5t-11 7.5
q-2 0 -6.5 2.5t-6.5 6.5q-3 4 -5 6.5t-4 7.5zM240 438v-44h56v-15h-56v-47h67v-16h-84v140h84v-18h-67zM1171 438v-44h60v-15h-60v-47h68v-16h-84v140h84v-18h-68zM2375 759h-20q-3 0 -8 -5q-6 -5 -6 -10l-37 -47h-2q0 -2 -2 -2v2l-39 47q-1 7 -4 10q-5 5 -11 5h-18l58 -77
v-2q0 -2 2 -2l2 -2v-72h21v70q2 0 2 2l2 4v2zM641 456v-85q0 -7 2 -10t5 -5q0 -6 3.5 -9.5t5.5 -4.5q0 -2 4.5 -4t6.5 -4q6 -2 8 -2h16q1 0 5 2l9 4q2 1 3.5 2t3.5 2q3 1 8 14q4 3 4 15v85h14v-85q0 -12 -4 -23t-12 -16q-2 -5 -6.5 -9.5t-8.5 -4.5q-8 -1 -13.5 -1.5
t-10.5 -0.5t-11 0.5t-14 1.5q-2 0 -6.5 4.5l-9.5 9.5l-10 16q-1 6 -3.5 11t-2.5 12v85h14zM2253 625h-69v134h-21v-155h90v21zM1271 625h-67v134h-20v-155h87v21zM1452 336q1 2 2 3.5t2 3.5q2 2 3 6.5t1 6.5q0 9 -2 11t-3 4.5t-3 4.5q-1 1 -8 3q-4 0 -6 2t-6 2q-8 0 -14 6
q-9 0 -13 7q-2 0 -3.5 3.5t-3.5 7.5v22q0 1 2 7q0 8 7 9l6 7q2 1 3.5 2t3.5 2q5 0 7.5 1.5t8.5 1.5l6 -2l4 -1q4 0 5 -1t5 -3q2 0 4 -3.5t2 -5.5q4 0 6 -3l1 -2l-2 -2q-6 -2 -9 -2h-6q-2 2 -2 4h-23q-9 0 -9 -2q-5 -7 -5 -8q-4 0 -4 -8q0 -5 4 -6q0 -5 3 -6q0 -1 3 -4l4 -1
q4 -4 7.5 -4t7.5 -3q3 0 4 -1l2 -1q4 0 8 -5h4q2 0 4 -2h2q5 -4 8.5 -7t5.5 -4q1 -5 1.5 -10.5t0.5 -9.5v-10q0 -5 -4 -6q-3 -4 -5.5 -7.5t-6.5 -5.5q-2 -2 -6 -5.5t-6 -3.5q-6 -2 -10 -2h-9q-11 0 -18.5 1t-12.5 10q-2 0 -3.5 2.5t-5.5 4.5v4l-2 2l4 2h7q1 0 3 -1t4 -1
q4 -4 6.5 -5t4.5 -3h22q8 0 12 4zM1069 316l-59 140h6q6 0 8 -2t3 -2t3 -7l43 -103v-2l2 -6v6l2 2q5 14 13 27.5t12 24.5q4 16 10 28t12 23q0 7 1.5 7t1.5 2q6 2 7 2h11q-8 -18 -15.5 -35t-16.5 -34q-4 -9 -7 -18.5t-6 -18.5l-16 -34h-15zM532 438v-49h60v-12h-60v-61h-16
v140h85v-18h-69zM1959 438v-49h54v-12h-54v-61h-16v140h81v-18h-65zM879 456v-124h63v-16h-80v140h17zM371 316v122h-46v18h105v-18h-47v-122h-12zM784 456v-124h64v-16h-80v140h16zM270 728q2 -1 3 -4t3 -5q4 -4 4 -9v-4q0 -5 -4 -9q-2 -2 -3 -4.5t-3 -2.5l-4 -4l-4 -4h-46
v53h36q4 0 10 -2q1 0 4 -3zM1325 389q4 0 6 3q4 4 9 4l2 5q0 2 5 6q0 1 1 4t1 7q0 2 -1 3.5t-1 4.5q-7 3 -7 8q-5 0 -9 4h-44v-49h38zM2101 392q4 4 7 4q7 7 7 11q2 4 2 11q0 4 -2 8q0 2 -7 8q-3 0 -7 4h-44v-49h36q3 0 8 3zM1525 456v-140h-18v140h18zM518 701l-4 -7
q-2 0 -3 -2t-3 -2q-2 -2 -10 -2h-33v47h33q4 0 10 -2q2 0 6 -5q1 -2 2 -3.5t2 -3.5q3 -2 3 -9q0 -5 -3 -11zM684 129l-27 69q0 2 -1 3l-1 2q0 4 -3 6v-6l-1 -2q-1 -1 -1 -3l-27 -69h61zM1093 727v-4l27 -64h-59l30 64v5zM1755 82q6 0 6 -6q2 -2 2 -5v-4q0 -9 -2 -11
q0 -5 -6 -9q-3 0 -6 -4h-17q-4 4 -11 4q0 2 -5 9q-2 2 -2 11v4q0 3 2 5l3 4l2 2q7 4 11 4q1 3 4 3h10q3 0 3 -3q3 0 6 -4z" />
    <glyph glyph-name="five" unicode="5" 
d="M2478 1093v-587h-2404v587h910q0 30 5.5 58t20.5 53q12 29 26 52.5t37 41.5q39 42 91 62q28 12 55.5 17t56.5 5q33 0 61.5 -6.5t53.5 -15.5q27 -14 50.5 -29.5t45.5 -36.5q35 -38 60 -94q11 -27 15.5 -54t4.5 -53h911zM1030 1194q-20 -49 -20 -101q0 -58 20 -106
q10 -22 24.5 -43.5t29.5 -42.5q20 -17 41.5 -32t45.5 -25q46 -23 105 -23q31 0 56.5 4.5t47.5 16.5q48 19 83 57q22 20 35.5 41t26.5 43q20 54 20 110q0 20 -3.5 43.5t-11.5 47.5q-14 40 -43 72q-14 20 -29.5 33.5t-34.5 25.5l-76 36q-16 3 -33 6t-38 3q-29 0 -55.5 -5.5
t-51.5 -19.5q-50 -19 -85 -57q-17 -19 -30.5 -39.5t-23.5 -44.5zM1142 936l314 317q62 -80 62 -160q0 -24 -3.5 -45.5t-11.5 -41.5q-8 -19 -17.5 -37t-23.5 -33h-320zM1095 928q-14 17 -25 36.5t-19 39.5q-9 18 -12.5 40.5t-3.5 48.5q0 18 3.5 39t12.5 43q7 35 40 68h318z
M1135 207q2 -4 4.5 -11t5.5 -14q2 -10 2 -14v-32q0 -5 -2 -11l-6 -15l-4 -14q-6 -4 -10.5 -10t-8.5 -10q-6 -5 -11 -10.5t-10 -9.5q-9 -5 -15.5 -7t-12.5 -4q-10 -2 -15 -2h-17q-9 0 -19 2t-23 4q-12 6 -18.5 13t-17.5 14q-15 14 -21 35q-4 10 -6 19.5t-2 23.5v14q0 4 2 14
q4 17 12 25q4 8 7.5 13t7.5 11q9 5 13.5 9.5t10.5 9.5l12 4l17 6q5 0 11.5 1t13.5 1q10 0 17 -1t15 -1q6 -4 12.5 -6t15.5 -4q5 -5 10 -9.5t11 -9.5q4 -6 8.5 -11t10.5 -13zM2195 207q4 -4 6.5 -11t4.5 -14q4 -7 4 -14v-32q0 -7 -4 -11q-2 -7 -4.5 -15t-6.5 -14l-16 -20
l-12 -10l-14 -10q-5 -5 -12 -7t-13 -4q-8 -2 -14 -2h-17q-19 0 -43 6q-8 6 -16 13t-17 14q-8 6 -14 14t-8 21q-6 10 -7.5 19.5t-1.5 23.5q0 8 1 14t1 14l6 14t7 11q2 8 6 13t10 11q3 5 10.5 9.5t12.5 9.5q4 2 11 4t13 6q11 0 17 1t12 1q9 0 17 -1t14 -1q6 -4 13 -6t12 -4
l26 -19q2 -6 8 -11t8 -13zM2433 260l1 1q1 1 6 1h38v-219h-38v160l-5 -9v-8q0 -2 -2 -4q-6 -16 -13 -34.5t-16 -31.5q-6 -20 -12 -36.5t-14 -36.5h-37l-55 139q-6 3 -6 12q0 4 -1 4l-2 2v-157h-42v219h40q5 0 6.5 -1t4.5 -1q2 -2 3 -2t4 -2l7 -4q0 -2 2 -3.5t2 -3.5
q4 -18 11 -32.5t16 -34.5l12 -33q3 -8 6 -15l6 -14v-14q3 0 4 -4q0 4 1 4v14l11 13l44 116q0 1 2 3l2 4q0 1 3 3l3 1q2 2 4 2t4 2zM1329 262h38v-219h-36l-100 146l-4 5v2q-3 4 -3 5q-4 1 -4 4q0 4 -7 4v-166h-37v219h33q4 0 9.5 -1t5.5 -3q3 -2 5 -2t4 -2l22 -33
q6 -8 11 -16.5t10 -19.5q13 -13 24 -29t25 -29q0 -2 1 -4.5t1 -6.5l1 -3q0 -2 1 -3v152zM672 262l94 -219h-25q-9 0 -16 4q-2 2 -4 6.5t-6 8.5l-14 27h-100l-9 -27q0 -6 -4 -6q-2 -5 -4 -5l-3 -4q-2 0 -4.5 -1t-6.5 -1q0 -2 -2 -2h-27l96 219h35zM260 262h139v-39h-100v-49
h82v-41h-82v-51h100v-39h-139v219zM839 659q1 7 2 11t1 10q0 12 -3 21q0 7 -4.5 10.5t-6.5 9.5q-2 3 -4.5 6.5t-6.5 7.5l-7 6q-2 3 -9 9q-4 2 -8 4.5t-11 4.5q-5 0 -9.5 0.5t-10.5 0.5q-3 0 -8.5 -0.5t-12.5 -0.5q-6 -2 -10 -4.5t-8 -4.5q-4 -6 -7.5 -8.5t-7.5 -6.5
q-13 -7 -14 -14q-4 -6 -5 -9.5l-3 -10.5q-1 -5 -1.5 -10t-0.5 -11t2 -14.5t4 -15.5t6.5 -12.5t11.5 -12.5q10 -15 25 -15q10 -6 29 -6h20q15 5 19 8q11 4 16 13q3 4 6 7.5t5 8.5q2 4 6.5 9t4.5 9zM1966 659v42l-7 20q-5 7 -15 14q-1 4 -6 6.5t-10 8.5l-4 2t-5 2l-7 5
q-7 0 -12 0.5t-10 0.5q-6 0 -11 -0.5t-9 -0.5l-22 -9q-3 -6 -6 -8.5t-7 -6.5q-3 -4 -6.5 -7t-5.5 -7q-2 -6 -4.5 -9.5t-2.5 -10.5q-6 -9 -6 -21q0 -6 3 -14.5t6 -15.5q4 -15 16 -25q7 -15 26 -15q10 -6 29 -6h22q3 2 8 4t8 4l10 6t6 7q11 8 15 16zM74 262h158v-24
q0 -4 -1 -6q0 -3 -2 -5l-4 -4l-105 -143h1l2 2h108v-39h-164v13q0 11 2 13q0 2 5 7v4l2 4q2 2 4 3.5t2 6.5l94 129h-102v39zM1839 203q-4 -4 -7 -10.5t-7 -14.5q-2 -4 -4 -10t-2 -14q0 -7 2 -15l4 -12q2 -7 6 -14.5t8 -10.5q4 -4 9.5 -8.5t14.5 -7.5q12 -4 27 -4q5 0 10 1
t12 1q3 2 8 5t8 7q3 0 9 2h13q3 0 9 -2q2 -1 3.5 -3t3.5 -4l6 -7q-3 -4 -6 -7.5t-7 -7.5q-7 -5 -11.5 -8t-12.5 -6q-7 -4 -11.5 -5t-10.5 -3t-11 -2h-12q-12 0 -23.5 2t-21.5 4q-10 5 -18.5 12t-16.5 15q-16 13 -22 35q-4 10 -7 19.5t-3 23.5q0 10 1 14l4 14q1 7 3 14t6 11
q6 8 8.5 13t9.5 11q14 9 25 19q4 2 9.5 4t18.5 6q5 0 12 1t15 1h13q4 0 10 -2t10.5 -3t11.5 -3q8 -4 12.5 -6.5t11.5 -7.5l13 -17l-6 -8q-2 -1 -5 -4l-2 -4h-15q-7 0 -16 4l-16 10q-10 2 -12 2h-10q-17 0 -27 -7q-17 -1 -24 -13zM1690 151l7 -10.5t3 -7.5q6 -8 6 -20
q0 -15 -8 -29l-8 -12l-9 -10q-7 -6 -11.5 -9.5t-12.5 -5.5q-5 -2 -14 -3t-15 -1q-8 0 -14.5 1l-19.5 3q-5 2 -10 6.5t-11 13.5q-4 1 -6 5l-4 8q-7 2 -7 9l7 5q2 2 4 2h4l2 2h10q4 0 4 -2q7 0 9 -2q7 -5 10.5 -6.5t5.5 -3.5q2 0 6 -1t10 -1h5q2 0 6 2q5 1 8 2t7 3q6 6 7 9
q2 4 4 7.5t2 7.5q0 7 -6 10q-5 6 -7 6q-2 4 -7.5 5t-7.5 2q-6 0 -14 7q-5 0 -9 1t-9 7q-11 3 -14.5 6t-7.5 7q-12 4 -12 14q-6 10 -6 25q0 18 6 26l6 11l8 10q4 2 10 4t13 6q6 0 10.5 1t13.5 1q4 0 8.5 -1t11.5 -1l15 -6q3 -4 6.5 -6.5t7.5 -7.5q4 -2 7.5 -5.5t3.5 -7.5
l-7 -4q-4 -2 -7 -4.5t-3 -3.5h-18l-5 1l-7 5q-2 0 -4 1t-4 1h-17q-2 0 -3 -1t-5 -3q-2 -3 -6 -6q-1 -3 -1 -10q0 -5 1 -5q2 -2 3 -5.5t3 -7.5h6q1 0 5 -2q5 -1 9.5 -3t10.5 -4l9 -2q5 -4 9 -5t9 -5q5 -2 10 -5t8 -8zM1579 336q-12 7 -16 20q-7 17 -7 31v16l11 20l12 13
q6 7 12 9q3 7 9.5 8t9.5 3q4 0 8 1.5t10 1.5q4 0 10.5 -1.5t10.5 -1.5q5 -2 8.5 -3t7.5 -8q2 -2 5.5 -4.5t6.5 -4.5l13 -13l8 -20q0 -4 1 -9t1 -7q0 -6 -1 -14t-5 -17q-5 -13 -17 -20q-5 -4 -9.5 -7.5t-11.5 -10.5q-5 -1 -12 -1.5t-16 -0.5h-15q-4 0 -10 2q-18 7 -24 18z
M2284 336q-7 -4 -13.5 -7.5t-11.5 -10.5q-8 -2 -12 -2h-30q-5 0 -13 2q-7 4 -12.5 8.5t-10.5 9.5q-6 6 -13 20q-2 9 -4.5 17t-2.5 14q0 2 1 7t1 9q3 5 4 10t4 10q2 3 5 6t5 7q6 4 18 9q3 7 8 8t7 3q6 0 9 1.5t10 1.5q2 0 8.5 -1.5t11.5 -1.5q4 -2 7.5 -3t6.5 -8l17 -9
q2 -4 4 -7t5 -6q2 -5 4 -9.5t3 -10.5q2 -4 3 -9t1 -7q0 -6 -1 -14t-5 -17q0 -6 -5 -11zM2166 127q5 12 5 27q0 16 -5 24q-3 9 -8 15.5t-8 9.5q-10 10 -24 13q-4 5 -12 6t-17 1q-12 0 -25 -7q-8 -1 -13 -4t-11 -9q-4 -3 -7.5 -9.5t-8.5 -15.5q0 -4 -1 -10t-1 -14q0 -9 1 -15
t1 -12q4 -8 8 -14t8 -11q6 -4 11 -8.5t13 -7.5q7 -2 14 -3t11 -1q9 0 17 1t12 3q8 3 14 7.5t10 8.5q11 11 16 25zM1104 127q4 11 4 27q0 13 -4 24q-2 9 -6.5 15.5t-13.5 9.5q-2 6 -7.5 9t-11.5 4q-11 7 -30 7q-14 0 -25 -7q-11 -1 -23 -13q-6 -3 -9 -9.5t-5 -15.5
q-5 -5 -5 -10v-29q0 -5 5 -12q2 -7 5 -14.5t9 -10.5q6 -4 11 -8.5t12 -7.5q11 -4 25 -4q19 0 30 4q13 7 19 16q9 3 13.5 10.5t6.5 14.5zM774 262h139v-39h-100v-55h82v-39h-82v-86h-39v219zM570 223h-58v-180h-43v180h-62v39h163v-39zM1188 864q-19 7 -37 19t-35 26h322
q-18 -14 -36 -26t-36 -19q-24 -6 -45.5 -11t-44.5 -5q-25 0 -45.5 5t-42.5 11zM1389 262h165v-39h-65v-180h-39v180h-61v39zM1366 1315q18 -8 36 -20.5t36 -22.5h-325q38 30 75 43q37 18 88 18q48 0 90 -18zM559 604l-47 68q4 0 11 4q8 5 9 10q9 5 9 11v26q0 1 -2 5
q-3 10 -11 15q-5 9 -14 9q-2 5 -6.5 6t-9.5 1h-57v-155h24v64h23l40 -56q1 -4 8 -6q2 -2 3 -2h20zM1169 604l-67 155h-22l-65 -155h11q7 0 9 2q0 2 7 6l11 27h76l13 -27q1 -4 5 -6q2 -2 8 -2h14zM1930 721q3 -2 8 -7.5t6 -12.5q4 -7 4 -21q0 -12 -4 -23q-1 -5 -6 -9.5
t-8 -6.5q-5 -4 -9 -6.5t-8 -7.5q-9 -4 -23 -4q-6 0 -12 1t-10 3q-5 5 -10.5 7.5t-9.5 6.5q-3 2 -6 6.5t-3 9.5q-4 7 -5 12t-1 11q0 10 6 21q0 7 3 12.5t6 7.5q4 4 9.5 7t10.5 5q9 4 22 4q5 0 11.5 -1t11.5 -3zM801 721q7 -2 9.5 -7.5t4.5 -12.5q4 -7 4 -21q0 -11 -4 -23
q-2 -5 -4.5 -9.5t-9.5 -6.5q-1 -4 -6 -7l-11 -7q-9 -4 -22 -4q-11 0 -23 4q-4 5 -9 7.5t-9 6.5q-2 2 -5.5 6.5t-5.5 9.5q-4 12 -4 23q0 12 4 21q2 7 5.5 12.5t5.5 7.5q4 4 9 7t9 5q5 2 12.5 3t10.5 1q13 0 22 -4q8 -2 11.5 -5t5.5 -7zM2126 759h-22v-120q-1 2 -2 5t-3 4
l-75 104l-3 7h-24v-155h22v121l2 -2l87 -119h18v155zM2218 332h31l6 3q3 3 4 5q6 0 14 5q2 5 3 7t4 4q0 3 3 8t3 10v34q-3 6 -7 10.5t-6 7.5q-10 4 -18 12h-43q-6 -4 -9.5 -7t-9.5 -5q-5 -3 -7.5 -7.5t-4.5 -10.5q-1 -4 -1.5 -7t-0.5 -7v-20q0 -13 5 -18q2 -2 4.5 -4t4.5 -7
l7 -3q2 -2 4 -2q4 -4 7 -5t7 -3zM296 690q5 12 5 20q0 9 -5 18q0 2 -5 7l-6 6q-2 3 -5 7t-10 4q-3 5 -8.5 6t-9.5 1h-52v-155h16v59h36q4 0 9.5 0.5t8.5 2.5q10 4 15 10q4 2 7.5 6t3.5 8zM1579 408q-6 -14 -6 -21v-8q0 -4 3 -5q0 -10 5 -18q0 -2 2 -4t4 -7l5 -3q2 -2 11 -2
q2 -4 5.5 -5t5.5 -3h27q6 2 9.5 3t6.5 5l6 2l4 3q2 5 4.5 7t2.5 4q3 3 4 8t3 10q0 2 1 5.5t1 7.5q0 2 -1 8t-5 13q0 6 -4 10.5t-6 7.5q-3 1 -8 6l-10 6h-42q-4 -4 -10 -7l-10 -5l-5 -8q-3 -5 -3 -10zM997 759h-18v-120l-2 4q-2 6 -2 5l-74 104q-5 0 -6 7h-25v-155h21v124h2
l2 -1v-4l86 -119h16v155zM2115 381q-5 -1 -8.5 -2t-5.5 -2l45 -61h-12l-6 2q-4 0 -4 9l-39 50h-28v-61h-15v140h57q3 0 9 -2q2 -2 6.5 -5.5t5.5 -5.5q4 -2 5 -5.5t7 -7.5v-27q-4 -4 -5 -8t-3 -6zM1342 381q-3 -3 -11 -4l47 -61h-15q-3 0 -3 2q-6 0 -6 9l-39 50h-28v-61h-13
v140h56q2 0 6 -2q10 -1 18 -11q0 -2 3 -5.5t3 -7.5q2 -2 2 -6v-14q0 -1 -2 -7q0 -10 -4 -14l-5 -4q-3 -3 -9 -4zM412 759h-98v-155h98v21h-74v47h58v18h-58v45h74v24zM1721 759h-93v-155h93v21h-69v47h58v18h-58v45h69v24zM2460 454q6 2 5 2h13v-140h-12v114l-2 -2v-2
q-4 -8 -6.5 -17.5t-8.5 -14.5q-5 -7 -7 -12.5t-7 -14.5q-2 -9 -3 -15.5t-5 -9.5q-3 -8 -6.5 -12.5t-5.5 -13.5h-15q-10 14 -15 27t-10 28q-4 12 -12 26.5t-12 28.5v2h-4v-112h-14v140h14q4 0 6 -2l2 -2v-7l49 -105q0 -4 2 -4l1 2v4q0 2 8 6l41 97q2 7 3 7t1 2zM1480 759h-22
v-104q0 -4 -2 -8q-1 -7 -10 -12q0 -2 -4 -3.5t-6 -6.5l-9 -2h-9q-7 0 -13 2q-5 5 -8.5 6.5t-5.5 3.5l-11 12q0 3 -1 7.5t-1 11.5v93h-20v-93q0 -7 1 -11.5t1 -7.5q0 -8 6 -14q3 -8 10 -12q2 -4 4.5 -6.5t8.5 -4.5q2 -2 6.5 -3t7.5 -3q4 0 7 -1.5t8 -1.5t8.5 1.5t11.5 1.5
q2 2 5 3t7 3q3 2 6 4.5t6 6.5q3 2 5 5.5t7 6.5q0 4 3 7t3 7v112zM664 632q2 5 3 8t1 8q0 12 -5.5 20t-12.5 14q-2 0 -3.5 2t-5.5 4l-4 2h-4q-1 0 -1 4q-8 0 -9 1q-8 2 -9.5 3t-5.5 3q-6 5 -9 5q-3 4 -3 6v15q0 1 1.5 2.5t1.5 3.5q2 0 4.5 1t4.5 1q6 2 5 2h10q2 -2 4 -2
q7 0 8 -4q1 -3 4 -3h2q9 0 14 5l4 2q0 2 -2 4l-5 4q-2 1 -4.5 4t-6.5 5q-2 0 -4 2.5t-5 4.5q-5 0 -7 0.5t-4 0.5q-7 0 -12 -0.5t-8 -0.5q-5 -2 -7 -4.5t-6 -4.5q-2 -6 -5.5 -8.5t-8.5 -6.5q0 -4 -2 -7t-2 -9t4 -18l12 -11q2 -2 6 -5t7 -3q5 -2 8 -4t7 -2q1 -2 6 -2t7 -2
l6 -2q2 0 4 -2t2 -3t2 -6q2 -2 2 -7v-9q0 -2 -2 -4t-2 -4t-2 -3q-2 -5 -6 -6l-4 -1q-4 0 -8 -1t-5 -1q-4 0 -7 1t-6 1q-2 0 -3.5 1t-1.5 6l-4 1q-4 4 -11 4h-7l-4 -2l-5 -2q0 -3 3 -3q0 -3 2 -5q0 -4 4 -4v-6h5q7 -7 16 -9t19 -2h10q5 0 11 2q4 2 8.5 4t6.5 5q13 5 14 17z
M1741 316h-18v140h20q3 0 4 -4l74 -104q2 0 2 -5l2 -1v114h14v-140h-12l-82 114v4h-4v-118zM1596 632q9 7 9 16q0 12 -5.5 20t-12.5 14q-6 4 -6 6h-4l-4 2h-3q-4 0 -5 4h-4q-2 0 -5 1q-2 2 -4 3t-7 3l-7 5q-2 1 -3 2l-2 2l-1 2q0 1 -1 3t-1 4q0 4 4 8q0 2 4 6q2 0 3 1t4 1
q2 2 11 2l4 -1q2 -1 5 -1q3 -3 8 -4q6 -3 8 -3q6 0 8 5l5 2q0 2 -2.5 4t-4.5 4q0 1 -3 4l-5 5q-3 0 -5.5 2.5t-6.5 4.5h-6l-5 1q-6 0 -10 -0.5t-8 -0.5l-13 -9q-5 -6 -7 -8.5t-6 -6.5q-1 -4 -3 -7t-2 -9q0 -4 2 -7.5t3 -10.5l10 -11q5 -2 7.5 -5t6.5 -3q4 -2 7.5 -4t6.5 -2
q4 -2 7 -2t6 -2q6 0 10 -4l4 -3q2 -2 2 -6q2 -2 2 -6v-9q0 -3 -2 -5q0 -6 -6 -7q-6 -5 -7 -6t-3 -1q-7 0 -8 -1t-5 -1q-3 0 -6.5 1t-5.5 1q-2 1 -4 3l-4 4l-2 1q-5 4 -10 4h-7q-2 0 -4 -2l-6 -2q2 -1 2 -2t2 -1q0 -3 1 -4l3 -3v-2q6 -6 9 -6q7 -7 14.5 -9t17.5 -2h12
q3 0 11 2q3 2 6.5 4t7.5 5l5 8q3 3 4 9zM78 350q-6 6 -7 17l-3 10q-1 3 -1 10t4 16l2 10t5 10l4 6l5 7q2 2 6.5 4.5t6.5 4.5q6 7 11 8t9 3q3 0 8 1.5t10 1.5q7 0 14.5 -1.5t13.5 -5.5q8 -2 12.5 -6.5t8.5 -9.5q-2 -2 -4 -2v-4h-13q-4 2 -7 5t-7 3h-36l-22 -12
q-4 -3 -7.5 -7.5t-4.5 -10.5q-2 -7 -3 -13t-1 -8q0 -9 4 -13q0 -5 0.5 -10t0.5 -8l5 -4q4 -1 6 -7l7 -4q3 -1 8 -1q3 -4 5.5 -5t6.5 -3h33q2 2 7 3t9 5v29h-14v2q-2 0 -3 1.5t-3 3.5h-2q-1 1 -1 3v4h36v-51q-2 -5 -3.5 -6t-5.5 -8h-12q-8 -2 -12 -2h-34q-4 0 -9 3.5t-11 7.5
q-2 0 -6.5 2.5t-6.5 6.5q-3 4 -5 6.5t-4 7.5zM240 438v-44h56v-15h-56v-47h67v-16h-84v140h84v-18h-67zM1171 438v-44h60v-15h-60v-47h68v-16h-84v140h84v-18h-68zM2375 759h-20q-3 0 -8 -5q-6 -5 -6 -10l-37 -47h-2q0 -2 -2 -2v2l-39 47q-1 7 -4 10q-5 5 -11 5h-18l58 -77
v-2q0 -2 2 -2l2 -2v-72h21v70q2 0 2 2l2 4v2zM641 456v-85q0 -7 2 -10t5 -5q0 -6 3.5 -9.5t5.5 -4.5q0 -2 4.5 -4t6.5 -4q6 -2 8 -2h16q1 0 5 2l9 4q2 1 3.5 2t3.5 2q3 1 8 14q4 3 4 15v85h14v-85q0 -12 -4 -23t-12 -16q-2 -5 -6.5 -9.5t-8.5 -4.5q-8 -1 -13.5 -1.5
t-10.5 -0.5t-11 0.5t-14 1.5q-2 0 -6.5 4.5l-9.5 9.5l-10 16q-1 6 -3.5 11t-2.5 12v85h14zM2253 625h-69v134h-21v-155h90v21zM1271 625h-67v134h-20v-155h87v21zM1452 336q1 2 2 3.5t2 3.5q2 2 3 6.5t1 6.5q0 9 -2 11t-3 4.5t-3 4.5q-1 1 -8 3q-4 0 -6 2t-6 2q-8 0 -14 6
q-9 0 -13 7q-2 0 -3.5 3.5t-3.5 7.5v22q0 1 2 7q0 8 7 9l6 7q2 1 3.5 2t3.5 2q5 0 7.5 1.5t8.5 1.5l6 -2l4 -1q4 0 5 -1t5 -3q2 0 4 -3.5t2 -5.5q4 0 6 -3l1 -2l-2 -2q-6 -2 -9 -2h-6q-2 2 -2 4h-23q-9 0 -9 -2q-5 -7 -5 -8q-4 0 -4 -8q0 -5 4 -6q0 -5 3 -6q0 -1 3 -4l4 -1
q4 -4 7.5 -4t7.5 -3q3 0 4 -1l2 -1q4 0 8 -5h4q2 0 4 -2h2q5 -4 8.5 -7t5.5 -4q1 -5 1.5 -10.5t0.5 -9.5v-10q0 -5 -4 -6q-3 -4 -5.5 -7.5t-6.5 -5.5q-2 -2 -6 -5.5t-6 -3.5q-6 -2 -10 -2h-9q-11 0 -18.5 1t-12.5 10q-2 0 -3.5 2.5t-5.5 4.5v4l-2 2l4 2h7q1 0 3 -1t4 -1
q4 -4 6.5 -5t4.5 -3h22q8 0 12 4zM1069 316l-59 140h6q6 0 8 -2t3 -2t3 -7l43 -103v-2l2 -6v6l2 2q5 14 13 27.5t12 24.5q4 16 10 28t12 23q0 7 1.5 7t1.5 2q6 2 7 2h11q-8 -18 -15.5 -35t-16.5 -34q-4 -9 -7 -18.5t-6 -18.5l-16 -34h-15zM532 438v-49h60v-12h-60v-61h-16
v140h85v-18h-69zM1959 438v-49h54v-12h-54v-61h-16v140h81v-18h-65zM879 456v-124h63v-16h-80v140h17zM371 316v122h-46v18h105v-18h-47v-122h-12zM784 456v-124h64v-16h-80v140h16zM270 728q2 -1 3 -4t3 -5q4 -4 4 -9v-4q0 -5 -4 -9q-2 -2 -3 -4.5t-3 -2.5l-4 -4l-4 -4h-46
v53h36q4 0 10 -2q1 0 4 -3zM1325 389q4 0 6 3q4 4 9 4l2 5q0 2 5 6q0 1 1 4t1 7q0 2 -1 3.5t-1 4.5q-7 3 -7 8q-5 0 -9 4h-44v-49h38zM2101 392q4 4 7 4q7 7 7 11q2 4 2 11q0 4 -2 8q0 2 -7 8q-3 0 -7 4h-44v-49h36q3 0 8 3zM1525 456v-140h-18v140h18zM518 701l-4 -7
q-2 0 -3 -2t-3 -2q-2 -2 -10 -2h-33v47h33q4 0 10 -2q2 0 6 -5q1 -2 2 -3.5t2 -3.5q3 -2 3 -9q0 -5 -3 -11zM684 129l-27 69q0 2 -1 3l-1 2q0 4 -3 6v-6l-1 -2q-1 -1 -1 -3l-27 -69h61zM1093 727v-4l27 -64h-59l30 64v5zM1755 82q6 0 6 -6q2 -2 2 -5v-4q0 -9 -2 -11
q0 -5 -6 -9q-3 0 -6 -4h-17q-4 4 -11 4q0 2 -5 9q-2 2 -2 11v4q0 3 2 5l3 4l2 2q7 4 11 4q1 3 4 3h10q3 0 3 -3q3 0 6 -4z" />
    <glyph glyph-name="six" unicode="6" 
d="M2478 1093v-587h-2404v587h910q0 30 5.5 58t20.5 53q12 29 26 52.5t37 41.5q39 42 91 62q28 12 55.5 17t56.5 5q33 0 61.5 -6.5t53.5 -15.5q27 -14 50.5 -29.5t45.5 -36.5q35 -38 60 -94q11 -27 15.5 -54t4.5 -53h911zM1030 1194q-20 -49 -20 -101q0 -58 20 -106
q10 -22 24.5 -43.5t29.5 -42.5q20 -17 41.5 -32t45.5 -25q46 -23 105 -23q31 0 56.5 4.5t47.5 16.5q48 19 83 57q22 20 35.5 41t26.5 43q20 54 20 110q0 20 -3.5 43.5t-11.5 47.5q-14 40 -43 72q-14 20 -29.5 33.5t-34.5 25.5l-76 36q-16 3 -33 6t-38 3q-29 0 -55.5 -5.5
t-51.5 -19.5q-50 -19 -85 -57q-17 -19 -30.5 -39.5t-23.5 -44.5zM1142 936l314 317q62 -80 62 -160q0 -24 -3.5 -45.5t-11.5 -41.5q-8 -19 -17.5 -37t-23.5 -33h-320zM1095 928q-14 17 -25 36.5t-19 39.5q-9 18 -12.5 40.5t-3.5 48.5q0 18 3.5 39t12.5 43q7 35 40 68h318z
M1135 207q2 -4 4.5 -11t5.5 -14q2 -10 2 -14v-32q0 -5 -2 -11l-6 -15l-4 -14q-6 -4 -10.5 -10t-8.5 -10q-6 -5 -11 -10.5t-10 -9.5q-9 -5 -15.5 -7t-12.5 -4q-10 -2 -15 -2h-17q-9 0 -19 2t-23 4q-12 6 -18.5 13t-17.5 14q-15 14 -21 35q-4 10 -6 19.5t-2 23.5v14q0 4 2 14
q4 17 12 25q4 8 7.5 13t7.5 11q9 5 13.5 9.5t10.5 9.5l12 4l17 6q5 0 11.5 1t13.5 1q10 0 17 -1t15 -1q6 -4 12.5 -6t15.5 -4q5 -5 10 -9.5t11 -9.5q4 -6 8.5 -11t10.5 -13zM2195 207q4 -4 6.5 -11t4.5 -14q4 -7 4 -14v-32q0 -7 -4 -11q-2 -7 -4.5 -15t-6.5 -14l-16 -20
l-12 -10l-14 -10q-5 -5 -12 -7t-13 -4q-8 -2 -14 -2h-17q-19 0 -43 6q-8 6 -16 13t-17 14q-8 6 -14 14t-8 21q-6 10 -7.5 19.5t-1.5 23.5q0 8 1 14t1 14l6 14t7 11q2 8 6 13t10 11q3 5 10.5 9.5t12.5 9.5q4 2 11 4t13 6q11 0 17 1t12 1q9 0 17 -1t14 -1q6 -4 13 -6t12 -4
l26 -19q2 -6 8 -11t8 -13zM2433 260l1 1q1 1 6 1h38v-219h-38v160l-5 -9v-8q0 -2 -2 -4q-6 -16 -13 -34.5t-16 -31.5q-6 -20 -12 -36.5t-14 -36.5h-37l-55 139q-6 3 -6 12q0 4 -1 4l-2 2v-157h-42v219h40q5 0 6.5 -1t4.5 -1q2 -2 3 -2t4 -2l7 -4q0 -2 2 -3.5t2 -3.5
q4 -18 11 -32.5t16 -34.5l12 -33q3 -8 6 -15l6 -14v-14q3 0 4 -4q0 4 1 4v14l11 13l44 116q0 1 2 3l2 4q0 1 3 3l3 1q2 2 4 2t4 2zM1329 262h38v-219h-36l-100 146l-4 5v2q-3 4 -3 5q-4 1 -4 4q0 4 -7 4v-166h-37v219h33q4 0 9.5 -1t5.5 -3q3 -2 5 -2t4 -2l22 -33
q6 -8 11 -16.5t10 -19.5q13 -13 24 -29t25 -29q0 -2 1 -4.5t1 -6.5l1 -3q0 -2 1 -3v152zM672 262l94 -219h-25q-9 0 -16 4q-2 2 -4 6.5t-6 8.5l-14 27h-100l-9 -27q0 -6 -4 -6q-2 -5 -4 -5l-3 -4q-2 0 -4.5 -1t-6.5 -1q0 -2 -2 -2h-27l96 219h35zM260 262h139v-39h-100v-49
h82v-41h-82v-51h100v-39h-139v219zM839 659q1 7 2 11t1 10q0 12 -3 21q0 7 -4.5 10.5t-6.5 9.5q-2 3 -4.5 6.5t-6.5 7.5l-7 6q-2 3 -9 9q-4 2 -8 4.5t-11 4.5q-5 0 -9.5 0.5t-10.5 0.5q-3 0 -8.5 -0.5t-12.5 -0.5q-6 -2 -10 -4.5t-8 -4.5q-4 -6 -7.5 -8.5t-7.5 -6.5
q-13 -7 -14 -14q-4 -6 -5 -9.5l-3 -10.5q-1 -5 -1.5 -10t-0.5 -11t2 -14.5t4 -15.5t6.5 -12.5t11.5 -12.5q10 -15 25 -15q10 -6 29 -6h20q15 5 19 8q11 4 16 13q3 4 6 7.5t5 8.5q2 4 6.5 9t4.5 9zM1966 659v42l-7 20q-5 7 -15 14q-1 4 -6 6.5t-10 8.5l-4 2t-5 2l-7 5
q-7 0 -12 0.5t-10 0.5q-6 0 -11 -0.5t-9 -0.5l-22 -9q-3 -6 -6 -8.5t-7 -6.5q-3 -4 -6.5 -7t-5.5 -7q-2 -6 -4.5 -9.5t-2.5 -10.5q-6 -9 -6 -21q0 -6 3 -14.5t6 -15.5q4 -15 16 -25q7 -15 26 -15q10 -6 29 -6h22q3 2 8 4t8 4l10 6t6 7q11 8 15 16zM74 262h158v-24
q0 -4 -1 -6q0 -3 -2 -5l-4 -4l-105 -143h1l2 2h108v-39h-164v13q0 11 2 13q0 2 5 7v4l2 4q2 2 4 3.5t2 6.5l94 129h-102v39zM1839 203q-4 -4 -7 -10.5t-7 -14.5q-2 -4 -4 -10t-2 -14q0 -7 2 -15l4 -12q2 -7 6 -14.5t8 -10.5q4 -4 9.5 -8.5t14.5 -7.5q12 -4 27 -4q5 0 10 1
t12 1q3 2 8 5t8 7q3 0 9 2h13q3 0 9 -2q2 -1 3.5 -3t3.5 -4l6 -7q-3 -4 -6 -7.5t-7 -7.5q-7 -5 -11.5 -8t-12.5 -6q-7 -4 -11.5 -5t-10.5 -3t-11 -2h-12q-12 0 -23.5 2t-21.5 4q-10 5 -18.5 12t-16.5 15q-16 13 -22 35q-4 10 -7 19.5t-3 23.5q0 10 1 14l4 14q1 7 3 14t6 11
q6 8 8.5 13t9.5 11q14 9 25 19q4 2 9.5 4t18.5 6q5 0 12 1t15 1h13q4 0 10 -2t10.5 -3t11.5 -3q8 -4 12.5 -6.5t11.5 -7.5l13 -17l-6 -8q-2 -1 -5 -4l-2 -4h-15q-7 0 -16 4l-16 10q-10 2 -12 2h-10q-17 0 -27 -7q-17 -1 -24 -13zM1690 151l7 -10.5t3 -7.5q6 -8 6 -20
q0 -15 -8 -29l-8 -12l-9 -10q-7 -6 -11.5 -9.5t-12.5 -5.5q-5 -2 -14 -3t-15 -1q-8 0 -14.5 1l-19.5 3q-5 2 -10 6.5t-11 13.5q-4 1 -6 5l-4 8q-7 2 -7 9l7 5q2 2 4 2h4l2 2h10q4 0 4 -2q7 0 9 -2q7 -5 10.5 -6.5t5.5 -3.5q2 0 6 -1t10 -1h5q2 0 6 2q5 1 8 2t7 3q6 6 7 9
q2 4 4 7.5t2 7.5q0 7 -6 10q-5 6 -7 6q-2 4 -7.5 5t-7.5 2q-6 0 -14 7q-5 0 -9 1t-9 7q-11 3 -14.5 6t-7.5 7q-12 4 -12 14q-6 10 -6 25q0 18 6 26l6 11l8 10q4 2 10 4t13 6q6 0 10.5 1t13.5 1q4 0 8.5 -1t11.5 -1l15 -6q3 -4 6.5 -6.5t7.5 -7.5q4 -2 7.5 -5.5t3.5 -7.5
l-7 -4q-4 -2 -7 -4.5t-3 -3.5h-18l-5 1l-7 5q-2 0 -4 1t-4 1h-17q-2 0 -3 -1t-5 -3q-2 -3 -6 -6q-1 -3 -1 -10q0 -5 1 -5q2 -2 3 -5.5t3 -7.5h6q1 0 5 -2q5 -1 9.5 -3t10.5 -4l9 -2q5 -4 9 -5t9 -5q5 -2 10 -5t8 -8zM1579 336q-12 7 -16 20q-7 17 -7 31v16l11 20l12 13
q6 7 12 9q3 7 9.5 8t9.5 3q4 0 8 1.5t10 1.5q4 0 10.5 -1.5t10.5 -1.5q5 -2 8.5 -3t7.5 -8q2 -2 5.5 -4.5t6.5 -4.5l13 -13l8 -20q0 -4 1 -9t1 -7q0 -6 -1 -14t-5 -17q-5 -13 -17 -20q-5 -4 -9.5 -7.5t-11.5 -10.5q-5 -1 -12 -1.5t-16 -0.5h-15q-4 0 -10 2q-18 7 -24 18z
M2284 336q-7 -4 -13.5 -7.5t-11.5 -10.5q-8 -2 -12 -2h-30q-5 0 -13 2q-7 4 -12.5 8.5t-10.5 9.5q-6 6 -13 20q-2 9 -4.5 17t-2.5 14q0 2 1 7t1 9q3 5 4 10t4 10q2 3 5 6t5 7q6 4 18 9q3 7 8 8t7 3q6 0 9 1.5t10 1.5q2 0 8.5 -1.5t11.5 -1.5q4 -2 7.5 -3t6.5 -8l17 -9
q2 -4 4 -7t5 -6q2 -5 4 -9.5t3 -10.5q2 -4 3 -9t1 -7q0 -6 -1 -14t-5 -17q0 -6 -5 -11zM2166 127q5 12 5 27q0 16 -5 24q-3 9 -8 15.5t-8 9.5q-10 10 -24 13q-4 5 -12 6t-17 1q-12 0 -25 -7q-8 -1 -13 -4t-11 -9q-4 -3 -7.5 -9.5t-8.5 -15.5q0 -4 -1 -10t-1 -14q0 -9 1 -15
t1 -12q4 -8 8 -14t8 -11q6 -4 11 -8.5t13 -7.5q7 -2 14 -3t11 -1q9 0 17 1t12 3q8 3 14 7.5t10 8.5q11 11 16 25zM1104 127q4 11 4 27q0 13 -4 24q-2 9 -6.5 15.5t-13.5 9.5q-2 6 -7.5 9t-11.5 4q-11 7 -30 7q-14 0 -25 -7q-11 -1 -23 -13q-6 -3 -9 -9.5t-5 -15.5
q-5 -5 -5 -10v-29q0 -5 5 -12q2 -7 5 -14.5t9 -10.5q6 -4 11 -8.5t12 -7.5q11 -4 25 -4q19 0 30 4q13 7 19 16q9 3 13.5 10.5t6.5 14.5zM774 262h139v-39h-100v-55h82v-39h-82v-86h-39v219zM570 223h-58v-180h-43v180h-62v39h163v-39zM1188 864q-19 7 -37 19t-35 26h322
q-18 -14 -36 -26t-36 -19q-24 -6 -45.5 -11t-44.5 -5q-25 0 -45.5 5t-42.5 11zM1389 262h165v-39h-65v-180h-39v180h-61v39zM1366 1315q18 -8 36 -20.5t36 -22.5h-325q38 30 75 43q37 18 88 18q48 0 90 -18zM559 604l-47 68q4 0 11 4q8 5 9 10q9 5 9 11v26q0 1 -2 5
q-3 10 -11 15q-5 9 -14 9q-2 5 -6.5 6t-9.5 1h-57v-155h24v64h23l40 -56q1 -4 8 -6q2 -2 3 -2h20zM1169 604l-67 155h-22l-65 -155h11q7 0 9 2q0 2 7 6l11 27h76l13 -27q1 -4 5 -6q2 -2 8 -2h14zM1930 721q3 -2 8 -7.5t6 -12.5q4 -7 4 -21q0 -12 -4 -23q-1 -5 -6 -9.5
t-8 -6.5q-5 -4 -9 -6.5t-8 -7.5q-9 -4 -23 -4q-6 0 -12 1t-10 3q-5 5 -10.5 7.5t-9.5 6.5q-3 2 -6 6.5t-3 9.5q-4 7 -5 12t-1 11q0 10 6 21q0 7 3 12.5t6 7.5q4 4 9.5 7t10.5 5q9 4 22 4q5 0 11.5 -1t11.5 -3zM801 721q7 -2 9.5 -7.5t4.5 -12.5q4 -7 4 -21q0 -11 -4 -23
q-2 -5 -4.5 -9.5t-9.5 -6.5q-1 -4 -6 -7l-11 -7q-9 -4 -22 -4q-11 0 -23 4q-4 5 -9 7.5t-9 6.5q-2 2 -5.5 6.5t-5.5 9.5q-4 12 -4 23q0 12 4 21q2 7 5.5 12.5t5.5 7.5q4 4 9 7t9 5q5 2 12.5 3t10.5 1q13 0 22 -4q8 -2 11.5 -5t5.5 -7zM2126 759h-22v-120q-1 2 -2 5t-3 4
l-75 104l-3 7h-24v-155h22v121l2 -2l87 -119h18v155zM2218 332h31l6 3q3 3 4 5q6 0 14 5q2 5 3 7t4 4q0 3 3 8t3 10v34q-3 6 -7 10.5t-6 7.5q-10 4 -18 12h-43q-6 -4 -9.5 -7t-9.5 -5q-5 -3 -7.5 -7.5t-4.5 -10.5q-1 -4 -1.5 -7t-0.5 -7v-20q0 -13 5 -18q2 -2 4.5 -4t4.5 -7
l7 -3q2 -2 4 -2q4 -4 7 -5t7 -3zM296 690q5 12 5 20q0 9 -5 18q0 2 -5 7l-6 6q-2 3 -5 7t-10 4q-3 5 -8.5 6t-9.5 1h-52v-155h16v59h36q4 0 9.5 0.5t8.5 2.5q10 4 15 10q4 2 7.5 6t3.5 8zM1579 408q-6 -14 -6 -21v-8q0 -4 3 -5q0 -10 5 -18q0 -2 2 -4t4 -7l5 -3q2 -2 11 -2
q2 -4 5.5 -5t5.5 -3h27q6 2 9.5 3t6.5 5l6 2l4 3q2 5 4.5 7t2.5 4q3 3 4 8t3 10q0 2 1 5.5t1 7.5q0 2 -1 8t-5 13q0 6 -4 10.5t-6 7.5q-3 1 -8 6l-10 6h-42q-4 -4 -10 -7l-10 -5l-5 -8q-3 -5 -3 -10zM997 759h-18v-120l-2 4q-2 6 -2 5l-74 104q-5 0 -6 7h-25v-155h21v124h2
l2 -1v-4l86 -119h16v155zM2115 381q-5 -1 -8.5 -2t-5.5 -2l45 -61h-12l-6 2q-4 0 -4 9l-39 50h-28v-61h-15v140h57q3 0 9 -2q2 -2 6.5 -5.5t5.5 -5.5q4 -2 5 -5.5t7 -7.5v-27q-4 -4 -5 -8t-3 -6zM1342 381q-3 -3 -11 -4l47 -61h-15q-3 0 -3 2q-6 0 -6 9l-39 50h-28v-61h-13
v140h56q2 0 6 -2q10 -1 18 -11q0 -2 3 -5.5t3 -7.5q2 -2 2 -6v-14q0 -1 -2 -7q0 -10 -4 -14l-5 -4q-3 -3 -9 -4zM412 759h-98v-155h98v21h-74v47h58v18h-58v45h74v24zM1721 759h-93v-155h93v21h-69v47h58v18h-58v45h69v24zM2460 454q6 2 5 2h13v-140h-12v114l-2 -2v-2
q-4 -8 -6.5 -17.5t-8.5 -14.5q-5 -7 -7 -12.5t-7 -14.5q-2 -9 -3 -15.5t-5 -9.5q-3 -8 -6.5 -12.5t-5.5 -13.5h-15q-10 14 -15 27t-10 28q-4 12 -12 26.5t-12 28.5v2h-4v-112h-14v140h14q4 0 6 -2l2 -2v-7l49 -105q0 -4 2 -4l1 2v4q0 2 8 6l41 97q2 7 3 7t1 2zM1480 759h-22
v-104q0 -4 -2 -8q-1 -7 -10 -12q0 -2 -4 -3.5t-6 -6.5l-9 -2h-9q-7 0 -13 2q-5 5 -8.5 6.5t-5.5 3.5l-11 12q0 3 -1 7.5t-1 11.5v93h-20v-93q0 -7 1 -11.5t1 -7.5q0 -8 6 -14q3 -8 10 -12q2 -4 4.5 -6.5t8.5 -4.5q2 -2 6.5 -3t7.5 -3q4 0 7 -1.5t8 -1.5t8.5 1.5t11.5 1.5
q2 2 5 3t7 3q3 2 6 4.5t6 6.5q3 2 5 5.5t7 6.5q0 4 3 7t3 7v112zM664 632q2 5 3 8t1 8q0 12 -5.5 20t-12.5 14q-2 0 -3.5 2t-5.5 4l-4 2h-4q-1 0 -1 4q-8 0 -9 1q-8 2 -9.5 3t-5.5 3q-6 5 -9 5q-3 4 -3 6v15q0 1 1.5 2.5t1.5 3.5q2 0 4.5 1t4.5 1q6 2 5 2h10q2 -2 4 -2
q7 0 8 -4q1 -3 4 -3h2q9 0 14 5l4 2q0 2 -2 4l-5 4q-2 1 -4.5 4t-6.5 5q-2 0 -4 2.5t-5 4.5q-5 0 -7 0.5t-4 0.5q-7 0 -12 -0.5t-8 -0.5q-5 -2 -7 -4.5t-6 -4.5q-2 -6 -5.5 -8.5t-8.5 -6.5q0 -4 -2 -7t-2 -9t4 -18l12 -11q2 -2 6 -5t7 -3q5 -2 8 -4t7 -2q1 -2 6 -2t7 -2
l6 -2q2 0 4 -2t2 -3t2 -6q2 -2 2 -7v-9q0 -2 -2 -4t-2 -4t-2 -3q-2 -5 -6 -6l-4 -1q-4 0 -8 -1t-5 -1q-4 0 -7 1t-6 1q-2 0 -3.5 1t-1.5 6l-4 1q-4 4 -11 4h-7l-4 -2l-5 -2q0 -3 3 -3q0 -3 2 -5q0 -4 4 -4v-6h5q7 -7 16 -9t19 -2h10q5 0 11 2q4 2 8.5 4t6.5 5q13 5 14 17z
M1741 316h-18v140h20q3 0 4 -4l74 -104q2 0 2 -5l2 -1v114h14v-140h-12l-82 114v4h-4v-118zM1596 632q9 7 9 16q0 12 -5.5 20t-12.5 14q-6 4 -6 6h-4l-4 2h-3q-4 0 -5 4h-4q-2 0 -5 1q-2 2 -4 3t-7 3l-7 5q-2 1 -3 2l-2 2l-1 2q0 1 -1 3t-1 4q0 4 4 8q0 2 4 6q2 0 3 1t4 1
q2 2 11 2l4 -1q2 -1 5 -1q3 -3 8 -4q6 -3 8 -3q6 0 8 5l5 2q0 2 -2.5 4t-4.5 4q0 1 -3 4l-5 5q-3 0 -5.5 2.5t-6.5 4.5h-6l-5 1q-6 0 -10 -0.5t-8 -0.5l-13 -9q-5 -6 -7 -8.5t-6 -6.5q-1 -4 -3 -7t-2 -9q0 -4 2 -7.5t3 -10.5l10 -11q5 -2 7.5 -5t6.5 -3q4 -2 7.5 -4t6.5 -2
q4 -2 7 -2t6 -2q6 0 10 -4l4 -3q2 -2 2 -6q2 -2 2 -6v-9q0 -3 -2 -5q0 -6 -6 -7q-6 -5 -7 -6t-3 -1q-7 0 -8 -1t-5 -1q-3 0 -6.5 1t-5.5 1q-2 1 -4 3l-4 4l-2 1q-5 4 -10 4h-7q-2 0 -4 -2l-6 -2q2 -1 2 -2t2 -1q0 -3 1 -4l3 -3v-2q6 -6 9 -6q7 -7 14.5 -9t17.5 -2h12
q3 0 11 2q3 2 6.5 4t7.5 5l5 8q3 3 4 9zM78 350q-6 6 -7 17l-3 10q-1 3 -1 10t4 16l2 10t5 10l4 6l5 7q2 2 6.5 4.5t6.5 4.5q6 7 11 8t9 3q3 0 8 1.5t10 1.5q7 0 14.5 -1.5t13.5 -5.5q8 -2 12.5 -6.5t8.5 -9.5q-2 -2 -4 -2v-4h-13q-4 2 -7 5t-7 3h-36l-22 -12
q-4 -3 -7.5 -7.5t-4.5 -10.5q-2 -7 -3 -13t-1 -8q0 -9 4 -13q0 -5 0.5 -10t0.5 -8l5 -4q4 -1 6 -7l7 -4q3 -1 8 -1q3 -4 5.5 -5t6.5 -3h33q2 2 7 3t9 5v29h-14v2q-2 0 -3 1.5t-3 3.5h-2q-1 1 -1 3v4h36v-51q-2 -5 -3.5 -6t-5.5 -8h-12q-8 -2 -12 -2h-34q-4 0 -9 3.5t-11 7.5
q-2 0 -6.5 2.5t-6.5 6.5q-3 4 -5 6.5t-4 7.5zM240 438v-44h56v-15h-56v-47h67v-16h-84v140h84v-18h-67zM1171 438v-44h60v-15h-60v-47h68v-16h-84v140h84v-18h-68zM2375 759h-20q-3 0 -8 -5q-6 -5 -6 -10l-37 -47h-2q0 -2 -2 -2v2l-39 47q-1 7 -4 10q-5 5 -11 5h-18l58 -77
v-2q0 -2 2 -2l2 -2v-72h21v70q2 0 2 2l2 4v2zM641 456v-85q0 -7 2 -10t5 -5q0 -6 3.5 -9.5t5.5 -4.5q0 -2 4.5 -4t6.5 -4q6 -2 8 -2h16q1 0 5 2l9 4q2 1 3.5 2t3.5 2q3 1 8 14q4 3 4 15v85h14v-85q0 -12 -4 -23t-12 -16q-2 -5 -6.5 -9.5t-8.5 -4.5q-8 -1 -13.5 -1.5
t-10.5 -0.5t-11 0.5t-14 1.5q-2 0 -6.5 4.5l-9.5 9.5l-10 16q-1 6 -3.5 11t-2.5 12v85h14zM2253 625h-69v134h-21v-155h90v21zM1271 625h-67v134h-20v-155h87v21zM1452 336q1 2 2 3.5t2 3.5q2 2 3 6.5t1 6.5q0 9 -2 11t-3 4.5t-3 4.5q-1 1 -8 3q-4 0 -6 2t-6 2q-8 0 -14 6
q-9 0 -13 7q-2 0 -3.5 3.5t-3.5 7.5v22q0 1 2 7q0 8 7 9l6 7q2 1 3.5 2t3.5 2q5 0 7.5 1.5t8.5 1.5l6 -2l4 -1q4 0 5 -1t5 -3q2 0 4 -3.5t2 -5.5q4 0 6 -3l1 -2l-2 -2q-6 -2 -9 -2h-6q-2 2 -2 4h-23q-9 0 -9 -2q-5 -7 -5 -8q-4 0 -4 -8q0 -5 4 -6q0 -5 3 -6q0 -1 3 -4l4 -1
q4 -4 7.5 -4t7.5 -3q3 0 4 -1l2 -1q4 0 8 -5h4q2 0 4 -2h2q5 -4 8.5 -7t5.5 -4q1 -5 1.5 -10.5t0.5 -9.5v-10q0 -5 -4 -6q-3 -4 -5.5 -7.5t-6.5 -5.5q-2 -2 -6 -5.5t-6 -3.5q-6 -2 -10 -2h-9q-11 0 -18.5 1t-12.5 10q-2 0 -3.5 2.5t-5.5 4.5v4l-2 2l4 2h7q1 0 3 -1t4 -1
q4 -4 6.5 -5t4.5 -3h22q8 0 12 4zM1069 316l-59 140h6q6 0 8 -2t3 -2t3 -7l43 -103v-2l2 -6v6l2 2q5 14 13 27.5t12 24.5q4 16 10 28t12 23q0 7 1.5 7t1.5 2q6 2 7 2h11q-8 -18 -15.5 -35t-16.5 -34q-4 -9 -7 -18.5t-6 -18.5l-16 -34h-15zM532 438v-49h60v-12h-60v-61h-16
v140h85v-18h-69zM1959 438v-49h54v-12h-54v-61h-16v140h81v-18h-65zM879 456v-124h63v-16h-80v140h17zM371 316v122h-46v18h105v-18h-47v-122h-12zM784 456v-124h64v-16h-80v140h16zM270 728q2 -1 3 -4t3 -5q4 -4 4 -9v-4q0 -5 -4 -9q-2 -2 -3 -4.5t-3 -2.5l-4 -4l-4 -4h-46
v53h36q4 0 10 -2q1 0 4 -3zM1325 389q4 0 6 3q4 4 9 4l2 5q0 2 5 6q0 1 1 4t1 7q0 2 -1 3.5t-1 4.5q-7 3 -7 8q-5 0 -9 4h-44v-49h38zM2101 392q4 4 7 4q7 7 7 11q2 4 2 11q0 4 -2 8q0 2 -7 8q-3 0 -7 4h-44v-49h36q3 0 8 3zM1525 456v-140h-18v140h18zM518 701l-4 -7
q-2 0 -3 -2t-3 -2q-2 -2 -10 -2h-33v47h33q4 0 10 -2q2 0 6 -5q1 -2 2 -3.5t2 -3.5q3 -2 3 -9q0 -5 -3 -11zM684 129l-27 69q0 2 -1 3l-1 2q0 4 -3 6v-6l-1 -2q-1 -1 -1 -3l-27 -69h61zM1093 727v-4l27 -64h-59l30 64v5zM1755 82q6 0 6 -6q2 -2 2 -5v-4q0 -9 -2 -11
q0 -5 -6 -9q-3 0 -6 -4h-17q-4 4 -11 4q0 2 -5 9q-2 2 -2 11v4q0 3 2 5l3 4l2 2q7 4 11 4q1 3 4 3h10q3 0 3 -3q3 0 6 -4z" />
    <glyph glyph-name="seven" unicode="7" 
d="M2478 1093v-587h-2404v587h910q0 30 5.5 58t20.5 53q12 29 26 52.5t37 41.5q39 42 91 62q28 12 55.5 17t56.5 5q33 0 61.5 -6.5t53.5 -15.5q27 -14 50.5 -29.5t45.5 -36.5q35 -38 60 -94q11 -27 15.5 -54t4.5 -53h911zM1030 1194q-20 -49 -20 -101q0 -58 20 -106
q10 -22 24.5 -43.5t29.5 -42.5q20 -17 41.5 -32t45.5 -25q46 -23 105 -23q31 0 56.5 4.5t47.5 16.5q48 19 83 57q22 20 35.5 41t26.5 43q20 54 20 110q0 20 -3.5 43.5t-11.5 47.5q-14 40 -43 72q-14 20 -29.5 33.5t-34.5 25.5l-76 36q-16 3 -33 6t-38 3q-29 0 -55.5 -5.5
t-51.5 -19.5q-50 -19 -85 -57q-17 -19 -30.5 -39.5t-23.5 -44.5zM1142 936l314 317q62 -80 62 -160q0 -24 -3.5 -45.5t-11.5 -41.5q-8 -19 -17.5 -37t-23.5 -33h-320zM1095 928q-14 17 -25 36.5t-19 39.5q-9 18 -12.5 40.5t-3.5 48.5q0 18 3.5 39t12.5 43q7 35 40 68h318z
M1135 207q2 -4 4.5 -11t5.5 -14q2 -10 2 -14v-32q0 -5 -2 -11l-6 -15l-4 -14q-6 -4 -10.5 -10t-8.5 -10q-6 -5 -11 -10.5t-10 -9.5q-9 -5 -15.5 -7t-12.5 -4q-10 -2 -15 -2h-17q-9 0 -19 2t-23 4q-12 6 -18.5 13t-17.5 14q-15 14 -21 35q-4 10 -6 19.5t-2 23.5v14q0 4 2 14
q4 17 12 25q4 8 7.5 13t7.5 11q9 5 13.5 9.5t10.5 9.5l12 4l17 6q5 0 11.5 1t13.5 1q10 0 17 -1t15 -1q6 -4 12.5 -6t15.5 -4q5 -5 10 -9.5t11 -9.5q4 -6 8.5 -11t10.5 -13zM2195 207q4 -4 6.5 -11t4.5 -14q4 -7 4 -14v-32q0 -7 -4 -11q-2 -7 -4.5 -15t-6.5 -14l-16 -20
l-12 -10l-14 -10q-5 -5 -12 -7t-13 -4q-8 -2 -14 -2h-17q-19 0 -43 6q-8 6 -16 13t-17 14q-8 6 -14 14t-8 21q-6 10 -7.5 19.5t-1.5 23.5q0 8 1 14t1 14l6 14t7 11q2 8 6 13t10 11q3 5 10.5 9.5t12.5 9.5q4 2 11 4t13 6q11 0 17 1t12 1q9 0 17 -1t14 -1q6 -4 13 -6t12 -4
l26 -19q2 -6 8 -11t8 -13zM2433 260l1 1q1 1 6 1h38v-219h-38v160l-5 -9v-8q0 -2 -2 -4q-6 -16 -13 -34.5t-16 -31.5q-6 -20 -12 -36.5t-14 -36.5h-37l-55 139q-6 3 -6 12q0 4 -1 4l-2 2v-157h-42v219h40q5 0 6.5 -1t4.5 -1q2 -2 3 -2t4 -2l7 -4q0 -2 2 -3.5t2 -3.5
q4 -18 11 -32.5t16 -34.5l12 -33q3 -8 6 -15l6 -14v-14q3 0 4 -4q0 4 1 4v14l11 13l44 116q0 1 2 3l2 4q0 1 3 3l3 1q2 2 4 2t4 2zM1329 262h38v-219h-36l-100 146l-4 5v2q-3 4 -3 5q-4 1 -4 4q0 4 -7 4v-166h-37v219h33q4 0 9.5 -1t5.5 -3q3 -2 5 -2t4 -2l22 -33
q6 -8 11 -16.5t10 -19.5q13 -13 24 -29t25 -29q0 -2 1 -4.5t1 -6.5l1 -3q0 -2 1 -3v152zM672 262l94 -219h-25q-9 0 -16 4q-2 2 -4 6.5t-6 8.5l-14 27h-100l-9 -27q0 -6 -4 -6q-2 -5 -4 -5l-3 -4q-2 0 -4.5 -1t-6.5 -1q0 -2 -2 -2h-27l96 219h35zM260 262h139v-39h-100v-49
h82v-41h-82v-51h100v-39h-139v219zM839 659q1 7 2 11t1 10q0 12 -3 21q0 7 -4.5 10.5t-6.5 9.5q-2 3 -4.5 6.5t-6.5 7.5l-7 6q-2 3 -9 9q-4 2 -8 4.5t-11 4.5q-5 0 -9.5 0.5t-10.5 0.5q-3 0 -8.5 -0.5t-12.5 -0.5q-6 -2 -10 -4.5t-8 -4.5q-4 -6 -7.5 -8.5t-7.5 -6.5
q-13 -7 -14 -14q-4 -6 -5 -9.5l-3 -10.5q-1 -5 -1.5 -10t-0.5 -11t2 -14.5t4 -15.5t6.5 -12.5t11.5 -12.5q10 -15 25 -15q10 -6 29 -6h20q15 5 19 8q11 4 16 13q3 4 6 7.5t5 8.5q2 4 6.5 9t4.5 9zM1966 659v42l-7 20q-5 7 -15 14q-1 4 -6 6.5t-10 8.5l-4 2t-5 2l-7 5
q-7 0 -12 0.5t-10 0.5q-6 0 -11 -0.5t-9 -0.5l-22 -9q-3 -6 -6 -8.5t-7 -6.5q-3 -4 -6.5 -7t-5.5 -7q-2 -6 -4.5 -9.5t-2.5 -10.5q-6 -9 -6 -21q0 -6 3 -14.5t6 -15.5q4 -15 16 -25q7 -15 26 -15q10 -6 29 -6h22q3 2 8 4t8 4l10 6t6 7q11 8 15 16zM74 262h158v-24
q0 -4 -1 -6q0 -3 -2 -5l-4 -4l-105 -143h1l2 2h108v-39h-164v13q0 11 2 13q0 2 5 7v4l2 4q2 2 4 3.5t2 6.5l94 129h-102v39zM1839 203q-4 -4 -7 -10.5t-7 -14.5q-2 -4 -4 -10t-2 -14q0 -7 2 -15l4 -12q2 -7 6 -14.5t8 -10.5q4 -4 9.5 -8.5t14.5 -7.5q12 -4 27 -4q5 0 10 1
t12 1q3 2 8 5t8 7q3 0 9 2h13q3 0 9 -2q2 -1 3.5 -3t3.5 -4l6 -7q-3 -4 -6 -7.5t-7 -7.5q-7 -5 -11.5 -8t-12.5 -6q-7 -4 -11.5 -5t-10.5 -3t-11 -2h-12q-12 0 -23.5 2t-21.5 4q-10 5 -18.5 12t-16.5 15q-16 13 -22 35q-4 10 -7 19.5t-3 23.5q0 10 1 14l4 14q1 7 3 14t6 11
q6 8 8.5 13t9.5 11q14 9 25 19q4 2 9.5 4t18.5 6q5 0 12 1t15 1h13q4 0 10 -2t10.5 -3t11.5 -3q8 -4 12.5 -6.5t11.5 -7.5l13 -17l-6 -8q-2 -1 -5 -4l-2 -4h-15q-7 0 -16 4l-16 10q-10 2 -12 2h-10q-17 0 -27 -7q-17 -1 -24 -13zM1690 151l7 -10.5t3 -7.5q6 -8 6 -20
q0 -15 -8 -29l-8 -12l-9 -10q-7 -6 -11.5 -9.5t-12.5 -5.5q-5 -2 -14 -3t-15 -1q-8 0 -14.5 1l-19.5 3q-5 2 -10 6.5t-11 13.5q-4 1 -6 5l-4 8q-7 2 -7 9l7 5q2 2 4 2h4l2 2h10q4 0 4 -2q7 0 9 -2q7 -5 10.5 -6.5t5.5 -3.5q2 0 6 -1t10 -1h5q2 0 6 2q5 1 8 2t7 3q6 6 7 9
q2 4 4 7.5t2 7.5q0 7 -6 10q-5 6 -7 6q-2 4 -7.5 5t-7.5 2q-6 0 -14 7q-5 0 -9 1t-9 7q-11 3 -14.5 6t-7.5 7q-12 4 -12 14q-6 10 -6 25q0 18 6 26l6 11l8 10q4 2 10 4t13 6q6 0 10.5 1t13.5 1q4 0 8.5 -1t11.5 -1l15 -6q3 -4 6.5 -6.5t7.5 -7.5q4 -2 7.5 -5.5t3.5 -7.5
l-7 -4q-4 -2 -7 -4.5t-3 -3.5h-18l-5 1l-7 5q-2 0 -4 1t-4 1h-17q-2 0 -3 -1t-5 -3q-2 -3 -6 -6q-1 -3 -1 -10q0 -5 1 -5q2 -2 3 -5.5t3 -7.5h6q1 0 5 -2q5 -1 9.5 -3t10.5 -4l9 -2q5 -4 9 -5t9 -5q5 -2 10 -5t8 -8zM1579 336q-12 7 -16 20q-7 17 -7 31v16l11 20l12 13
q6 7 12 9q3 7 9.5 8t9.5 3q4 0 8 1.5t10 1.5q4 0 10.5 -1.5t10.5 -1.5q5 -2 8.5 -3t7.5 -8q2 -2 5.5 -4.5t6.5 -4.5l13 -13l8 -20q0 -4 1 -9t1 -7q0 -6 -1 -14t-5 -17q-5 -13 -17 -20q-5 -4 -9.5 -7.5t-11.5 -10.5q-5 -1 -12 -1.5t-16 -0.5h-15q-4 0 -10 2q-18 7 -24 18z
M2284 336q-7 -4 -13.5 -7.5t-11.5 -10.5q-8 -2 -12 -2h-30q-5 0 -13 2q-7 4 -12.5 8.5t-10.5 9.5q-6 6 -13 20q-2 9 -4.5 17t-2.5 14q0 2 1 7t1 9q3 5 4 10t4 10q2 3 5 6t5 7q6 4 18 9q3 7 8 8t7 3q6 0 9 1.5t10 1.5q2 0 8.5 -1.5t11.5 -1.5q4 -2 7.5 -3t6.5 -8l17 -9
q2 -4 4 -7t5 -6q2 -5 4 -9.5t3 -10.5q2 -4 3 -9t1 -7q0 -6 -1 -14t-5 -17q0 -6 -5 -11zM2166 127q5 12 5 27q0 16 -5 24q-3 9 -8 15.5t-8 9.5q-10 10 -24 13q-4 5 -12 6t-17 1q-12 0 -25 -7q-8 -1 -13 -4t-11 -9q-4 -3 -7.5 -9.5t-8.5 -15.5q0 -4 -1 -10t-1 -14q0 -9 1 -15
t1 -12q4 -8 8 -14t8 -11q6 -4 11 -8.5t13 -7.5q7 -2 14 -3t11 -1q9 0 17 1t12 3q8 3 14 7.5t10 8.5q11 11 16 25zM1104 127q4 11 4 27q0 13 -4 24q-2 9 -6.5 15.5t-13.5 9.5q-2 6 -7.5 9t-11.5 4q-11 7 -30 7q-14 0 -25 -7q-11 -1 -23 -13q-6 -3 -9 -9.5t-5 -15.5
q-5 -5 -5 -10v-29q0 -5 5 -12q2 -7 5 -14.5t9 -10.5q6 -4 11 -8.5t12 -7.5q11 -4 25 -4q19 0 30 4q13 7 19 16q9 3 13.5 10.5t6.5 14.5zM774 262h139v-39h-100v-55h82v-39h-82v-86h-39v219zM570 223h-58v-180h-43v180h-62v39h163v-39zM1188 864q-19 7 -37 19t-35 26h322
q-18 -14 -36 -26t-36 -19q-24 -6 -45.5 -11t-44.5 -5q-25 0 -45.5 5t-42.5 11zM1389 262h165v-39h-65v-180h-39v180h-61v39zM1366 1315q18 -8 36 -20.5t36 -22.5h-325q38 30 75 43q37 18 88 18q48 0 90 -18zM559 604l-47 68q4 0 11 4q8 5 9 10q9 5 9 11v26q0 1 -2 5
q-3 10 -11 15q-5 9 -14 9q-2 5 -6.5 6t-9.5 1h-57v-155h24v64h23l40 -56q1 -4 8 -6q2 -2 3 -2h20zM1169 604l-67 155h-22l-65 -155h11q7 0 9 2q0 2 7 6l11 27h76l13 -27q1 -4 5 -6q2 -2 8 -2h14zM1930 721q3 -2 8 -7.5t6 -12.5q4 -7 4 -21q0 -12 -4 -23q-1 -5 -6 -9.5
t-8 -6.5q-5 -4 -9 -6.5t-8 -7.5q-9 -4 -23 -4q-6 0 -12 1t-10 3q-5 5 -10.5 7.5t-9.5 6.5q-3 2 -6 6.5t-3 9.5q-4 7 -5 12t-1 11q0 10 6 21q0 7 3 12.5t6 7.5q4 4 9.5 7t10.5 5q9 4 22 4q5 0 11.5 -1t11.5 -3zM801 721q7 -2 9.5 -7.5t4.5 -12.5q4 -7 4 -21q0 -11 -4 -23
q-2 -5 -4.5 -9.5t-9.5 -6.5q-1 -4 -6 -7l-11 -7q-9 -4 -22 -4q-11 0 -23 4q-4 5 -9 7.5t-9 6.5q-2 2 -5.5 6.5t-5.5 9.5q-4 12 -4 23q0 12 4 21q2 7 5.5 12.5t5.5 7.5q4 4 9 7t9 5q5 2 12.5 3t10.5 1q13 0 22 -4q8 -2 11.5 -5t5.5 -7zM2126 759h-22v-120q-1 2 -2 5t-3 4
l-75 104l-3 7h-24v-155h22v121l2 -2l87 -119h18v155zM2218 332h31l6 3q3 3 4 5q6 0 14 5q2 5 3 7t4 4q0 3 3 8t3 10v34q-3 6 -7 10.5t-6 7.5q-10 4 -18 12h-43q-6 -4 -9.5 -7t-9.5 -5q-5 -3 -7.5 -7.5t-4.5 -10.5q-1 -4 -1.5 -7t-0.5 -7v-20q0 -13 5 -18q2 -2 4.5 -4t4.5 -7
l7 -3q2 -2 4 -2q4 -4 7 -5t7 -3zM296 690q5 12 5 20q0 9 -5 18q0 2 -5 7l-6 6q-2 3 -5 7t-10 4q-3 5 -8.5 6t-9.5 1h-52v-155h16v59h36q4 0 9.5 0.5t8.5 2.5q10 4 15 10q4 2 7.5 6t3.5 8zM1579 408q-6 -14 -6 -21v-8q0 -4 3 -5q0 -10 5 -18q0 -2 2 -4t4 -7l5 -3q2 -2 11 -2
q2 -4 5.5 -5t5.5 -3h27q6 2 9.5 3t6.5 5l6 2l4 3q2 5 4.5 7t2.5 4q3 3 4 8t3 10q0 2 1 5.5t1 7.5q0 2 -1 8t-5 13q0 6 -4 10.5t-6 7.5q-3 1 -8 6l-10 6h-42q-4 -4 -10 -7l-10 -5l-5 -8q-3 -5 -3 -10zM997 759h-18v-120l-2 4q-2 6 -2 5l-74 104q-5 0 -6 7h-25v-155h21v124h2
l2 -1v-4l86 -119h16v155zM2115 381q-5 -1 -8.5 -2t-5.5 -2l45 -61h-12l-6 2q-4 0 -4 9l-39 50h-28v-61h-15v140h57q3 0 9 -2q2 -2 6.5 -5.5t5.5 -5.5q4 -2 5 -5.5t7 -7.5v-27q-4 -4 -5 -8t-3 -6zM1342 381q-3 -3 -11 -4l47 -61h-15q-3 0 -3 2q-6 0 -6 9l-39 50h-28v-61h-13
v140h56q2 0 6 -2q10 -1 18 -11q0 -2 3 -5.5t3 -7.5q2 -2 2 -6v-14q0 -1 -2 -7q0 -10 -4 -14l-5 -4q-3 -3 -9 -4zM412 759h-98v-155h98v21h-74v47h58v18h-58v45h74v24zM1721 759h-93v-155h93v21h-69v47h58v18h-58v45h69v24zM2460 454q6 2 5 2h13v-140h-12v114l-2 -2v-2
q-4 -8 -6.5 -17.5t-8.5 -14.5q-5 -7 -7 -12.5t-7 -14.5q-2 -9 -3 -15.5t-5 -9.5q-3 -8 -6.5 -12.5t-5.5 -13.5h-15q-10 14 -15 27t-10 28q-4 12 -12 26.5t-12 28.5v2h-4v-112h-14v140h14q4 0 6 -2l2 -2v-7l49 -105q0 -4 2 -4l1 2v4q0 2 8 6l41 97q2 7 3 7t1 2zM1480 759h-22
v-104q0 -4 -2 -8q-1 -7 -10 -12q0 -2 -4 -3.5t-6 -6.5l-9 -2h-9q-7 0 -13 2q-5 5 -8.5 6.5t-5.5 3.5l-11 12q0 3 -1 7.5t-1 11.5v93h-20v-93q0 -7 1 -11.5t1 -7.5q0 -8 6 -14q3 -8 10 -12q2 -4 4.5 -6.5t8.5 -4.5q2 -2 6.5 -3t7.5 -3q4 0 7 -1.5t8 -1.5t8.5 1.5t11.5 1.5
q2 2 5 3t7 3q3 2 6 4.5t6 6.5q3 2 5 5.5t7 6.5q0 4 3 7t3 7v112zM664 632q2 5 3 8t1 8q0 12 -5.5 20t-12.5 14q-2 0 -3.5 2t-5.5 4l-4 2h-4q-1 0 -1 4q-8 0 -9 1q-8 2 -9.5 3t-5.5 3q-6 5 -9 5q-3 4 -3 6v15q0 1 1.5 2.5t1.5 3.5q2 0 4.5 1t4.5 1q6 2 5 2h10q2 -2 4 -2
q7 0 8 -4q1 -3 4 -3h2q9 0 14 5l4 2q0 2 -2 4l-5 4q-2 1 -4.5 4t-6.5 5q-2 0 -4 2.5t-5 4.5q-5 0 -7 0.5t-4 0.5q-7 0 -12 -0.5t-8 -0.5q-5 -2 -7 -4.5t-6 -4.5q-2 -6 -5.5 -8.5t-8.5 -6.5q0 -4 -2 -7t-2 -9t4 -18l12 -11q2 -2 6 -5t7 -3q5 -2 8 -4t7 -2q1 -2 6 -2t7 -2
l6 -2q2 0 4 -2t2 -3t2 -6q2 -2 2 -7v-9q0 -2 -2 -4t-2 -4t-2 -3q-2 -5 -6 -6l-4 -1q-4 0 -8 -1t-5 -1q-4 0 -7 1t-6 1q-2 0 -3.5 1t-1.5 6l-4 1q-4 4 -11 4h-7l-4 -2l-5 -2q0 -3 3 -3q0 -3 2 -5q0 -4 4 -4v-6h5q7 -7 16 -9t19 -2h10q5 0 11 2q4 2 8.5 4t6.5 5q13 5 14 17z
M1741 316h-18v140h20q3 0 4 -4l74 -104q2 0 2 -5l2 -1v114h14v-140h-12l-82 114v4h-4v-118zM1596 632q9 7 9 16q0 12 -5.5 20t-12.5 14q-6 4 -6 6h-4l-4 2h-3q-4 0 -5 4h-4q-2 0 -5 1q-2 2 -4 3t-7 3l-7 5q-2 1 -3 2l-2 2l-1 2q0 1 -1 3t-1 4q0 4 4 8q0 2 4 6q2 0 3 1t4 1
q2 2 11 2l4 -1q2 -1 5 -1q3 -3 8 -4q6 -3 8 -3q6 0 8 5l5 2q0 2 -2.5 4t-4.5 4q0 1 -3 4l-5 5q-3 0 -5.5 2.5t-6.5 4.5h-6l-5 1q-6 0 -10 -0.5t-8 -0.5l-13 -9q-5 -6 -7 -8.5t-6 -6.5q-1 -4 -3 -7t-2 -9q0 -4 2 -7.5t3 -10.5l10 -11q5 -2 7.5 -5t6.5 -3q4 -2 7.5 -4t6.5 -2
q4 -2 7 -2t6 -2q6 0 10 -4l4 -3q2 -2 2 -6q2 -2 2 -6v-9q0 -3 -2 -5q0 -6 -6 -7q-6 -5 -7 -6t-3 -1q-7 0 -8 -1t-5 -1q-3 0 -6.5 1t-5.5 1q-2 1 -4 3l-4 4l-2 1q-5 4 -10 4h-7q-2 0 -4 -2l-6 -2q2 -1 2 -2t2 -1q0 -3 1 -4l3 -3v-2q6 -6 9 -6q7 -7 14.5 -9t17.5 -2h12
q3 0 11 2q3 2 6.5 4t7.5 5l5 8q3 3 4 9zM78 350q-6 6 -7 17l-3 10q-1 3 -1 10t4 16l2 10t5 10l4 6l5 7q2 2 6.5 4.5t6.5 4.5q6 7 11 8t9 3q3 0 8 1.5t10 1.5q7 0 14.5 -1.5t13.5 -5.5q8 -2 12.5 -6.5t8.5 -9.5q-2 -2 -4 -2v-4h-13q-4 2 -7 5t-7 3h-36l-22 -12
q-4 -3 -7.5 -7.5t-4.5 -10.5q-2 -7 -3 -13t-1 -8q0 -9 4 -13q0 -5 0.5 -10t0.5 -8l5 -4q4 -1 6 -7l7 -4q3 -1 8 -1q3 -4 5.5 -5t6.5 -3h33q2 2 7 3t9 5v29h-14v2q-2 0 -3 1.5t-3 3.5h-2q-1 1 -1 3v4h36v-51q-2 -5 -3.5 -6t-5.5 -8h-12q-8 -2 -12 -2h-34q-4 0 -9 3.5t-11 7.5
q-2 0 -6.5 2.5t-6.5 6.5q-3 4 -5 6.5t-4 7.5zM240 438v-44h56v-15h-56v-47h67v-16h-84v140h84v-18h-67zM1171 438v-44h60v-15h-60v-47h68v-16h-84v140h84v-18h-68zM2375 759h-20q-3 0 -8 -5q-6 -5 -6 -10l-37 -47h-2q0 -2 -2 -2v2l-39 47q-1 7 -4 10q-5 5 -11 5h-18l58 -77
v-2q0 -2 2 -2l2 -2v-72h21v70q2 0 2 2l2 4v2zM641 456v-85q0 -7 2 -10t5 -5q0 -6 3.5 -9.5t5.5 -4.5q0 -2 4.5 -4t6.5 -4q6 -2 8 -2h16q1 0 5 2l9 4q2 1 3.5 2t3.5 2q3 1 8 14q4 3 4 15v85h14v-85q0 -12 -4 -23t-12 -16q-2 -5 -6.5 -9.5t-8.5 -4.5q-8 -1 -13.5 -1.5
t-10.5 -0.5t-11 0.5t-14 1.5q-2 0 -6.5 4.5l-9.5 9.5l-10 16q-1 6 -3.5 11t-2.5 12v85h14zM2253 625h-69v134h-21v-155h90v21zM1271 625h-67v134h-20v-155h87v21zM1452 336q1 2 2 3.5t2 3.5q2 2 3 6.5t1 6.5q0 9 -2 11t-3 4.5t-3 4.5q-1 1 -8 3q-4 0 -6 2t-6 2q-8 0 -14 6
q-9 0 -13 7q-2 0 -3.5 3.5t-3.5 7.5v22q0 1 2 7q0 8 7 9l6 7q2 1 3.5 2t3.5 2q5 0 7.5 1.5t8.5 1.5l6 -2l4 -1q4 0 5 -1t5 -3q2 0 4 -3.5t2 -5.5q4 0 6 -3l1 -2l-2 -2q-6 -2 -9 -2h-6q-2 2 -2 4h-23q-9 0 -9 -2q-5 -7 -5 -8q-4 0 -4 -8q0 -5 4 -6q0 -5 3 -6q0 -1 3 -4l4 -1
q4 -4 7.5 -4t7.5 -3q3 0 4 -1l2 -1q4 0 8 -5h4q2 0 4 -2h2q5 -4 8.5 -7t5.5 -4q1 -5 1.5 -10.5t0.5 -9.5v-10q0 -5 -4 -6q-3 -4 -5.5 -7.5t-6.5 -5.5q-2 -2 -6 -5.5t-6 -3.5q-6 -2 -10 -2h-9q-11 0 -18.5 1t-12.5 10q-2 0 -3.5 2.5t-5.5 4.5v4l-2 2l4 2h7q1 0 3 -1t4 -1
q4 -4 6.5 -5t4.5 -3h22q8 0 12 4zM1069 316l-59 140h6q6 0 8 -2t3 -2t3 -7l43 -103v-2l2 -6v6l2 2q5 14 13 27.5t12 24.5q4 16 10 28t12 23q0 7 1.5 7t1.5 2q6 2 7 2h11q-8 -18 -15.5 -35t-16.5 -34q-4 -9 -7 -18.5t-6 -18.5l-16 -34h-15zM532 438v-49h60v-12h-60v-61h-16
v140h85v-18h-69zM1959 438v-49h54v-12h-54v-61h-16v140h81v-18h-65zM879 456v-124h63v-16h-80v140h17zM371 316v122h-46v18h105v-18h-47v-122h-12zM784 456v-124h64v-16h-80v140h16zM270 728q2 -1 3 -4t3 -5q4 -4 4 -9v-4q0 -5 -4 -9q-2 -2 -3 -4.5t-3 -2.5l-4 -4l-4 -4h-46
v53h36q4 0 10 -2q1 0 4 -3zM1325 389q4 0 6 3q4 4 9 4l2 5q0 2 5 6q0 1 1 4t1 7q0 2 -1 3.5t-1 4.5q-7 3 -7 8q-5 0 -9 4h-44v-49h38zM2101 392q4 4 7 4q7 7 7 11q2 4 2 11q0 4 -2 8q0 2 -7 8q-3 0 -7 4h-44v-49h36q3 0 8 3zM1525 456v-140h-18v140h18zM518 701l-4 -7
q-2 0 -3 -2t-3 -2q-2 -2 -10 -2h-33v47h33q4 0 10 -2q2 0 6 -5q1 -2 2 -3.5t2 -3.5q3 -2 3 -9q0 -5 -3 -11zM684 129l-27 69q0 2 -1 3l-1 2q0 4 -3 6v-6l-1 -2q-1 -1 -1 -3l-27 -69h61zM1093 727v-4l27 -64h-59l30 64v5zM1755 82q6 0 6 -6q2 -2 2 -5v-4q0 -9 -2 -11
q0 -5 -6 -9q-3 0 -6 -4h-17q-4 4 -11 4q0 2 -5 9q-2 2 -2 11v4q0 3 2 5l3 4l2 2q7 4 11 4q1 3 4 3h10q3 0 3 -3q3 0 6 -4z" />
    <glyph glyph-name="eight" unicode="8" 
d="M2478 1093v-587h-2404v587h910q0 30 5.5 58t20.5 53q12 29 26 52.5t37 41.5q39 42 91 62q28 12 55.5 17t56.5 5q33 0 61.5 -6.5t53.5 -15.5q27 -14 50.5 -29.5t45.5 -36.5q35 -38 60 -94q11 -27 15.5 -54t4.5 -53h911zM1030 1194q-20 -49 -20 -101q0 -58 20 -106
q10 -22 24.5 -43.5t29.5 -42.5q20 -17 41.5 -32t45.5 -25q46 -23 105 -23q31 0 56.5 4.5t47.5 16.5q48 19 83 57q22 20 35.5 41t26.5 43q20 54 20 110q0 20 -3.5 43.5t-11.5 47.5q-14 40 -43 72q-14 20 -29.5 33.5t-34.5 25.5l-76 36q-16 3 -33 6t-38 3q-29 0 -55.5 -5.5
t-51.5 -19.5q-50 -19 -85 -57q-17 -19 -30.5 -39.5t-23.5 -44.5zM1142 936l314 317q62 -80 62 -160q0 -24 -3.5 -45.5t-11.5 -41.5q-8 -19 -17.5 -37t-23.5 -33h-320zM1095 928q-14 17 -25 36.5t-19 39.5q-9 18 -12.5 40.5t-3.5 48.5q0 18 3.5 39t12.5 43q7 35 40 68h318z
M1135 207q2 -4 4.5 -11t5.5 -14q2 -10 2 -14v-32q0 -5 -2 -11l-6 -15l-4 -14q-6 -4 -10.5 -10t-8.5 -10q-6 -5 -11 -10.5t-10 -9.5q-9 -5 -15.5 -7t-12.5 -4q-10 -2 -15 -2h-17q-9 0 -19 2t-23 4q-12 6 -18.5 13t-17.5 14q-15 14 -21 35q-4 10 -6 19.5t-2 23.5v14q0 4 2 14
q4 17 12 25q4 8 7.5 13t7.5 11q9 5 13.5 9.5t10.5 9.5l12 4l17 6q5 0 11.5 1t13.5 1q10 0 17 -1t15 -1q6 -4 12.5 -6t15.5 -4q5 -5 10 -9.5t11 -9.5q4 -6 8.5 -11t10.5 -13zM2195 207q4 -4 6.5 -11t4.5 -14q4 -7 4 -14v-32q0 -7 -4 -11q-2 -7 -4.5 -15t-6.5 -14l-16 -20
l-12 -10l-14 -10q-5 -5 -12 -7t-13 -4q-8 -2 -14 -2h-17q-19 0 -43 6q-8 6 -16 13t-17 14q-8 6 -14 14t-8 21q-6 10 -7.5 19.5t-1.5 23.5q0 8 1 14t1 14l6 14t7 11q2 8 6 13t10 11q3 5 10.5 9.5t12.5 9.5q4 2 11 4t13 6q11 0 17 1t12 1q9 0 17 -1t14 -1q6 -4 13 -6t12 -4
l26 -19q2 -6 8 -11t8 -13zM2433 260l1 1q1 1 6 1h38v-219h-38v160l-5 -9v-8q0 -2 -2 -4q-6 -16 -13 -34.5t-16 -31.5q-6 -20 -12 -36.5t-14 -36.5h-37l-55 139q-6 3 -6 12q0 4 -1 4l-2 2v-157h-42v219h40q5 0 6.5 -1t4.5 -1q2 -2 3 -2t4 -2l7 -4q0 -2 2 -3.5t2 -3.5
q4 -18 11 -32.5t16 -34.5l12 -33q3 -8 6 -15l6 -14v-14q3 0 4 -4q0 4 1 4v14l11 13l44 116q0 1 2 3l2 4q0 1 3 3l3 1q2 2 4 2t4 2zM1329 262h38v-219h-36l-100 146l-4 5v2q-3 4 -3 5q-4 1 -4 4q0 4 -7 4v-166h-37v219h33q4 0 9.5 -1t5.5 -3q3 -2 5 -2t4 -2l22 -33
q6 -8 11 -16.5t10 -19.5q13 -13 24 -29t25 -29q0 -2 1 -4.5t1 -6.5l1 -3q0 -2 1 -3v152zM672 262l94 -219h-25q-9 0 -16 4q-2 2 -4 6.5t-6 8.5l-14 27h-100l-9 -27q0 -6 -4 -6q-2 -5 -4 -5l-3 -4q-2 0 -4.5 -1t-6.5 -1q0 -2 -2 -2h-27l96 219h35zM260 262h139v-39h-100v-49
h82v-41h-82v-51h100v-39h-139v219zM839 659q1 7 2 11t1 10q0 12 -3 21q0 7 -4.5 10.5t-6.5 9.5q-2 3 -4.5 6.5t-6.5 7.5l-7 6q-2 3 -9 9q-4 2 -8 4.5t-11 4.5q-5 0 -9.5 0.5t-10.5 0.5q-3 0 -8.5 -0.5t-12.5 -0.5q-6 -2 -10 -4.5t-8 -4.5q-4 -6 -7.5 -8.5t-7.5 -6.5
q-13 -7 -14 -14q-4 -6 -5 -9.5l-3 -10.5q-1 -5 -1.5 -10t-0.5 -11t2 -14.5t4 -15.5t6.5 -12.5t11.5 -12.5q10 -15 25 -15q10 -6 29 -6h20q15 5 19 8q11 4 16 13q3 4 6 7.5t5 8.5q2 4 6.5 9t4.5 9zM1966 659v42l-7 20q-5 7 -15 14q-1 4 -6 6.5t-10 8.5l-4 2t-5 2l-7 5
q-7 0 -12 0.5t-10 0.5q-6 0 -11 -0.5t-9 -0.5l-22 -9q-3 -6 -6 -8.5t-7 -6.5q-3 -4 -6.5 -7t-5.5 -7q-2 -6 -4.5 -9.5t-2.5 -10.5q-6 -9 -6 -21q0 -6 3 -14.5t6 -15.5q4 -15 16 -25q7 -15 26 -15q10 -6 29 -6h22q3 2 8 4t8 4l10 6t6 7q11 8 15 16zM74 262h158v-24
q0 -4 -1 -6q0 -3 -2 -5l-4 -4l-105 -143h1l2 2h108v-39h-164v13q0 11 2 13q0 2 5 7v4l2 4q2 2 4 3.5t2 6.5l94 129h-102v39zM1839 203q-4 -4 -7 -10.5t-7 -14.5q-2 -4 -4 -10t-2 -14q0 -7 2 -15l4 -12q2 -7 6 -14.5t8 -10.5q4 -4 9.5 -8.5t14.5 -7.5q12 -4 27 -4q5 0 10 1
t12 1q3 2 8 5t8 7q3 0 9 2h13q3 0 9 -2q2 -1 3.5 -3t3.5 -4l6 -7q-3 -4 -6 -7.5t-7 -7.5q-7 -5 -11.5 -8t-12.5 -6q-7 -4 -11.5 -5t-10.5 -3t-11 -2h-12q-12 0 -23.5 2t-21.5 4q-10 5 -18.5 12t-16.5 15q-16 13 -22 35q-4 10 -7 19.5t-3 23.5q0 10 1 14l4 14q1 7 3 14t6 11
q6 8 8.5 13t9.5 11q14 9 25 19q4 2 9.5 4t18.5 6q5 0 12 1t15 1h13q4 0 10 -2t10.5 -3t11.5 -3q8 -4 12.5 -6.5t11.5 -7.5l13 -17l-6 -8q-2 -1 -5 -4l-2 -4h-15q-7 0 -16 4l-16 10q-10 2 -12 2h-10q-17 0 -27 -7q-17 -1 -24 -13zM1690 151l7 -10.5t3 -7.5q6 -8 6 -20
q0 -15 -8 -29l-8 -12l-9 -10q-7 -6 -11.5 -9.5t-12.5 -5.5q-5 -2 -14 -3t-15 -1q-8 0 -14.5 1l-19.5 3q-5 2 -10 6.5t-11 13.5q-4 1 -6 5l-4 8q-7 2 -7 9l7 5q2 2 4 2h4l2 2h10q4 0 4 -2q7 0 9 -2q7 -5 10.5 -6.5t5.5 -3.5q2 0 6 -1t10 -1h5q2 0 6 2q5 1 8 2t7 3q6 6 7 9
q2 4 4 7.5t2 7.5q0 7 -6 10q-5 6 -7 6q-2 4 -7.5 5t-7.5 2q-6 0 -14 7q-5 0 -9 1t-9 7q-11 3 -14.5 6t-7.5 7q-12 4 -12 14q-6 10 -6 25q0 18 6 26l6 11l8 10q4 2 10 4t13 6q6 0 10.5 1t13.5 1q4 0 8.5 -1t11.5 -1l15 -6q3 -4 6.5 -6.5t7.5 -7.5q4 -2 7.5 -5.5t3.5 -7.5
l-7 -4q-4 -2 -7 -4.5t-3 -3.5h-18l-5 1l-7 5q-2 0 -4 1t-4 1h-17q-2 0 -3 -1t-5 -3q-2 -3 -6 -6q-1 -3 -1 -10q0 -5 1 -5q2 -2 3 -5.5t3 -7.5h6q1 0 5 -2q5 -1 9.5 -3t10.5 -4l9 -2q5 -4 9 -5t9 -5q5 -2 10 -5t8 -8zM1579 336q-12 7 -16 20q-7 17 -7 31v16l11 20l12 13
q6 7 12 9q3 7 9.5 8t9.5 3q4 0 8 1.5t10 1.5q4 0 10.5 -1.5t10.5 -1.5q5 -2 8.5 -3t7.5 -8q2 -2 5.5 -4.5t6.5 -4.5l13 -13l8 -20q0 -4 1 -9t1 -7q0 -6 -1 -14t-5 -17q-5 -13 -17 -20q-5 -4 -9.5 -7.5t-11.5 -10.5q-5 -1 -12 -1.5t-16 -0.5h-15q-4 0 -10 2q-18 7 -24 18z
M2284 336q-7 -4 -13.5 -7.5t-11.5 -10.5q-8 -2 -12 -2h-30q-5 0 -13 2q-7 4 -12.5 8.5t-10.5 9.5q-6 6 -13 20q-2 9 -4.5 17t-2.5 14q0 2 1 7t1 9q3 5 4 10t4 10q2 3 5 6t5 7q6 4 18 9q3 7 8 8t7 3q6 0 9 1.5t10 1.5q2 0 8.5 -1.5t11.5 -1.5q4 -2 7.5 -3t6.5 -8l17 -9
q2 -4 4 -7t5 -6q2 -5 4 -9.5t3 -10.5q2 -4 3 -9t1 -7q0 -6 -1 -14t-5 -17q0 -6 -5 -11zM2166 127q5 12 5 27q0 16 -5 24q-3 9 -8 15.5t-8 9.5q-10 10 -24 13q-4 5 -12 6t-17 1q-12 0 -25 -7q-8 -1 -13 -4t-11 -9q-4 -3 -7.5 -9.5t-8.5 -15.5q0 -4 -1 -10t-1 -14q0 -9 1 -15
t1 -12q4 -8 8 -14t8 -11q6 -4 11 -8.5t13 -7.5q7 -2 14 -3t11 -1q9 0 17 1t12 3q8 3 14 7.5t10 8.5q11 11 16 25zM1104 127q4 11 4 27q0 13 -4 24q-2 9 -6.5 15.5t-13.5 9.5q-2 6 -7.5 9t-11.5 4q-11 7 -30 7q-14 0 -25 -7q-11 -1 -23 -13q-6 -3 -9 -9.5t-5 -15.5
q-5 -5 -5 -10v-29q0 -5 5 -12q2 -7 5 -14.5t9 -10.5q6 -4 11 -8.5t12 -7.5q11 -4 25 -4q19 0 30 4q13 7 19 16q9 3 13.5 10.5t6.5 14.5zM774 262h139v-39h-100v-55h82v-39h-82v-86h-39v219zM570 223h-58v-180h-43v180h-62v39h163v-39zM1188 864q-19 7 -37 19t-35 26h322
q-18 -14 -36 -26t-36 -19q-24 -6 -45.5 -11t-44.5 -5q-25 0 -45.5 5t-42.5 11zM1389 262h165v-39h-65v-180h-39v180h-61v39zM1366 1315q18 -8 36 -20.5t36 -22.5h-325q38 30 75 43q37 18 88 18q48 0 90 -18zM559 604l-47 68q4 0 11 4q8 5 9 10q9 5 9 11v26q0 1 -2 5
q-3 10 -11 15q-5 9 -14 9q-2 5 -6.5 6t-9.5 1h-57v-155h24v64h23l40 -56q1 -4 8 -6q2 -2 3 -2h20zM1169 604l-67 155h-22l-65 -155h11q7 0 9 2q0 2 7 6l11 27h76l13 -27q1 -4 5 -6q2 -2 8 -2h14zM1930 721q3 -2 8 -7.5t6 -12.5q4 -7 4 -21q0 -12 -4 -23q-1 -5 -6 -9.5
t-8 -6.5q-5 -4 -9 -6.5t-8 -7.5q-9 -4 -23 -4q-6 0 -12 1t-10 3q-5 5 -10.5 7.5t-9.5 6.5q-3 2 -6 6.5t-3 9.5q-4 7 -5 12t-1 11q0 10 6 21q0 7 3 12.5t6 7.5q4 4 9.5 7t10.5 5q9 4 22 4q5 0 11.5 -1t11.5 -3zM801 721q7 -2 9.5 -7.5t4.5 -12.5q4 -7 4 -21q0 -11 -4 -23
q-2 -5 -4.5 -9.5t-9.5 -6.5q-1 -4 -6 -7l-11 -7q-9 -4 -22 -4q-11 0 -23 4q-4 5 -9 7.5t-9 6.5q-2 2 -5.5 6.5t-5.5 9.5q-4 12 -4 23q0 12 4 21q2 7 5.5 12.5t5.5 7.5q4 4 9 7t9 5q5 2 12.5 3t10.5 1q13 0 22 -4q8 -2 11.5 -5t5.5 -7zM2126 759h-22v-120q-1 2 -2 5t-3 4
l-75 104l-3 7h-24v-155h22v121l2 -2l87 -119h18v155zM2218 332h31l6 3q3 3 4 5q6 0 14 5q2 5 3 7t4 4q0 3 3 8t3 10v34q-3 6 -7 10.5t-6 7.5q-10 4 -18 12h-43q-6 -4 -9.5 -7t-9.5 -5q-5 -3 -7.5 -7.5t-4.5 -10.5q-1 -4 -1.5 -7t-0.5 -7v-20q0 -13 5 -18q2 -2 4.5 -4t4.5 -7
l7 -3q2 -2 4 -2q4 -4 7 -5t7 -3zM296 690q5 12 5 20q0 9 -5 18q0 2 -5 7l-6 6q-2 3 -5 7t-10 4q-3 5 -8.5 6t-9.5 1h-52v-155h16v59h36q4 0 9.5 0.5t8.5 2.5q10 4 15 10q4 2 7.5 6t3.5 8zM1579 408q-6 -14 -6 -21v-8q0 -4 3 -5q0 -10 5 -18q0 -2 2 -4t4 -7l5 -3q2 -2 11 -2
q2 -4 5.5 -5t5.5 -3h27q6 2 9.5 3t6.5 5l6 2l4 3q2 5 4.5 7t2.5 4q3 3 4 8t3 10q0 2 1 5.5t1 7.5q0 2 -1 8t-5 13q0 6 -4 10.5t-6 7.5q-3 1 -8 6l-10 6h-42q-4 -4 -10 -7l-10 -5l-5 -8q-3 -5 -3 -10zM997 759h-18v-120l-2 4q-2 6 -2 5l-74 104q-5 0 -6 7h-25v-155h21v124h2
l2 -1v-4l86 -119h16v155zM2115 381q-5 -1 -8.5 -2t-5.5 -2l45 -61h-12l-6 2q-4 0 -4 9l-39 50h-28v-61h-15v140h57q3 0 9 -2q2 -2 6.5 -5.5t5.5 -5.5q4 -2 5 -5.5t7 -7.5v-27q-4 -4 -5 -8t-3 -6zM1342 381q-3 -3 -11 -4l47 -61h-15q-3 0 -3 2q-6 0 -6 9l-39 50h-28v-61h-13
v140h56q2 0 6 -2q10 -1 18 -11q0 -2 3 -5.5t3 -7.5q2 -2 2 -6v-14q0 -1 -2 -7q0 -10 -4 -14l-5 -4q-3 -3 -9 -4zM412 759h-98v-155h98v21h-74v47h58v18h-58v45h74v24zM1721 759h-93v-155h93v21h-69v47h58v18h-58v45h69v24zM2460 454q6 2 5 2h13v-140h-12v114l-2 -2v-2
q-4 -8 -6.5 -17.5t-8.5 -14.5q-5 -7 -7 -12.5t-7 -14.5q-2 -9 -3 -15.5t-5 -9.5q-3 -8 -6.5 -12.5t-5.5 -13.5h-15q-10 14 -15 27t-10 28q-4 12 -12 26.5t-12 28.5v2h-4v-112h-14v140h14q4 0 6 -2l2 -2v-7l49 -105q0 -4 2 -4l1 2v4q0 2 8 6l41 97q2 7 3 7t1 2zM1480 759h-22
v-104q0 -4 -2 -8q-1 -7 -10 -12q0 -2 -4 -3.5t-6 -6.5l-9 -2h-9q-7 0 -13 2q-5 5 -8.5 6.5t-5.5 3.5l-11 12q0 3 -1 7.5t-1 11.5v93h-20v-93q0 -7 1 -11.5t1 -7.5q0 -8 6 -14q3 -8 10 -12q2 -4 4.5 -6.5t8.5 -4.5q2 -2 6.5 -3t7.5 -3q4 0 7 -1.5t8 -1.5t8.5 1.5t11.5 1.5
q2 2 5 3t7 3q3 2 6 4.5t6 6.5q3 2 5 5.5t7 6.5q0 4 3 7t3 7v112zM664 632q2 5 3 8t1 8q0 12 -5.5 20t-12.5 14q-2 0 -3.5 2t-5.5 4l-4 2h-4q-1 0 -1 4q-8 0 -9 1q-8 2 -9.5 3t-5.5 3q-6 5 -9 5q-3 4 -3 6v15q0 1 1.5 2.5t1.5 3.5q2 0 4.5 1t4.5 1q6 2 5 2h10q2 -2 4 -2
q7 0 8 -4q1 -3 4 -3h2q9 0 14 5l4 2q0 2 -2 4l-5 4q-2 1 -4.5 4t-6.5 5q-2 0 -4 2.5t-5 4.5q-5 0 -7 0.5t-4 0.5q-7 0 -12 -0.5t-8 -0.5q-5 -2 -7 -4.5t-6 -4.5q-2 -6 -5.5 -8.5t-8.5 -6.5q0 -4 -2 -7t-2 -9t4 -18l12 -11q2 -2 6 -5t7 -3q5 -2 8 -4t7 -2q1 -2 6 -2t7 -2
l6 -2q2 0 4 -2t2 -3t2 -6q2 -2 2 -7v-9q0 -2 -2 -4t-2 -4t-2 -3q-2 -5 -6 -6l-4 -1q-4 0 -8 -1t-5 -1q-4 0 -7 1t-6 1q-2 0 -3.5 1t-1.5 6l-4 1q-4 4 -11 4h-7l-4 -2l-5 -2q0 -3 3 -3q0 -3 2 -5q0 -4 4 -4v-6h5q7 -7 16 -9t19 -2h10q5 0 11 2q4 2 8.5 4t6.5 5q13 5 14 17z
M1741 316h-18v140h20q3 0 4 -4l74 -104q2 0 2 -5l2 -1v114h14v-140h-12l-82 114v4h-4v-118zM1596 632q9 7 9 16q0 12 -5.5 20t-12.5 14q-6 4 -6 6h-4l-4 2h-3q-4 0 -5 4h-4q-2 0 -5 1q-2 2 -4 3t-7 3l-7 5q-2 1 -3 2l-2 2l-1 2q0 1 -1 3t-1 4q0 4 4 8q0 2 4 6q2 0 3 1t4 1
q2 2 11 2l4 -1q2 -1 5 -1q3 -3 8 -4q6 -3 8 -3q6 0 8 5l5 2q0 2 -2.5 4t-4.5 4q0 1 -3 4l-5 5q-3 0 -5.5 2.5t-6.5 4.5h-6l-5 1q-6 0 -10 -0.5t-8 -0.5l-13 -9q-5 -6 -7 -8.5t-6 -6.5q-1 -4 -3 -7t-2 -9q0 -4 2 -7.5t3 -10.5l10 -11q5 -2 7.5 -5t6.5 -3q4 -2 7.5 -4t6.5 -2
q4 -2 7 -2t6 -2q6 0 10 -4l4 -3q2 -2 2 -6q2 -2 2 -6v-9q0 -3 -2 -5q0 -6 -6 -7q-6 -5 -7 -6t-3 -1q-7 0 -8 -1t-5 -1q-3 0 -6.5 1t-5.5 1q-2 1 -4 3l-4 4l-2 1q-5 4 -10 4h-7q-2 0 -4 -2l-6 -2q2 -1 2 -2t2 -1q0 -3 1 -4l3 -3v-2q6 -6 9 -6q7 -7 14.5 -9t17.5 -2h12
q3 0 11 2q3 2 6.5 4t7.5 5l5 8q3 3 4 9zM78 350q-6 6 -7 17l-3 10q-1 3 -1 10t4 16l2 10t5 10l4 6l5 7q2 2 6.5 4.5t6.5 4.5q6 7 11 8t9 3q3 0 8 1.5t10 1.5q7 0 14.5 -1.5t13.5 -5.5q8 -2 12.5 -6.5t8.5 -9.5q-2 -2 -4 -2v-4h-13q-4 2 -7 5t-7 3h-36l-22 -12
q-4 -3 -7.5 -7.5t-4.5 -10.5q-2 -7 -3 -13t-1 -8q0 -9 4 -13q0 -5 0.5 -10t0.5 -8l5 -4q4 -1 6 -7l7 -4q3 -1 8 -1q3 -4 5.5 -5t6.5 -3h33q2 2 7 3t9 5v29h-14v2q-2 0 -3 1.5t-3 3.5h-2q-1 1 -1 3v4h36v-51q-2 -5 -3.5 -6t-5.5 -8h-12q-8 -2 -12 -2h-34q-4 0 -9 3.5t-11 7.5
q-2 0 -6.5 2.5t-6.5 6.5q-3 4 -5 6.5t-4 7.5zM240 438v-44h56v-15h-56v-47h67v-16h-84v140h84v-18h-67zM1171 438v-44h60v-15h-60v-47h68v-16h-84v140h84v-18h-68zM2375 759h-20q-3 0 -8 -5q-6 -5 -6 -10l-37 -47h-2q0 -2 -2 -2v2l-39 47q-1 7 -4 10q-5 5 -11 5h-18l58 -77
v-2q0 -2 2 -2l2 -2v-72h21v70q2 0 2 2l2 4v2zM641 456v-85q0 -7 2 -10t5 -5q0 -6 3.5 -9.5t5.5 -4.5q0 -2 4.5 -4t6.5 -4q6 -2 8 -2h16q1 0 5 2l9 4q2 1 3.5 2t3.5 2q3 1 8 14q4 3 4 15v85h14v-85q0 -12 -4 -23t-12 -16q-2 -5 -6.5 -9.5t-8.5 -4.5q-8 -1 -13.5 -1.5
t-10.5 -0.5t-11 0.5t-14 1.5q-2 0 -6.5 4.5l-9.5 9.5l-10 16q-1 6 -3.5 11t-2.5 12v85h14zM2253 625h-69v134h-21v-155h90v21zM1271 625h-67v134h-20v-155h87v21zM1452 336q1 2 2 3.5t2 3.5q2 2 3 6.5t1 6.5q0 9 -2 11t-3 4.5t-3 4.5q-1 1 -8 3q-4 0 -6 2t-6 2q-8 0 -14 6
q-9 0 -13 7q-2 0 -3.5 3.5t-3.5 7.5v22q0 1 2 7q0 8 7 9l6 7q2 1 3.5 2t3.5 2q5 0 7.5 1.5t8.5 1.5l6 -2l4 -1q4 0 5 -1t5 -3q2 0 4 -3.5t2 -5.5q4 0 6 -3l1 -2l-2 -2q-6 -2 -9 -2h-6q-2 2 -2 4h-23q-9 0 -9 -2q-5 -7 -5 -8q-4 0 -4 -8q0 -5 4 -6q0 -5 3 -6q0 -1 3 -4l4 -1
q4 -4 7.5 -4t7.5 -3q3 0 4 -1l2 -1q4 0 8 -5h4q2 0 4 -2h2q5 -4 8.5 -7t5.5 -4q1 -5 1.5 -10.5t0.5 -9.5v-10q0 -5 -4 -6q-3 -4 -5.5 -7.5t-6.5 -5.5q-2 -2 -6 -5.5t-6 -3.5q-6 -2 -10 -2h-9q-11 0 -18.5 1t-12.5 10q-2 0 -3.5 2.5t-5.5 4.5v4l-2 2l4 2h7q1 0 3 -1t4 -1
q4 -4 6.5 -5t4.5 -3h22q8 0 12 4zM1069 316l-59 140h6q6 0 8 -2t3 -2t3 -7l43 -103v-2l2 -6v6l2 2q5 14 13 27.5t12 24.5q4 16 10 28t12 23q0 7 1.5 7t1.5 2q6 2 7 2h11q-8 -18 -15.5 -35t-16.5 -34q-4 -9 -7 -18.5t-6 -18.5l-16 -34h-15zM532 438v-49h60v-12h-60v-61h-16
v140h85v-18h-69zM1959 438v-49h54v-12h-54v-61h-16v140h81v-18h-65zM879 456v-124h63v-16h-80v140h17zM371 316v122h-46v18h105v-18h-47v-122h-12zM784 456v-124h64v-16h-80v140h16zM270 728q2 -1 3 -4t3 -5q4 -4 4 -9v-4q0 -5 -4 -9q-2 -2 -3 -4.5t-3 -2.5l-4 -4l-4 -4h-46
v53h36q4 0 10 -2q1 0 4 -3zM1325 389q4 0 6 3q4 4 9 4l2 5q0 2 5 6q0 1 1 4t1 7q0 2 -1 3.5t-1 4.5q-7 3 -7 8q-5 0 -9 4h-44v-49h38zM2101 392q4 4 7 4q7 7 7 11q2 4 2 11q0 4 -2 8q0 2 -7 8q-3 0 -7 4h-44v-49h36q3 0 8 3zM1525 456v-140h-18v140h18zM518 701l-4 -7
q-2 0 -3 -2t-3 -2q-2 -2 -10 -2h-33v47h33q4 0 10 -2q2 0 6 -5q1 -2 2 -3.5t2 -3.5q3 -2 3 -9q0 -5 -3 -11zM684 129l-27 69q0 2 -1 3l-1 2q0 4 -3 6v-6l-1 -2q-1 -1 -1 -3l-27 -69h61zM1093 727v-4l27 -64h-59l30 64v5zM1755 82q6 0 6 -6q2 -2 2 -5v-4q0 -9 -2 -11
q0 -5 -6 -9q-3 0 -6 -4h-17q-4 4 -11 4q0 2 -5 9q-2 2 -2 11v4q0 3 2 5l3 4l2 2q7 4 11 4q1 3 4 3h10q3 0 3 -3q3 0 6 -4z" />
    <glyph glyph-name="nine" unicode="9" 
d="M2478 1093v-587h-2404v587h910q0 30 5.5 58t20.5 53q12 29 26 52.5t37 41.5q39 42 91 62q28 12 55.5 17t56.5 5q33 0 61.5 -6.5t53.5 -15.5q27 -14 50.5 -29.5t45.5 -36.5q35 -38 60 -94q11 -27 15.5 -54t4.5 -53h911zM1030 1194q-20 -49 -20 -101q0 -58 20 -106
q10 -22 24.5 -43.5t29.5 -42.5q20 -17 41.5 -32t45.5 -25q46 -23 105 -23q31 0 56.5 4.5t47.5 16.5q48 19 83 57q22 20 35.5 41t26.5 43q20 54 20 110q0 20 -3.5 43.5t-11.5 47.5q-14 40 -43 72q-14 20 -29.5 33.5t-34.5 25.5l-76 36q-16 3 -33 6t-38 3q-29 0 -55.5 -5.5
t-51.5 -19.5q-50 -19 -85 -57q-17 -19 -30.5 -39.5t-23.5 -44.5zM1142 936l314 317q62 -80 62 -160q0 -24 -3.5 -45.5t-11.5 -41.5q-8 -19 -17.5 -37t-23.5 -33h-320zM1095 928q-14 17 -25 36.5t-19 39.5q-9 18 -12.5 40.5t-3.5 48.5q0 18 3.5 39t12.5 43q7 35 40 68h318z
M1135 207q2 -4 4.5 -11t5.5 -14q2 -10 2 -14v-32q0 -5 -2 -11l-6 -15l-4 -14q-6 -4 -10.5 -10t-8.5 -10q-6 -5 -11 -10.5t-10 -9.5q-9 -5 -15.5 -7t-12.5 -4q-10 -2 -15 -2h-17q-9 0 -19 2t-23 4q-12 6 -18.5 13t-17.5 14q-15 14 -21 35q-4 10 -6 19.5t-2 23.5v14q0 4 2 14
q4 17 12 25q4 8 7.5 13t7.5 11q9 5 13.5 9.5t10.5 9.5l12 4l17 6q5 0 11.5 1t13.5 1q10 0 17 -1t15 -1q6 -4 12.5 -6t15.5 -4q5 -5 10 -9.5t11 -9.5q4 -6 8.5 -11t10.5 -13zM2195 207q4 -4 6.5 -11t4.5 -14q4 -7 4 -14v-32q0 -7 -4 -11q-2 -7 -4.5 -15t-6.5 -14l-16 -20
l-12 -10l-14 -10q-5 -5 -12 -7t-13 -4q-8 -2 -14 -2h-17q-19 0 -43 6q-8 6 -16 13t-17 14q-8 6 -14 14t-8 21q-6 10 -7.5 19.5t-1.5 23.5q0 8 1 14t1 14l6 14t7 11q2 8 6 13t10 11q3 5 10.5 9.5t12.5 9.5q4 2 11 4t13 6q11 0 17 1t12 1q9 0 17 -1t14 -1q6 -4 13 -6t12 -4
l26 -19q2 -6 8 -11t8 -13zM2433 260l1 1q1 1 6 1h38v-219h-38v160l-5 -9v-8q0 -2 -2 -4q-6 -16 -13 -34.5t-16 -31.5q-6 -20 -12 -36.5t-14 -36.5h-37l-55 139q-6 3 -6 12q0 4 -1 4l-2 2v-157h-42v219h40q5 0 6.5 -1t4.5 -1q2 -2 3 -2t4 -2l7 -4q0 -2 2 -3.5t2 -3.5
q4 -18 11 -32.5t16 -34.5l12 -33q3 -8 6 -15l6 -14v-14q3 0 4 -4q0 4 1 4v14l11 13l44 116q0 1 2 3l2 4q0 1 3 3l3 1q2 2 4 2t4 2zM1329 262h38v-219h-36l-100 146l-4 5v2q-3 4 -3 5q-4 1 -4 4q0 4 -7 4v-166h-37v219h33q4 0 9.5 -1t5.5 -3q3 -2 5 -2t4 -2l22 -33
q6 -8 11 -16.5t10 -19.5q13 -13 24 -29t25 -29q0 -2 1 -4.5t1 -6.5l1 -3q0 -2 1 -3v152zM672 262l94 -219h-25q-9 0 -16 4q-2 2 -4 6.5t-6 8.5l-14 27h-100l-9 -27q0 -6 -4 -6q-2 -5 -4 -5l-3 -4q-2 0 -4.5 -1t-6.5 -1q0 -2 -2 -2h-27l96 219h35zM260 262h139v-39h-100v-49
h82v-41h-82v-51h100v-39h-139v219zM839 659q1 7 2 11t1 10q0 12 -3 21q0 7 -4.5 10.5t-6.5 9.5q-2 3 -4.5 6.5t-6.5 7.5l-7 6q-2 3 -9 9q-4 2 -8 4.5t-11 4.5q-5 0 -9.5 0.5t-10.5 0.5q-3 0 -8.5 -0.5t-12.5 -0.5q-6 -2 -10 -4.5t-8 -4.5q-4 -6 -7.5 -8.5t-7.5 -6.5
q-13 -7 -14 -14q-4 -6 -5 -9.5l-3 -10.5q-1 -5 -1.5 -10t-0.5 -11t2 -14.5t4 -15.5t6.5 -12.5t11.5 -12.5q10 -15 25 -15q10 -6 29 -6h20q15 5 19 8q11 4 16 13q3 4 6 7.5t5 8.5q2 4 6.5 9t4.5 9zM1966 659v42l-7 20q-5 7 -15 14q-1 4 -6 6.5t-10 8.5l-4 2t-5 2l-7 5
q-7 0 -12 0.5t-10 0.5q-6 0 -11 -0.5t-9 -0.5l-22 -9q-3 -6 -6 -8.5t-7 -6.5q-3 -4 -6.5 -7t-5.5 -7q-2 -6 -4.5 -9.5t-2.5 -10.5q-6 -9 -6 -21q0 -6 3 -14.5t6 -15.5q4 -15 16 -25q7 -15 26 -15q10 -6 29 -6h22q3 2 8 4t8 4l10 6t6 7q11 8 15 16zM74 262h158v-24
q0 -4 -1 -6q0 -3 -2 -5l-4 -4l-105 -143h1l2 2h108v-39h-164v13q0 11 2 13q0 2 5 7v4l2 4q2 2 4 3.5t2 6.5l94 129h-102v39zM1839 203q-4 -4 -7 -10.5t-7 -14.5q-2 -4 -4 -10t-2 -14q0 -7 2 -15l4 -12q2 -7 6 -14.5t8 -10.5q4 -4 9.5 -8.5t14.5 -7.5q12 -4 27 -4q5 0 10 1
t12 1q3 2 8 5t8 7q3 0 9 2h13q3 0 9 -2q2 -1 3.5 -3t3.5 -4l6 -7q-3 -4 -6 -7.5t-7 -7.5q-7 -5 -11.5 -8t-12.5 -6q-7 -4 -11.5 -5t-10.5 -3t-11 -2h-12q-12 0 -23.5 2t-21.5 4q-10 5 -18.5 12t-16.5 15q-16 13 -22 35q-4 10 -7 19.5t-3 23.5q0 10 1 14l4 14q1 7 3 14t6 11
q6 8 8.5 13t9.5 11q14 9 25 19q4 2 9.5 4t18.5 6q5 0 12 1t15 1h13q4 0 10 -2t10.5 -3t11.5 -3q8 -4 12.5 -6.5t11.5 -7.5l13 -17l-6 -8q-2 -1 -5 -4l-2 -4h-15q-7 0 -16 4l-16 10q-10 2 -12 2h-10q-17 0 -27 -7q-17 -1 -24 -13zM1690 151l7 -10.5t3 -7.5q6 -8 6 -20
q0 -15 -8 -29l-8 -12l-9 -10q-7 -6 -11.5 -9.5t-12.5 -5.5q-5 -2 -14 -3t-15 -1q-8 0 -14.5 1l-19.5 3q-5 2 -10 6.5t-11 13.5q-4 1 -6 5l-4 8q-7 2 -7 9l7 5q2 2 4 2h4l2 2h10q4 0 4 -2q7 0 9 -2q7 -5 10.5 -6.5t5.5 -3.5q2 0 6 -1t10 -1h5q2 0 6 2q5 1 8 2t7 3q6 6 7 9
q2 4 4 7.5t2 7.5q0 7 -6 10q-5 6 -7 6q-2 4 -7.5 5t-7.5 2q-6 0 -14 7q-5 0 -9 1t-9 7q-11 3 -14.5 6t-7.5 7q-12 4 -12 14q-6 10 -6 25q0 18 6 26l6 11l8 10q4 2 10 4t13 6q6 0 10.5 1t13.5 1q4 0 8.5 -1t11.5 -1l15 -6q3 -4 6.5 -6.5t7.5 -7.5q4 -2 7.5 -5.5t3.5 -7.5
l-7 -4q-4 -2 -7 -4.5t-3 -3.5h-18l-5 1l-7 5q-2 0 -4 1t-4 1h-17q-2 0 -3 -1t-5 -3q-2 -3 -6 -6q-1 -3 -1 -10q0 -5 1 -5q2 -2 3 -5.5t3 -7.5h6q1 0 5 -2q5 -1 9.5 -3t10.5 -4l9 -2q5 -4 9 -5t9 -5q5 -2 10 -5t8 -8zM1579 336q-12 7 -16 20q-7 17 -7 31v16l11 20l12 13
q6 7 12 9q3 7 9.5 8t9.5 3q4 0 8 1.5t10 1.5q4 0 10.5 -1.5t10.5 -1.5q5 -2 8.5 -3t7.5 -8q2 -2 5.5 -4.5t6.5 -4.5l13 -13l8 -20q0 -4 1 -9t1 -7q0 -6 -1 -14t-5 -17q-5 -13 -17 -20q-5 -4 -9.5 -7.5t-11.5 -10.5q-5 -1 -12 -1.5t-16 -0.5h-15q-4 0 -10 2q-18 7 -24 18z
M2284 336q-7 -4 -13.5 -7.5t-11.5 -10.5q-8 -2 -12 -2h-30q-5 0 -13 2q-7 4 -12.5 8.5t-10.5 9.5q-6 6 -13 20q-2 9 -4.5 17t-2.5 14q0 2 1 7t1 9q3 5 4 10t4 10q2 3 5 6t5 7q6 4 18 9q3 7 8 8t7 3q6 0 9 1.5t10 1.5q2 0 8.5 -1.5t11.5 -1.5q4 -2 7.5 -3t6.5 -8l17 -9
q2 -4 4 -7t5 -6q2 -5 4 -9.5t3 -10.5q2 -4 3 -9t1 -7q0 -6 -1 -14t-5 -17q0 -6 -5 -11zM2166 127q5 12 5 27q0 16 -5 24q-3 9 -8 15.5t-8 9.5q-10 10 -24 13q-4 5 -12 6t-17 1q-12 0 -25 -7q-8 -1 -13 -4t-11 -9q-4 -3 -7.5 -9.5t-8.5 -15.5q0 -4 -1 -10t-1 -14q0 -9 1 -15
t1 -12q4 -8 8 -14t8 -11q6 -4 11 -8.5t13 -7.5q7 -2 14 -3t11 -1q9 0 17 1t12 3q8 3 14 7.5t10 8.5q11 11 16 25zM1104 127q4 11 4 27q0 13 -4 24q-2 9 -6.5 15.5t-13.5 9.5q-2 6 -7.5 9t-11.5 4q-11 7 -30 7q-14 0 -25 -7q-11 -1 -23 -13q-6 -3 -9 -9.5t-5 -15.5
q-5 -5 -5 -10v-29q0 -5 5 -12q2 -7 5 -14.5t9 -10.5q6 -4 11 -8.5t12 -7.5q11 -4 25 -4q19 0 30 4q13 7 19 16q9 3 13.5 10.5t6.5 14.5zM774 262h139v-39h-100v-55h82v-39h-82v-86h-39v219zM570 223h-58v-180h-43v180h-62v39h163v-39zM1188 864q-19 7 -37 19t-35 26h322
q-18 -14 -36 -26t-36 -19q-24 -6 -45.5 -11t-44.5 -5q-25 0 -45.5 5t-42.5 11zM1389 262h165v-39h-65v-180h-39v180h-61v39zM1366 1315q18 -8 36 -20.5t36 -22.5h-325q38 30 75 43q37 18 88 18q48 0 90 -18zM559 604l-47 68q4 0 11 4q8 5 9 10q9 5 9 11v26q0 1 -2 5
q-3 10 -11 15q-5 9 -14 9q-2 5 -6.5 6t-9.5 1h-57v-155h24v64h23l40 -56q1 -4 8 -6q2 -2 3 -2h20zM1169 604l-67 155h-22l-65 -155h11q7 0 9 2q0 2 7 6l11 27h76l13 -27q1 -4 5 -6q2 -2 8 -2h14zM1930 721q3 -2 8 -7.5t6 -12.5q4 -7 4 -21q0 -12 -4 -23q-1 -5 -6 -9.5
t-8 -6.5q-5 -4 -9 -6.5t-8 -7.5q-9 -4 -23 -4q-6 0 -12 1t-10 3q-5 5 -10.5 7.5t-9.5 6.5q-3 2 -6 6.5t-3 9.5q-4 7 -5 12t-1 11q0 10 6 21q0 7 3 12.5t6 7.5q4 4 9.5 7t10.5 5q9 4 22 4q5 0 11.5 -1t11.5 -3zM801 721q7 -2 9.5 -7.5t4.5 -12.5q4 -7 4 -21q0 -11 -4 -23
q-2 -5 -4.5 -9.5t-9.5 -6.5q-1 -4 -6 -7l-11 -7q-9 -4 -22 -4q-11 0 -23 4q-4 5 -9 7.5t-9 6.5q-2 2 -5.5 6.5t-5.5 9.5q-4 12 -4 23q0 12 4 21q2 7 5.5 12.5t5.5 7.5q4 4 9 7t9 5q5 2 12.5 3t10.5 1q13 0 22 -4q8 -2 11.5 -5t5.5 -7zM2126 759h-22v-120q-1 2 -2 5t-3 4
l-75 104l-3 7h-24v-155h22v121l2 -2l87 -119h18v155zM2218 332h31l6 3q3 3 4 5q6 0 14 5q2 5 3 7t4 4q0 3 3 8t3 10v34q-3 6 -7 10.5t-6 7.5q-10 4 -18 12h-43q-6 -4 -9.5 -7t-9.5 -5q-5 -3 -7.5 -7.5t-4.5 -10.5q-1 -4 -1.5 -7t-0.5 -7v-20q0 -13 5 -18q2 -2 4.5 -4t4.5 -7
l7 -3q2 -2 4 -2q4 -4 7 -5t7 -3zM296 690q5 12 5 20q0 9 -5 18q0 2 -5 7l-6 6q-2 3 -5 7t-10 4q-3 5 -8.5 6t-9.5 1h-52v-155h16v59h36q4 0 9.5 0.5t8.5 2.5q10 4 15 10q4 2 7.5 6t3.5 8zM1579 408q-6 -14 -6 -21v-8q0 -4 3 -5q0 -10 5 -18q0 -2 2 -4t4 -7l5 -3q2 -2 11 -2
q2 -4 5.5 -5t5.5 -3h27q6 2 9.5 3t6.5 5l6 2l4 3q2 5 4.5 7t2.5 4q3 3 4 8t3 10q0 2 1 5.5t1 7.5q0 2 -1 8t-5 13q0 6 -4 10.5t-6 7.5q-3 1 -8 6l-10 6h-42q-4 -4 -10 -7l-10 -5l-5 -8q-3 -5 -3 -10zM997 759h-18v-120l-2 4q-2 6 -2 5l-74 104q-5 0 -6 7h-25v-155h21v124h2
l2 -1v-4l86 -119h16v155zM2115 381q-5 -1 -8.5 -2t-5.5 -2l45 -61h-12l-6 2q-4 0 -4 9l-39 50h-28v-61h-15v140h57q3 0 9 -2q2 -2 6.5 -5.5t5.5 -5.5q4 -2 5 -5.5t7 -7.5v-27q-4 -4 -5 -8t-3 -6zM1342 381q-3 -3 -11 -4l47 -61h-15q-3 0 -3 2q-6 0 -6 9l-39 50h-28v-61h-13
v140h56q2 0 6 -2q10 -1 18 -11q0 -2 3 -5.5t3 -7.5q2 -2 2 -6v-14q0 -1 -2 -7q0 -10 -4 -14l-5 -4q-3 -3 -9 -4zM412 759h-98v-155h98v21h-74v47h58v18h-58v45h74v24zM1721 759h-93v-155h93v21h-69v47h58v18h-58v45h69v24zM2460 454q6 2 5 2h13v-140h-12v114l-2 -2v-2
q-4 -8 -6.5 -17.5t-8.5 -14.5q-5 -7 -7 -12.5t-7 -14.5q-2 -9 -3 -15.5t-5 -9.5q-3 -8 -6.5 -12.5t-5.5 -13.5h-15q-10 14 -15 27t-10 28q-4 12 -12 26.5t-12 28.5v2h-4v-112h-14v140h14q4 0 6 -2l2 -2v-7l49 -105q0 -4 2 -4l1 2v4q0 2 8 6l41 97q2 7 3 7t1 2zM1480 759h-22
v-104q0 -4 -2 -8q-1 -7 -10 -12q0 -2 -4 -3.5t-6 -6.5l-9 -2h-9q-7 0 -13 2q-5 5 -8.5 6.5t-5.5 3.5l-11 12q0 3 -1 7.5t-1 11.5v93h-20v-93q0 -7 1 -11.5t1 -7.5q0 -8 6 -14q3 -8 10 -12q2 -4 4.5 -6.5t8.5 -4.5q2 -2 6.5 -3t7.5 -3q4 0 7 -1.5t8 -1.5t8.5 1.5t11.5 1.5
q2 2 5 3t7 3q3 2 6 4.5t6 6.5q3 2 5 5.5t7 6.5q0 4 3 7t3 7v112zM664 632q2 5 3 8t1 8q0 12 -5.5 20t-12.5 14q-2 0 -3.5 2t-5.5 4l-4 2h-4q-1 0 -1 4q-8 0 -9 1q-8 2 -9.5 3t-5.5 3q-6 5 -9 5q-3 4 -3 6v15q0 1 1.5 2.5t1.5 3.5q2 0 4.5 1t4.5 1q6 2 5 2h10q2 -2 4 -2
q7 0 8 -4q1 -3 4 -3h2q9 0 14 5l4 2q0 2 -2 4l-5 4q-2 1 -4.5 4t-6.5 5q-2 0 -4 2.5t-5 4.5q-5 0 -7 0.5t-4 0.5q-7 0 -12 -0.5t-8 -0.5q-5 -2 -7 -4.5t-6 -4.5q-2 -6 -5.5 -8.5t-8.5 -6.5q0 -4 -2 -7t-2 -9t4 -18l12 -11q2 -2 6 -5t7 -3q5 -2 8 -4t7 -2q1 -2 6 -2t7 -2
l6 -2q2 0 4 -2t2 -3t2 -6q2 -2 2 -7v-9q0 -2 -2 -4t-2 -4t-2 -3q-2 -5 -6 -6l-4 -1q-4 0 -8 -1t-5 -1q-4 0 -7 1t-6 1q-2 0 -3.5 1t-1.5 6l-4 1q-4 4 -11 4h-7l-4 -2l-5 -2q0 -3 3 -3q0 -3 2 -5q0 -4 4 -4v-6h5q7 -7 16 -9t19 -2h10q5 0 11 2q4 2 8.5 4t6.5 5q13 5 14 17z
M1741 316h-18v140h20q3 0 4 -4l74 -104q2 0 2 -5l2 -1v114h14v-140h-12l-82 114v4h-4v-118zM1596 632q9 7 9 16q0 12 -5.5 20t-12.5 14q-6 4 -6 6h-4l-4 2h-3q-4 0 -5 4h-4q-2 0 -5 1q-2 2 -4 3t-7 3l-7 5q-2 1 -3 2l-2 2l-1 2q0 1 -1 3t-1 4q0 4 4 8q0 2 4 6q2 0 3 1t4 1
q2 2 11 2l4 -1q2 -1 5 -1q3 -3 8 -4q6 -3 8 -3q6 0 8 5l5 2q0 2 -2.5 4t-4.5 4q0 1 -3 4l-5 5q-3 0 -5.5 2.5t-6.5 4.5h-6l-5 1q-6 0 -10 -0.5t-8 -0.5l-13 -9q-5 -6 -7 -8.5t-6 -6.5q-1 -4 -3 -7t-2 -9q0 -4 2 -7.5t3 -10.5l10 -11q5 -2 7.5 -5t6.5 -3q4 -2 7.5 -4t6.5 -2
q4 -2 7 -2t6 -2q6 0 10 -4l4 -3q2 -2 2 -6q2 -2 2 -6v-9q0 -3 -2 -5q0 -6 -6 -7q-6 -5 -7 -6t-3 -1q-7 0 -8 -1t-5 -1q-3 0 -6.5 1t-5.5 1q-2 1 -4 3l-4 4l-2 1q-5 4 -10 4h-7q-2 0 -4 -2l-6 -2q2 -1 2 -2t2 -1q0 -3 1 -4l3 -3v-2q6 -6 9 -6q7 -7 14.5 -9t17.5 -2h12
q3 0 11 2q3 2 6.5 4t7.5 5l5 8q3 3 4 9zM78 350q-6 6 -7 17l-3 10q-1 3 -1 10t4 16l2 10t5 10l4 6l5 7q2 2 6.5 4.5t6.5 4.5q6 7 11 8t9 3q3 0 8 1.5t10 1.5q7 0 14.5 -1.5t13.5 -5.5q8 -2 12.5 -6.5t8.5 -9.5q-2 -2 -4 -2v-4h-13q-4 2 -7 5t-7 3h-36l-22 -12
q-4 -3 -7.5 -7.5t-4.5 -10.5q-2 -7 -3 -13t-1 -8q0 -9 4 -13q0 -5 0.5 -10t0.5 -8l5 -4q4 -1 6 -7l7 -4q3 -1 8 -1q3 -4 5.5 -5t6.5 -3h33q2 2 7 3t9 5v29h-14v2q-2 0 -3 1.5t-3 3.5h-2q-1 1 -1 3v4h36v-51q-2 -5 -3.5 -6t-5.5 -8h-12q-8 -2 -12 -2h-34q-4 0 -9 3.5t-11 7.5
q-2 0 -6.5 2.5t-6.5 6.5q-3 4 -5 6.5t-4 7.5zM240 438v-44h56v-15h-56v-47h67v-16h-84v140h84v-18h-67zM1171 438v-44h60v-15h-60v-47h68v-16h-84v140h84v-18h-68zM2375 759h-20q-3 0 -8 -5q-6 -5 -6 -10l-37 -47h-2q0 -2 -2 -2v2l-39 47q-1 7 -4 10q-5 5 -11 5h-18l58 -77
v-2q0 -2 2 -2l2 -2v-72h21v70q2 0 2 2l2 4v2zM641 456v-85q0 -7 2 -10t5 -5q0 -6 3.5 -9.5t5.5 -4.5q0 -2 4.5 -4t6.5 -4q6 -2 8 -2h16q1 0 5 2l9 4q2 1 3.5 2t3.5 2q3 1 8 14q4 3 4 15v85h14v-85q0 -12 -4 -23t-12 -16q-2 -5 -6.5 -9.5t-8.5 -4.5q-8 -1 -13.5 -1.5
t-10.5 -0.5t-11 0.5t-14 1.5q-2 0 -6.5 4.5l-9.5 9.5l-10 16q-1 6 -3.5 11t-2.5 12v85h14zM2253 625h-69v134h-21v-155h90v21zM1271 625h-67v134h-20v-155h87v21zM1452 336q1 2 2 3.5t2 3.5q2 2 3 6.5t1 6.5q0 9 -2 11t-3 4.5t-3 4.5q-1 1 -8 3q-4 0 -6 2t-6 2q-8 0 -14 6
q-9 0 -13 7q-2 0 -3.5 3.5t-3.5 7.5v22q0 1 2 7q0 8 7 9l6 7q2 1 3.5 2t3.5 2q5 0 7.5 1.5t8.5 1.5l6 -2l4 -1q4 0 5 -1t5 -3q2 0 4 -3.5t2 -5.5q4 0 6 -3l1 -2l-2 -2q-6 -2 -9 -2h-6q-2 2 -2 4h-23q-9 0 -9 -2q-5 -7 -5 -8q-4 0 -4 -8q0 -5 4 -6q0 -5 3 -6q0 -1 3 -4l4 -1
q4 -4 7.5 -4t7.5 -3q3 0 4 -1l2 -1q4 0 8 -5h4q2 0 4 -2h2q5 -4 8.5 -7t5.5 -4q1 -5 1.5 -10.5t0.5 -9.5v-10q0 -5 -4 -6q-3 -4 -5.5 -7.5t-6.5 -5.5q-2 -2 -6 -5.5t-6 -3.5q-6 -2 -10 -2h-9q-11 0 -18.5 1t-12.5 10q-2 0 -3.5 2.5t-5.5 4.5v4l-2 2l4 2h7q1 0 3 -1t4 -1
q4 -4 6.5 -5t4.5 -3h22q8 0 12 4zM1069 316l-59 140h6q6 0 8 -2t3 -2t3 -7l43 -103v-2l2 -6v6l2 2q5 14 13 27.5t12 24.5q4 16 10 28t12 23q0 7 1.5 7t1.5 2q6 2 7 2h11q-8 -18 -15.5 -35t-16.5 -34q-4 -9 -7 -18.5t-6 -18.5l-16 -34h-15zM532 438v-49h60v-12h-60v-61h-16
v140h85v-18h-69zM1959 438v-49h54v-12h-54v-61h-16v140h81v-18h-65zM879 456v-124h63v-16h-80v140h17zM371 316v122h-46v18h105v-18h-47v-122h-12zM784 456v-124h64v-16h-80v140h16zM270 728q2 -1 3 -4t3 -5q4 -4 4 -9v-4q0 -5 -4 -9q-2 -2 -3 -4.5t-3 -2.5l-4 -4l-4 -4h-46
v53h36q4 0 10 -2q1 0 4 -3zM1325 389q4 0 6 3q4 4 9 4l2 5q0 2 5 6q0 1 1 4t1 7q0 2 -1 3.5t-1 4.5q-7 3 -7 8q-5 0 -9 4h-44v-49h38zM2101 392q4 4 7 4q7 7 7 11q2 4 2 11q0 4 -2 8q0 2 -7 8q-3 0 -7 4h-44v-49h36q3 0 8 3zM1525 456v-140h-18v140h18zM518 701l-4 -7
q-2 0 -3 -2t-3 -2q-2 -2 -10 -2h-33v47h33q4 0 10 -2q2 0 6 -5q1 -2 2 -3.5t2 -3.5q3 -2 3 -9q0 -5 -3 -11zM684 129l-27 69q0 2 -1 3l-1 2q0 4 -3 6v-6l-1 -2q-1 -1 -1 -3l-27 -69h61zM1093 727v-4l27 -64h-59l30 64v5zM1755 82q6 0 6 -6q2 -2 2 -5v-4q0 -9 -2 -11
q0 -5 -6 -9q-3 0 -6 -4h-17q-4 4 -11 4q0 2 -5 9q-2 2 -2 11v4q0 3 2 5l3 4l2 2q7 4 11 4q1 3 4 3h10q3 0 3 -3q3 0 6 -4z" />
    <glyph glyph-name="colon" unicode=":" horiz-adv-x="494" 
d="M158 61q0 35 25 60.5t64 25.5q38 0 63.5 -25.5t25.5 -60.5t-25.5 -60.5t-63.5 -25.5q-39 0 -64 25.5t-25 60.5zM158 948q0 35 25 60.5t64 25.5q38 0 63.5 -25.5t25.5 -60.5q0 -36 -25.5 -61t-63.5 -25q-39 0 -64 25t-25 61z" />
    <glyph glyph-name="semicolon" unicode=";" horiz-adv-x="494" 
d="M204 129h117l-139 -317h-89zM158 951q2 42 35 66q2 2 6 4l9 5l6 2q15 6 33 6q7 0 11 -1q3 0 11 -2q3 0 7 -2q2 0 3 -1q6 -2 9 -4l6 -3q4 -2 6 -4l8 -6l9 -10l4 -5q4 -6 5 -9q6 -12 9 -25q0 -4 0.5 -7.5t0.5 -6.5q0 -7 -1 -11q0 -4 -1 -7q0 -2 -1 -5t-2 -5q-2 -4 -3 -7.5
t-3 -7.5q-2 -3 -4 -5.5t-4 -5.5l-9 -10q-9 -8 -19.5 -13.5t-23.5 -7.5q-5 0 -7 -1h-15q-19 0 -32 6q-8 3 -15 8q-14 9 -24 23q-3 5 -5.5 10.5t-4.5 10.5q0 3 -2 7l-2 10v14z" />
    <glyph glyph-name="less" unicode="&#x3c;" horiz-adv-x="1241" 
d="M976 953v-113l-658 -305l658 -304v-113l-795 376v83z" />
    <glyph glyph-name="question" unicode="?" horiz-adv-x="909" 
d="M359 378v65q0 51 16 96t43 85t61.5 76t71.5 69q34 31 67 61t58.5 61t41 64.5t15.5 72.5q0 60 -20 108t-58 81.5t-93 51t-125 17.5q-68 0 -122.5 -17.5t-92.5 -51t-58.5 -83t-20.5 -112.5h-116q0 83 27.5 150.5t80.5 115.5t129.5 74t175.5 26q93 0 168.5 -26t129 -73
t82.5 -113t29 -147q0 -62 -21 -111t-55 -90.5t-75.5 -76.5t-82.5 -69q-32 -27 -59.5 -55t-48 -58t-32 -62t-11.5 -68v-61h-105zM331 68q0 35 25 61t63 26q19 0 35.5 -7t28.5 -19t18.5 -27.5t6.5 -33.5q0 -35 -25.5 -60.5t-63.5 -25.5t-63 25.5t-25 60.5z" />
    <glyph glyph-name="A" unicode="A" horiz-adv-x="1325" 
d="M1031 343h-738l-147 -343h-125l583 1360h116l583 -1360h-125zM337 447h649l-319 747l-5 17l-4 -17z" />
    <glyph glyph-name="B" unicode="B" horiz-adv-x="1307" 
d="M306 752h448q51 0 96.5 19.5t80 53.5t54.5 80.5t20 99.5q0 52 -20 98.5t-54 81t-79.5 54.5t-96.5 20h-449v-507zM808 104q55 0 105 21t88 58t60.5 87.5t22.5 109.5q0 58 -21.5 108t-58.5 87t-86.5 58.5t-106.5 21.5h-505v-551h502zM189 0v1360h571q78 0 145 -26.5
t116 -73t77 -110.5t28 -140q0 -48 -14 -93t-39 -83.5t-59.5 -68t-74.5 -47.5q57 -15 106 -47.5t85 -77.5t56.5 -100.5t20.5 -117.5q0 -85 -32 -154.5t-85.5 -118.5t-124 -75.5t-148.5 -26.5h-628z" />
    <glyph glyph-name="C" unicode="C" horiz-adv-x="1622" 
d="M1369 960q-37 74 -92.5 134t-125 102t-150 65t-167.5 23q-125 0 -235.5 -46.5t-192.5 -128t-129.5 -191.5t-47.5 -237q0 -126 47.5 -236t129.5 -191t192.5 -127.5t235.5 -46.5q86 0 166.5 22.5t150 64.5t125.5 102t93 134h124q-40 -99 -108.5 -178.5t-155.5 -135
t-188 -85t-207 -29.5q-100 0 -192 25t-172.5 70.5t-146.5 110t-112.5 143t-72.5 169t-26 188.5q0 99 26 190t72.5 169.5t112.5 143t146.5 110t172.5 70.5t192 25q106 0 207 -29.5t188 -84.5t155 -135t108 -180h-123z" />
    <glyph glyph-name="D" unicode="D" horiz-adv-x="1490" 
d="M666 105q142 0 252 40.5t185.5 115t114.5 180t39 236.5q0 125 -36.5 231t-110 183.5t-184.5 121t-260 43.5h-359v-1151h359zM189 1360h482q154 0 283.5 -45.5t223 -132.5t146 -213t52.5 -288q0 -152 -46.5 -277.5t-135.5 -215t-220 -139t-300 -49.5h-485v1360z" />
    <glyph glyph-name="E" unicode="E" horiz-adv-x="1162" 
d="M189 1360h881v-107h-763v-527h666v-105h-666v-516h772v-105h-890v1360z" />
    <glyph glyph-name="F" unicode="F" horiz-adv-x="1135" 
d="M189 1360h881v-107h-763v-552h666v-105h-666v-596h-118v1360z" />
    <glyph glyph-name="G" unicode="G" horiz-adv-x="1643" 
d="M822 688h683q2 -154 -46.5 -284.5t-137.5 -226t-213 -149t-274 -53.5q-100 0 -192 25t-172.5 70.5t-146.5 110t-112.5 143t-72.5 169t-26 188.5q0 99 26 190t72.5 169.5t112.5 143t146.5 110t172.5 70.5t192 25q152 0 285 -54.5t244 -169.5l-80 -77q-37 41 -84.5 77
t-104.5 62.5t-122.5 41.5t-137.5 15q-125 0 -235.5 -46.5t-192.5 -128t-129.5 -191.5t-47.5 -237q0 -126 47.5 -236t129.5 -191t192.5 -127.5t235.5 -46.5q121 0 219.5 38.5t169.5 107t113.5 163t51.5 207.5h-567z" />
    <glyph glyph-name="H" unicode="H" horiz-adv-x="1483" 
d="M189 1360h118v-634h867v634h119v-1360h-119v621h-867v-621h-118v1360z" />
    <glyph glyph-name="I" unicode="I" horiz-adv-x="496" 
d="M189 1360h118v-1360h-118v1360z" />
    <glyph glyph-name="J" unicode="J" horiz-adv-x="756" 
d="M45 105h125q90 0 150 22t96 64t51.5 102.5t15.5 136.5v930h117v-931q0 -105 -25 -185t-77.5 -134.5t-133.5 -82t-194 -27.5h-125v105z" />
    <glyph glyph-name="K" unicode="K" horiz-adv-x="1274" 
d="M307 430l775 930h140l-500 -598l535 -762h-143l-469 673l-338 -399v-274h-118v1360h118v-930z" />
    <glyph glyph-name="L" unicode="L" horiz-adv-x="1053" 
d="M189 1360h118v-1255h698v-105h-816v1360z" />
    <glyph glyph-name="M" unicode="M" horiz-adv-x="1692" 
d="M825 481l-518 683v-1164h-118v1360h100l557 -728l555 728h103v-1360h-118v1163l-521 -682h-40z" />
    <glyph glyph-name="O" unicode="O" horiz-adv-x="1669" 
d="M112 681q0 99 26 190t72.5 169.5t112.5 143t146.5 110t172.5 70.5t192 25t192 -25t172.5 -70.5t146.5 -110t113 -143t73 -169.5t26 -190q0 -98 -26 -188.5t-73 -169t-113 -143t-146.5 -110t-172.5 -70.5t-192 -25t-192 25t-172.5 70.5t-146.5 110t-112.5 143t-72.5 169
t-26 188.5zM229 681q0 -126 47.5 -236t129.5 -191t192.5 -127.5t235.5 -46.5t235.5 46.5t193 127.5t130 191t47.5 236q0 127 -47.5 237t-130 191.5t-193 128t-235.5 46.5t-235.5 -46.5t-192.5 -128t-129.5 -191.5t-47.5 -237z" />
    <glyph glyph-name="P" unicode="P" horiz-adv-x="1263" 
d="M307 496v-496h-118v1360h546q95 0 175 -32.5t137.5 -90.5t90 -137t32.5 -173t-32 -173t-89.5 -136.5t-137 -89.5t-173.5 -32h-431zM735 600q68 0 126 25t100.5 69t66.5 103.5t24 128.5t-24.5 129.5t-67 105t-101.5 70t-128 25.5h-424v-656h428z" />
    <glyph glyph-name="Q" unicode="Q" horiz-adv-x="1669" 
d="M112 681q0 99 26 190t72.5 169.5t112.5 143t146.5 110t172.5 70.5t192 25t192 -25t172.5 -70.5t146.5 -110t113 -143t73 -169.5t26 -190q0 -147 -55.5 -274t-152.5 -223l242 -244l-81 -82l-249 253q-91 -65 -198.5 -100.5t-228.5 -35.5q-100 0 -192 25t-172.5 70.5
t-146.5 110t-112.5 143t-72.5 169t-26 188.5zM229 681q0 -126 47.5 -236t129.5 -191t192.5 -127.5t235.5 -46.5t235.5 46.5t193 127.5t130 191t47.5 236q0 127 -47.5 237t-130 191.5t-193 128t-235.5 46.5t-235.5 -46.5t-192.5 -128t-129.5 -191.5t-47.5 -237z" />
    <glyph glyph-name="S" unicode="S" horiz-adv-x="1237" 
d="M207 383q0 -59 30.5 -113.5t82.5 -97t121.5 -68t147.5 -25.5q210 0 321 73.5t111 218.5q0 75 -32.5 125t-88 83t-130 52t-158.5 31q-51 6 -106.5 14.5t-109 23t-101.5 37t-84.5 57t-58 83.5t-21.5 117q0 75 25 146t83.5 126.5t153 89t234.5 33.5q105 0 189 -28t143 -77.5
t90.5 -117.5t31.5 -148h-118q0 61 -25 110t-70.5 83.5t-109 53t-139.5 18.5q-107 0 -178.5 -24.5t-114.5 -64.5t-60.5 -90t-17.5 -101q0 -65 30 -108t84.5 -71t130 -43t166.5 -25q52 -8 108 -19t109.5 -29.5t101 -46t83.5 -67.5t57 -95t21 -128q0 -93 -36.5 -166.5
t-106.5 -125t-172.5 -79t-235.5 -27.5q-114 0 -206.5 36t-157 94t-99.5 131.5t-35 148.5h117z" />
    <glyph glyph-name="T" unicode="T" horiz-adv-x="1147" 
d="M516 1256h-452v104h1023v-104h-453v-1256h-118v1256z" />
    <glyph glyph-name="U" unicode="U" horiz-adv-x="1409" 
d="M1135 1361h117v-833q0 -124 -41.5 -226t-115 -175t-173.5 -113t-218 -40q-116 0 -216 39.5t-174 112t-116.5 174.5t-42.5 228v833h117v-831q0 -92 28.5 -173.5t83.5 -143t135.5 -97.5t184.5 -36q100 0 180 35t136 96t85.5 142t29.5 173v835z" />
    <glyph glyph-name="V" unicode="V" horiz-adv-x="1333" 
d="M1181 1360h125l-585 -1360h-112l-585 1360h125l516 -1209z" />
    <glyph glyph-name="W" unicode="W" horiz-adv-x="2036" 
d="M1466 163h3l414 1197h125l-480 -1360h-119l-390 1166l-391 -1166h-118l-480 1360h124l415 -1197h3l385 1182h124z" />
    <glyph glyph-name="X" unicode="X" horiz-adv-x="1294" 
d="M645 783l435 577h141l-502 -656l530 -704h-141l-463 623l-462 -623h-141l530 704l-503 656h142z" />
    <glyph glyph-name="Y" unicode="Y" horiz-adv-x="1296" 
d="M1267 1360l-560 -836v-524h-118v524l-560 836h141l477 -728h2l477 728h141z" />
    <glyph glyph-name="Z" unicode="Z" horiz-adv-x="1285" 
d="M115 0l-1 95l896 1161h-852v104h1006l-1 -93l-896 -1163h942v-104h-1094z" />
    <glyph glyph-name="asciicircum" unicode="^" horiz-adv-x="906" 
d="M113 832l316 596h38l316 -596l-109 -13l-226 450l-227 -450z" />
    <glyph glyph-name="underscore" unicode="_" horiz-adv-x="955" 
d="M928 -234h-900v100h900v-100z" />
    <glyph glyph-name="grave" unicode="`" horiz-adv-x="481" 
d="M183 1417l168 -269h-90l-168 237z" />
    <glyph glyph-name="bar" unicode="|" horiz-adv-x="479" 
d="M183 1582h113v-1932h-113v1932z" />
    <glyph glyph-name="braceright" unicode="}" horiz-adv-x="659" 
d="M448 680q-37 21 -68 51t-53 69t-34.5 86.5t-12.5 103.5v330q0 60 -8.5 96t-32 55.5t-65 28.5t-107.5 15v97q110 -3 175 -26t98.5 -69.5t43 -119.5t9.5 -176v-213q-1 -107 43.5 -179t139.5 -101v-96q-90 -25 -137 -94t-46 -186v-213q0 -103 -9.5 -176t-43 -119.5
t-98.5 -69.5t-175 -27v98q53 5 89.5 11.5t60.5 18t36.5 31.5t18.5 52.5t7 79t1 112.5v220q0 104 43.5 184.5t124.5 125.5z" />
    <glyph glyph-name="asciitilde" unicode="~" horiz-adv-x="1248" 
d="M1099 620q-49 -49 -114 -78.5t-143 -29.5q-62 0 -117 18t-108.5 39t-106.5 39t-110 18q-125 0 -220 -95l-31 86q50 49 113.5 78.5t135.5 29.5q65 0 121.5 -18t109 -39t104 -39t107.5 -18q71 0 126 24.5t102 69.5z" />
    <glyph glyph-name="exclamdown" unicode="&#xa1;" horiz-adv-x="493" 
d="M203 628h87l14 -275v-708h-115v708zM159 936q0 35 25 60.5t64 25.5t64 -25t25 -61q0 -35 -25 -61t-64 -26t-64 26t-25 61z" />
    <glyph glyph-name="cent" unicode="&#xa2;" horiz-adv-x="1357" 
d="M228 507q0 -99 36 -178.5t96 -135.5t138 -86t162 -30q61 0 118 15.5t106 44.5t89 70t68 93h119q-28 -72 -77.5 -132.5t-114.5 -103.5t-144 -67t-166 -24q-115 0 -215 41.5t-173.5 114t-115.5 170t-42 208.5t42 208.5t115.5 169.5t173 113.5t215.5 41.5q87 0 165.5 -23.5
t143.5 -66.5t114.5 -103.5t78.5 -133.5h-119q-27 52 -67 93.5t-89 70.5t-106 44.5t-119 15.5q-85 0 -163 -30.5t-138 -86.5t-95.5 -135.5t-35.5 -177.5zM627.096 1205.83h112.441v-235.485h-112.441v235.485zM626.928 45.543h112.338v-231.478h-112.338v231.478z" />
    <glyph glyph-name="sterling" unicode="&#xa3;" horiz-adv-x="1184" 
d="M387 665q-7 64 -21.5 113t-29.5 93t-26 89.5t-11 101.5q0 79 27.5 139.5t77 102t119 63t153.5 21.5q30 0 69 -8t80 -26t80 -46.5t69.5 -70t49.5 -96t19 -123.5l-113 -1q0 70 -27.5 121t-67 84t-82 49t-72.5 16q-61 0 -110 -15t-83.5 -44.5t-53 -72.5t-18.5 -99
q0 -52 11 -96t25.5 -88t29 -93.5t20.5 -113.5h346v-100h-343q-3 -65 -26 -137t-56 -137t-73 -116t-77 -73h829v-102h-986v85q58 33 107 89.5t85.5 123.5t57.5 137.5t24 130.5h-142v99h139z" />
    <glyph glyph-name="currency" unicode="&#xa4;" horiz-adv-x="1291" 
d="M128 616q0 91 29 172.5t83 147.5l-119 119l83 83l119 -120q66 52 147.5 81t174.5 29q92 0 172.5 -28.5t146.5 -79.5l119 118l83 -83l-118 -116q54 -67 84.5 -149t30.5 -174t-30.5 -174.5t-84.5 -148.5l118 -117l-83 -83l-119 119q-66 -51 -147 -79t-173 -28t-173 28.5
t-147 79.5l-120 -120l-83 83l119 119q-53 66 -82.5 147.5t-29.5 173.5zM241 616q0 -87 32 -162t86.5 -130.5t128.5 -87t158 -31.5t158 31.5t129 87t87 130.5t32 162q0 86 -32 161.5t-87 131t-129 87.5t-158 32t-158 -32t-128.5 -87.5t-86.5 -130.5t-32 -162z" />
    <glyph glyph-name="yen" unicode="&#xa5;" horiz-adv-x="1214" 
d="M1066 577h-917v91h367l-458 692h131l418 -639l417 639h132l-459 -692h369v-91zM1066 368v-89h-403v-279l-112 1v278l-402 1v89z" />
    <glyph glyph-name="section" unicode="&#xa7;" horiz-adv-x="1221" 
d="M989 1296q-70 42 -156.5 72t-189.5 30q-60 0 -116.5 -15t-99.5 -46t-69 -78t-26 -111q0 -69 29 -117t77 -81.5t109 -57t125 -44.5q75 -25 147 -55t129 -74t91.5 -105t34.5 -147q0 -78 -26.5 -141.5t-72 -110.5t-106.5 -75.5t-130 -36.5q40 -19 77 -40.5t68.5 -48.5
t56.5 -60t40 -74q21 -58 18 -130q-5 -82 -39 -143.5t-91 -103t-132 -62t-160 -20.5q-116 0 -212 30t-188 81l55 96q69 -42 156 -72t190 -30q60 0 116 14.5t99.5 45t69.5 77.5t26 112q0 70 -29 117.5t-77 81.5t-109 57.5t-125 44.5q-75 25 -147 55t-129 74t-91.5 105
t-34.5 147q0 78 26 141.5t71.5 110t106 75.5t129.5 37q-39 18 -76 40t-68.5 48.5t-56.5 59.5t-40 74q-20 60 -17 130q4 82 38.5 143.5t91.5 103t131.5 62t160.5 20.5q115 0 211.5 -29.5t188.5 -81.5zM265 456q0 -69 35 -118t90 -82t123 -51.5t133 -25.5q61 0 117 19t99 55.5
t68.5 90t25.5 123.5t-35 119t-90.5 81.5t-123 50.5t-132.5 26q-61 0 -117 -19t-99 -55.5t-68.5 -90t-25.5 -123.5z" />
    <glyph glyph-name="dieresis" unicode="&#xa8;" horiz-adv-x="869" 
d="M216 1263q0 30 21 50.5t53 20.5q35 0 56 -20.5t21 -50.5q0 -29 -21 -49t-56 -20q-32 0 -53 20t-21 49zM532 1263q0 30 21.5 50.5t53.5 20.5q35 0 55.5 -20.5t20.5 -50.5q0 -29 -21 -49t-55 -20q-33 0 -54 20t-21 49z" />
    <glyph glyph-name="copyright" unicode="&#xa9;" horiz-adv-x="1667" 
d="M111 681q0 99 25.5 190.5t72 171t112 144.5t146 111.5t173 72t193.5 25.5q100 0 193 -25.5t173 -72t146 -111.5t113 -144.5t72.5 -171t25.5 -190.5q0 -98 -25.5 -189t-72.5 -170.5t-113 -145t-146 -112t-173 -72t-193 -25.5q-101 0 -193.5 25.5t-173 72t-146 112
t-112 145t-72 170.5t-25.5 189zM190 681q0 -90 23 -172.5t65 -153.5t100.5 -129t130 -99t153.5 -63.5t171 -22.5t171.5 22.5t154 63.5t130 99t100.5 129t65 153.5t23 172.5q0 91 -23 174t-65 154t-100.5 129.5t-130 99.5t-154 63.5t-171.5 22.5q-133 0 -250 -49.5
t-204.5 -136t-138 -204t-50.5 -253.5zM1109 283q-29 -21 -58.5 -37t-62.5 -27.5t-71 -17.5t-84 -6q-103 0 -192.5 38t-155.5 104t-104 154.5t-38 189.5t38 190t104 155t155.5 104.5t193.5 38.5q96 0 161 -29.5t113 -74.5l-55 -49q-2 3 -17.5 15.5t-43 27t-67.5 25.5t-89 11
q-85 0 -159.5 -32t-129.5 -88t-87 -131.5t-32 -162.5q0 -86 32 -161.5t87.5 -131.5t130 -88t159.5 -32q54 0 95 10.5t69 23.5q33 15 57 34z" />
    <glyph glyph-name="guillemotleft" unicode="&#xab;" horiz-adv-x="1136" 
d="M403 122l-274 359l274 358h125l-273 -358l273 -359h-125zM857 122l-273 359l273 358h126l-274 -358l273 -359h-125z" />
    <glyph glyph-name="logicalnot" unicode="&#xac;" horiz-adv-x="1169" 
d="M152 673h863v-412h-112v312h-751v100z" />
    <glyph glyph-name="registered" unicode="&#xae;" horiz-adv-x="1667" 
d="M111 681q0 99 25.5 190.5t72 171t112 144.5t146 111.5t173 72t193.5 25.5q100 0 193 -25.5t173 -72t146 -111.5t113 -144.5t72.5 -171t25.5 -190.5q0 -98 -25.5 -189t-72.5 -170.5t-113 -145t-146 -112t-173 -72t-193 -25.5q-101 0 -193.5 25.5t-173 72t-146 112
t-112 145t-72 170.5t-25.5 189zM190 681q0 -90 23 -172.5t65 -153.5t100.5 -129t130 -99t153.5 -63.5t171 -22.5t171.5 22.5t154 63.5t130 99t100.5 129t65 153.5t23 172.5q0 91 -23 174t-65 154t-100.5 129.5t-130 99.5t-154 63.5t-171.5 22.5q-133 0 -250 -49.5
t-204.5 -136t-138 -204t-50.5 -253.5zM616 587v-372h-84v946h364q60 0 112.5 -22t92 -61t62 -91.5t22.5 -113.5q0 -46 -13 -87.5t-37 -76t-57.5 -61t-73.5 -41.5l197 -392h-91l-185 373q-8 -1 -14.5 -1h-14.5h-280zM891 659q45 0 83 17t66.5 46t44.5 68t16 83q0 43 -16 82.5
t-44.5 68.5t-67 46.5t-83.5 17.5h-274v-429h275z" />
    <glyph glyph-name="macron" unicode="&#xaf;" horiz-adv-x="831" 
d="M162 1288h535v-79h-535v79z" />
    <glyph glyph-name="degree" unicode="&#xb0;" horiz-adv-x="779" 
d="M101 1131q0 59 22.5 111.5t62 91.5t92 62t112.5 23t112.5 -23t91.5 -62t61.5 -91.5t22.5 -111.5q0 -60 -22.5 -112.5t-61.5 -91.5t-91.5 -61.5t-112.5 -22.5t-112.5 22.5t-92 61.5t-62 91.5t-22.5 112.5zM192 1131q0 -41 15.5 -77t42.5 -62.5t63 -42t77 -15.5
q40 0 76 15.5t63 42t42.5 62.5t15.5 77t-15.5 77t-42.5 62.5t-63 42t-76 15.5q-41 0 -77 -15.5t-63 -42t-42.5 -62.5t-15.5 -77z" />
    <glyph glyph-name="plusminus" unicode="&#xb1;" horiz-adv-x="1196" 
d="M1061 128v-99l-919 1v98h919zM648 1175v-410h410v-99h-410v-414h-100v414l-409 1v98h409v410h100z" />
    <glyph glyph-name="mu" unicode="&#xb5;" horiz-adv-x="1322" 
d="M1154 453q0 -247 -115.5 -364t-344.5 -117q-64 0 -123 14.5t-109 40.5t-90.5 61.5t-68.5 77.5l1 -510h-115v1357h115v-570q0 -86 30 -154t81 -115.5t118.5 -73t142.5 -25.5q88 0 155.5 21.5t113 67t69 117.5t23.5 174v557h117v-559z" />
    <glyph glyph-name="paragraph" unicode="&#xb6;" horiz-adv-x="1218" 
d="M628 -187v761l-151 -1q-86 0 -161 31.5t-131 87t-88.5 131t-32.5 162.5t32.5 162t88.5 130.5t132 87t162 31.5h248v-1583h-99zM961 1396h98v-1h76v-99h-76v-1483h-98v1583z" />
    <glyph glyph-name="periodcentered" unicode="&#xb7;" horiz-adv-x="495" 
d="M159 479q0 35 24.5 60.5t63.5 25.5q38 0 63.5 -25.5t25.5 -60.5q0 -36 -25.5 -61t-63.5 -25t-63 25.5t-25 60.5z" />
    <glyph glyph-name="cedilla" unicode="&#xb8;" horiz-adv-x="424" 
d="M267 24l70 -1l-48 -124q30 -6 57.5 -18.5t48.5 -33t33.5 -49.5t12.5 -67q0 -44 -19 -83t-50 -67.5t-69.5 -45t-77.5 -16.5q-38 0 -71.5 5t-62.5 21l26 70q25 -11 49.5 -14.5t51.5 -3.5q22 0 46.5 10.5t44 28.5t32.5 42t13 51q0 33 -14.5 55t-37 34.5t-50 18t-52.5 5.5v1
l-1 -1z" />
    <glyph glyph-name="guillemotright" unicode="&#xbb;" horiz-adv-x="1130" 
d="M620 122l273 359l-273 358h125l274 -358l-274 -359h-125zM166 122l272 359l-273 358h125l274 -358l-274 -359h-124z" />
    <glyph glyph-name="questiondown" unicode="&#xbf;" horiz-adv-x="909" 
d="M545 638v-65q0 -51 -16 -96t-43 -85t-61.5 -76t-71.5 -69q-35 -31 -67.5 -61t-58 -61t-41 -64.5t-15.5 -72.5q0 -60 20 -108t58 -81.5t93 -51t125 -17.5q68 0 122 17.5t92 51t58.5 82.5t20.5 112h116q0 -83 -27.5 -150.5t-80 -115.5t-129.5 -74t-175 -26q-93 0 -168.5 26
t-129 73.5t-82.5 113.5t-29 147q0 61 21 110.5t54.5 90.5t75.5 76.5t83 69.5q32 27 59.5 54.5t48 57.5t32 62.5t11.5 68.5v61h105zM573 948q0 -36 -25 -61.5t-63 -25.5q-39 0 -64.5 25.5t-25.5 61.5q0 35 25.5 60t64.5 25q38 0 63 -25t25 -60z" />
    <glyph glyph-name="multiply" unicode="&#xd7;" horiz-adv-x="1406" 
d="M1064 805l-290 -291l290 -289l-70 -70l-289 290l-294 -294l-71 71l294 293l-289 290l69 70l290 -290l289 290z" />
    <glyph glyph-name="divide" unicode="&#xf7;" horiz-adv-x="1406" 
d="M626 913q0 31 21.5 53t55.5 22t55.5 -22t21.5 -53q0 -32 -21.5 -53.5t-55.5 -21.5q-32 0 -54.5 21.5t-22.5 53.5zM626 161q0 31 21.5 53.5t55.5 22.5t55.5 -22.5t21.5 -53.5t-21.5 -52.5t-55.5 -21.5t-55.5 21.5t-21.5 52.5zM1162 589v-99l-919 1v98h919z" />
    <glyph glyph-name="thorn" unicode="&#xfe;" horiz-adv-x="1344" 
d="M305 1408v-601q33 51 78.5 94t101.5 73.5t121.5 48t138.5 17.5q115 0 214 -41.5t171.5 -113.5t113.5 -169.5t41 -208.5q0 -112 -41.5 -209.5t-114 -170t-171.5 -113.5t-214 -41q-72 0 -137 17t-121.5 48t-102 73t-78.5 93v-546h-115v1750h115zM1168 507q0 91 -34 170
t-92.5 136.5t-137.5 90.5t-169 33t-169 -33t-138 -90.5t-93 -136.5t-34 -170q0 -93 34 -171.5t93 -136.5t138 -90.5t169 -32.5t169 32.5t137.5 90.5t92.5 137t34 171z" />
    <glyph glyph-name="OE" unicode="&#x152;" horiz-adv-x="2290" 
d="M1260 124q-86 -66 -193.5 -107.5t-232.5 -41.5q-100 0 -192 25t-172.5 70.5t-146.5 110t-112.5 143t-72.5 169t-26 188.5q0 99 26 190t72.5 169.5t112.5 143t146.5 110t172.5 70.5t192 25q125 0 233 -41.5t193 -107.5v120h881v-107h-764v-527h666v-105h-666v-516h773
v-105h-890v124zM834 80q122 0 231.5 44.5t194.5 129.5v856q-85 85 -194.5 129.5t-231.5 44.5q-125 0 -235 -46.5t-192 -128t-129.5 -191.5t-47.5 -237q0 -126 47.5 -236t129.5 -191t192 -127.5t235 -46.5z" />
    <glyph glyph-name="florin" unicode="&#x192;" horiz-adv-x="768" 
d="M297 857h-178l13 101h180l9 57q12 67 27 128t39.5 112t62.5 89t95 58q79 28 164 22q26 -2 46 -10t25 -11l-47 -89q-7 3 -16 6q-8 2 -19.5 4t-28.5 2q-93 0 -145.5 -55t-72.5 -164l-26 -149h258l-14 -101h-259l-168 -985q-13 -76 -41 -141t-73.5 -110t-109.5 -66t-149 -10
q-27 2 -46.5 10t-24.5 11l46 90q5 -2 12 -5q6 -2 15.5 -4t23.5 -2q45 -2 82.5 9.5t67.5 38.5t51 71t32 109z" />
    <glyph glyph-name="circumflex" unicode="&#x2c6;" horiz-adv-x="787" 
d="M690 1199l-46 -66l-240 173l-240 -173l-47 66l286 205z" />
    <glyph glyph-name="caron" unicode="&#x2c7;" horiz-adv-x="772" 
d="M403 1138l-286 205l47 66l240 -173l240 173l46 -66z" />
    <glyph glyph-name="breve" unicode="&#x2d8;" horiz-adv-x="817" 
d="M694 1369q-16 -101 -87.5 -158.5t-196.5 -57.5q-126 0 -197.5 57.5t-86.5 158.5l86 9q10 -31 24 -56t36.5 -43t56 -27.5t81.5 -9.5t81 9.5t55.5 27.5t36.5 43t24 56z" />
    <glyph glyph-name="dotaccent" unicode="&#x2d9;" horiz-adv-x="396" 
d="M190 1261q0 30 21.5 50.5t53.5 20.5q35 0 55.5 -20.5t20.5 -50.5q0 -29 -20.5 -49t-55.5 -20q-33 0 -54 20t-21 49z" />
    <glyph glyph-name="ring" unicode="&#x2da;" horiz-adv-x="561" 
d="M80 1296q0 38 14 71t38.5 57t58.5 38t74 14q42 0 76 -14t59 -38t38.5 -57t13.5 -71q0 -36 -14 -67.5t-38.5 -55.5t-59 -37.5t-75.5 -13.5q-40 0 -74 13.5t-58.5 37.5t-38.5 55.5t-14 67.5zM157 1296q0 -21 8.5 -40.5t23 -33.5t34 -22.5t42.5 -8.5q24 0 44.5 8.5
t35.5 22.5t23 33.5t8 40.5q0 48 -31 79.5t-80 31.5q-23 0 -42.5 -8.5t-34 -23.5t-23 -35t-8.5 -44z" />
    <glyph glyph-name="ogonek" unicode="&#x2db;" horiz-adv-x="467" 
d="M349 12q-33 -25 -69.5 -53.5t-67.5 -60t-51 -66t-20 -71.5q0 -31 22 -49t60 -18q26 0 52 6.5t57 19.5l16 -63q-34 -19 -74.5 -32.5t-85.5 -13.5q-40 0 -68.5 11t-46.5 29t-26.5 41t-8.5 48q0 50 23.5 93t59 80.5t78.5 70t82 62.5z" />
    <glyph glyph-name="tilde" unicode="&#x2dc;" horiz-adv-x="856" 
d="M763 1295q-47 -80 -99.5 -115.5t-112.5 -35.5q-42 0 -80.5 12t-73.5 26.5t-66.5 26.5t-60.5 12q-28 0 -53.5 -14t-50.5 -53l-57 40q37 63 91.5 92t126.5 12q30 -6 59 -18t57 -23t55 -19.5t54 -8.5q38 0 76.5 23t76.5 83z" />
    <glyph glyph-name="hungarumlaut" unicode="&#x2dd;" horiz-adv-x="831" 
d="M397 1411l-171 -304l-73 7l143 302zM702 1411l-172 -304l-73 7l144 302z" />
    <glyph glyph-name="endash" unicode="&#x2013;" horiz-adv-x="931" 
d="M152 532h626v-100h-626v100z" />
    <glyph glyph-name="emdash" unicode="&#x2014;" horiz-adv-x="1627" 
d="M152 532h1322v-100h-1322v100z" />
    <glyph glyph-name="quotesinglbase" unicode="&#x201a;" horiz-adv-x="519" 
d="M350 171l-174 -444l-83 5l149 455z" />
    <glyph glyph-name="quotedblleft" unicode="&#x201c;" horiz-adv-x="845" 
d="M126 1000l173 445l84 -6l-149 -454zM451 1000l173 445l85 -6l-149 -454z" />
    <glyph glyph-name="quotedblright" unicode="&#x201d;" horiz-adv-x="821" 
d="M689 1429l-174 -444l-84 5l149 455zM363 1429l-174 -444l-84 5l150 455z" />
    <glyph glyph-name="quotedblbase" unicode="&#x201e;" horiz-adv-x="818" 
d="M353 171l-173 -444l-85 5l150 455zM679 171l-174 -444l-83 5l148 455z" />
    <glyph glyph-name="dagger" unicode="&#x2020;" horiz-adv-x="744" 
d="M59 904h256v493h112v-493h257v-100h-257v-1083h-112v1083h-256v100z" />
    <glyph glyph-name="perthousand" unicode="&#x2030;" horiz-adv-x="2358" 
d="M1236 -13q-70 0 -130 24t-104 67t-69 100.5t-25 125.5t25 126.5t69 101t103.5 67t129.5 24.5t130 -24.5t104.5 -67t69.5 -101t25 -126.5t-25 -125.5t-69 -100.5t-104 -67t-130 -24zM1236 76q49 0 91 17t72.5 47.5t48 72t17.5 90.5q0 50 -17.5 93t-48.5 74t-73 48.5
t-91 17.5q-48 0 -89.5 -17.5t-72 -48t-48 -73t-17.5 -92.5t17.5 -91.5t48 -72.5t72 -48t90.5 -17zM390 0l831 1360h112l-832 -1360h-111zM432 740q-70 0 -129.5 24t-103.5 66.5t-69 100t-25 125.5t25 126.5t69 101t103.5 67t129.5 24.5t130 -24.5t104 -67t69 -101t25 -127.5
q0 -67 -25 -124.5t-69 -100t-104 -66.5t-130 -24zM433 827q49 0 90.5 17.5t72 48t48 72t17.5 90.5q0 50 -17.5 93t-48 74t-72.5 48.5t-91 17.5t-91 -17.5t-72.5 -48t-47.5 -73t-17 -92.5t17 -92t48 -72.5t72.5 -48t91.5 -17.5zM1943 -13q-70 0 -129.5 24t-103.5 67
t-69 100.5t-25 125.5t25 126.5t69 101t103.5 67t129.5 24.5t130 -24.5t104 -67t69.5 -101t25.5 -126.5t-25 -125.5t-69.5 -100.5t-104.5 -67t-130 -24zM1944 76q49 0 91 17t72.5 47.5t47.5 72t17 90.5q0 50 -17.5 93t-48 74t-72.5 48.5t-91 17.5t-90.5 -17.5t-72 -48
t-47.5 -73t-17 -92.5t17 -91.5t47.5 -72.5t72.5 -48t91 -17z" />
    <glyph glyph-name="guilsinglleft" unicode="&#x2039;" horiz-adv-x="683" 
d="M409 122l-273 359l273 358h126l-274 -358l273 -359h-125z" />
    <glyph glyph-name="guilsinglright" unicode="&#x203a;" horiz-adv-x="683" 
d="M157 122l272 359l-273 358h125l274 -358l-274 -359h-124z" />
    <glyph glyph-name="fraction" unicode="&#x2044;" horiz-adv-x="972" 
d="M30 -35l825 1349l85 -46l-825 -1349z" />
    <glyph glyph-name="franc" unicode="&#x20a3;" horiz-adv-x="1174" 
d="M189 261h-85v78h85v1021h881v-107h-763v-552h666v-105h-666v-257h367v-79l-367 1v-261h-118v261z" />
    <glyph glyph-name="trademark" unicode="&#x2122;" horiz-adv-x="1587" 
d="M806 1205v-548h-92v725l75 1l281 -343l281 343l75 -1v-725h-92v548l-259 -304h-11zM281 1293h-231v89h558v-89h-230v-636h-97v636z" />
    <glyph glyph-name="partialdiff" unicode="&#x2202;" horiz-adv-x="1145" 
d="M606 855q-61 0 -112 -23.5t-92.5 -62.5t-73 -90.5t-52.5 -107.5t-32 -113.5t-11 -108.5q0 -55 12.5 -105t39.5 -88.5t70 -61t104 -22.5q58 0 107.5 21.5t91.5 59.5t76.5 89.5t62.5 111.5t49.5 126t37.5 132q-14 32 -39.5 74t-61 79.5t-80.5 63.5t-97 26zM601 944
q89 0 166 -59t135 -161q13 68 16 136t-5 130.5t-29 116.5t-56 93.5t-86 62t-119 22.5q-58 0 -117 -14.5t-107 -32.5l-25 92q28 11 61.5 21t68 17.5t67 12t59.5 4.5q193 0 297.5 -128.5t104.5 -381.5q0 -108 -16.5 -216t-49 -207.5t-81.5 -185.5t-113.5 -149.5t-145.5 -99.5
t-178 -36q-155 0 -239.5 85.5t-90.5 250.5q-4 69 8 142t39 142.5t68 132t96 109t123 74t149 27.5z" />
    <glyph glyph-name="product" unicode="&#x220f;" horiz-adv-x="1414" 
d="M1102 -344v1601h-795v-1601h-118v1705h1030v-1705h-117z" />
    <glyph glyph-name="summation" unicode="&#x2211;" horiz-adv-x="1185" 
d="M60 -344v69l616 834l-601 733v68h1029v-103h-863l571 -697l-588 -801h883v-103h-1047z" />
    <glyph glyph-name="minus" unicode="&#x2212;" horiz-adv-x="1406" 
d="M1162 665v-99l-919 1v98h919z" />
    <glyph glyph-name="radical" unicode="&#x221a;" horiz-adv-x="1148" 
d="M52 821h238l232 -654l501 1410l113 -9l-557 -1576l-100 -21l-272 751l-155 -1v100z" />
    <glyph glyph-name="integral" unicode="&#x222b;" horiz-adv-x="581" 
d="M225 1016q0 67 5 128t21.5 111.5t48 88.5t85.5 58q73 28 159 22q27 -2 48 -10t26 -11l-34 -89q-8 3 -18 6q-9 2 -21 4t-29 2q-92 0 -135 -55t-43 -164l-3 -1152q0 -76 -17.5 -140.5t-56 -109.5t-99 -66.5t-146.5 -10.5q-26 2 -46.5 10t-25.5 11l35 89q5 -3 12 -5
q6 -2 15 -3.5t23 -1.5q45 -2 80.5 9t60 38t38 71t13.5 109z" />
    <glyph glyph-name="approxequal" unicode="&#x2248;" horiz-adv-x="1406" 
d="M1169 766q-49 -50 -113 -78.5t-140 -28.5q-61 0 -114.5 17.5t-105 38t-103.5 38t-110 17.5q-121 0 -216 -93l-30 85q49 50 112 78.5t132 28.5q64 0 119 -17t106.5 -38t102 -38t106.5 -17q69 0 122.5 23t100.5 68zM1169 309q-49 -49 -113 -78t-140 -29q-61 0 -114.5 17.5
t-105 38t-103.5 38t-110 17.5q-121 0 -216 -93l-30 85q49 50 112 78.5t132 28.5q64 0 119 -17t106.5 -38t102 -38t106.5 -17q69 0 122.5 23t100.5 68z" />
    <glyph glyph-name="notequal" unicode="&#x2260;" horiz-adv-x="1406" 
d="M760 815l124 300l93 -25l-113 -275h298v-98h-339l-152 -369h491v-98h-531l-122 -296l-94 25l112 271h-284v99l324 -1l152 369h-476v99z" />
    <glyph glyph-name="lessequal" unicode="&#x2264;" horiz-adv-x="1152" 
d="M987 49l-13 -101l-813 379l13 102zM978 1137l14 -107l-672 -311l672 -306l-14 -107l-827 385v55z" />
    <glyph glyph-name="lozenge" unicode="&#x25ca;" horiz-adv-x="1067" 
d="M533 1198l-307 -519l307 -519q5 7 38 64q14 24 36.5 62t55 92.5t76.5 128.5t102 172zM547 -12h-28l-416 691l416 693h28l416 -693z" />
    <glyph glyph-name="uni2219" unicode="&#x2219;" horiz-adv-x="495" 
d="M159 479q0 35 24.5 60.5t63.5 25.5q38 0 63.5 -25.5t25.5 -60.5q0 -36 -25.5 -61t-63.5 -25t-63 25.5t-25 60.5z" />
    <glyph glyph-name="commaaccent" unicode="&#xf6c3;" horiz-adv-x="547" 
d="M481 -115l-160 -401l-84 5l135 411z" />
    <glyph glyph-name="dollar" unicode="$" horiz-adv-x="1197" 
d="M194 383q0 -59 30.5 -113.5t82.5 -97t121.5 -68t147.5 -25.5q210 0 321 73.5t111 218.5q0 75 -32.5 125t-88 83t-130 52t-158.5 31q-51 6 -106.5 14.5t-109 23t-101.5 37t-84.5 57t-58 83.5t-21.5 117q0 75 25 146t83.5 126.5t153 89t234.5 33.5q105 0 189 -28t143 -77.5
t90.5 -117.5t31.5 -148h-118q0 61 -25 110t-70.5 83.5t-109 53t-139.5 18.5q-107 0 -178.5 -24.5t-114.5 -64.5t-60.5 -90t-17.5 -101q0 -65 30 -108t84.5 -71t130 -43t166.5 -25q52 -8 108 -19t109.5 -29.5t101 -46t83.5 -67.5t57 -95t21 -128q0 -93 -36.5 -166.5
t-106.5 -125t-172.5 -79t-235.5 -27.5q-114 0 -206.5 36t-157 94t-99.5 131.5t-35 148.5h117zM537.922 1573.83h112.951v-235.485h-112.951v235.485zM538 25.1836h113v-233.48h-113v233.48z" />
    <glyph glyph-name="AE" unicode="&#xc6;" horiz-adv-x="2029" 
d="M991 343h-596l-239 -343h-137l941 1360h912v-107h-763v-508h666v-104h-666v-536h772v-105h-890v343zM467 446h524v755l-14 -25z" />
    <glyph glyph-name="Euro" unicode="&#x20ac;" horiz-adv-x="1174" 
d="M211 929q30 100 90.5 185t143.5 146.5t184 96t212 34.5q57 0 108 -9t95 -24v-109q-48 22 -100 32.5t-103 10.5q-89 0 -169.5 -27t-148 -75t-118 -114.5t-79.5 -146.5h506v-80l-777 1v79h156zM832 506v-78l-503 1q30 -78 80.5 -143t117.5 -112.5t146.5 -73.5t167.5 -26
q51 0 102.5 9.5t100.5 31.5v-109q-45 -15 -96.5 -23t-106.5 -8q-110 0 -210 34t-182.5 94.5t-143 143.5t-92.5 182h-158v78z" />
    <glyph glyph-name=".DOT" horiz-adv-x="553" 
d="M255 483q0 22 16 37.5t42 15.5q27 0 43.5 -15.5t16.5 -37.5t-17 -37t-43 -15t-42 15t-16 37zM297 619q0 6 5 11t11 5q8 0 12.5 -5t4.5 -11q0 -7 -4.5 -12t-12.5 -5q-6 0 -11 5t-5 12z" />
    <glyph glyph-name="acute" unicode="&#xb4;" horiz-adv-x="481" 
d="M319 1385l-169 -237h-90l167 269z" />
    <glyph glyph-name="backslash" unicode="\" horiz-adv-x="830" 
d="M718 -204l-657 1635h119l657 -1635h-119z" />
    <glyph glyph-name="equal" unicode="=" horiz-adv-x="1406" 
d="M1162 815v-98h-919v99zM1162 348v-98h-919v99z" />
    <glyph glyph-name="greater" unicode="&#x3e;" horiz-adv-x="1243" 
d="M1062 557v-83l-795 -376v113l658 304l-658 305v113z" />
    <glyph glyph-name="at" unicode="@" 
d="M899 420l798 806q157 -204 157 -407q0 -117 -36.5 -219t-105.5 -180h-813zM779 400q-75 96 -113.5 198.5t-38.5 220.5q0 47 8.5 99t25.5 103t44 97.5t64 82.5h808zM833 351h818q-90 -78 -195.5 -116t-216.5 -38q-118 0 -219.5 41t-186.5 113zM1651 1274h-826
q95 72 199 113.5t215 41.5q61 0 115 -11.5t104 -32.5t97.5 -49.5t95.5 -61.5z" />
    <glyph glyph-name="brokenbar" unicode="&#xa6;" horiz-adv-x="479" 
d="M296 773h-113v809h113v-809zM183 460h113v-810h-113v810z" />
    <glyph glyph-name="onehalf" unicode="&#xbd;" 
d="M899 420l798 806q157 -204 157 -407q0 -117 -36.5 -219t-105.5 -180h-813zM779 400q-75 96 -113.5 198.5t-38.5 220.5q0 47 8.5 99t25.5 103t44 97.5t64 82.5h808zM833 351h818q-90 -78 -195.5 -116t-216.5 -38q-118 0 -219.5 41t-186.5 113zM1651 1274h-826
q95 72 199 113.5t215 41.5q61 0 115 -11.5t104 -32.5t97.5 -49.5t95.5 -61.5z" />
    <glyph glyph-name="lira" unicode="&#x20a4;" horiz-adv-x="1192" 
d="M848 531v-72l-358 1q-14 -57 -38 -113.5t-53.5 -104.5t-62 -85t-63.5 -55h829v-102h-986v85q47 26 88.5 67.5t74.5 92t57 106t38 109.5h-132v72zM371 759q-10 41 -22.5 77t-23.5 71t-18.5 72.5t-7.5 82.5q0 79 27.5 139.5t77 102t119 63t153.5 21.5q30 0 69 -8t80 -26
t80 -46.5t69.5 -70t49.5 -96t19 -123.5l-113 -1q0 70 -27.5 121t-67 84t-82 49t-72.5 16q-61 0 -110 -15t-83.5 -44.5t-53 -72.5t-18.5 -99q0 -42 7 -78t17.5 -70.5t23 -70.5t22.5 -78l362 -1v-71l-606 1v71h129z" />
    <glyph glyph-name="peseta" unicode="&#x20a7;" horiz-adv-x="1196" 
d="M185 340v213h-104v98h104v709h478q87 0 164 -30.5t134 -84.5t90 -128t33 -162t-33 -161.5t-89.5 -127t-133 -83.5t-163.5 -30h-361v-213l443 -1v-98l-443 1v-242h-119v242h-104v98h104zM304 651h359q62 0 117 24t96.5 65t66 96t24.5 118t-24.5 118t-66 96t-97 64.5
t-118.5 23.5h-357v-605z" />
    <glyph glyph-name="estimated" unicode="&#x212e;" horiz-adv-x="1288" 
d="M642 37q70 0 129.5 19t107 57.5t82.5 98t55 140.5q0 2 1 5.5t2 6.5l134 -1q-23 -93 -71 -166.5t-115 -124.5t-150.5 -78t-176.5 -27q-111 0 -207 41.5t-167 113.5t-111.5 169.5t-40.5 210.5t40.5 211t111 170.5t167 114t207.5 41.5q112 0 208.5 -41.5t167.5 -114
t111.5 -170.5t40.5 -211q0 -19 -3 -34h-907q0 -5 0.5 -15t0.5 -13q4 -90 35 -164t81.5 -127.5t118.5 -82.5t148 -29zM642 964q-79 0 -146 -26.5t-117.5 -75.5t-81.5 -119t-37 -158q0 -3 -0.5 -10t-1 -14.5t-0.5 -14.5v-10h768v8v13t-0.5 13.5t-0.5 9.5q-6 88 -36.5 159.5
t-81.5 121t-118.5 76.5t-146.5 27z" />
    <glyph glyph-name="Eng" unicode="&#x14a;" horiz-adv-x="1510" 
d="M1336 -342h-117v360l-912 1136v-1154h-118v1360h100l930 -1159v1159h117v-1702z" />
    <glyph glyph-name="quoteleft" unicode="&#x2018;" horiz-adv-x="513" 
d="M126 1000l173 445l84 -6l-149 -454z" />
    <glyph glyph-name="quoteright" unicode="&#x2019;" horiz-adv-x="517" 
d="M372 1429l-174 -444l-83 5l148 455z" />
    <glyph glyph-name="greaterequal" unicode="&#x2265;" horiz-adv-x="1150" 
d="M977 429l13 -102l-811 -379l-13 101zM1000 746v-55l-826 -385l-14 107l672 306l-672 311l14 107z" />
    <glyph glyph-name="daggerdbl" unicode="&#x2021;" horiz-adv-x="763" 
d="M68 904h255v493h114v-493h255v-100h-255v-494h255v-101h-255v-488h-114v488h-255v101h255v494h-255v100z" />
    <glyph glyph-name="figuredash" unicode="&#x2012;" horiz-adv-x="930" 
d="M152 532h626v-100h-626v100z" />
    <glyph glyph-name="uni00AD" unicode="&#xad;" horiz-adv-x="717" 
d="M152 532h411v-100h-411v100z" />
    <glyph glyph-name="Delta" unicode="&#x394;" horiz-adv-x="1325" 
d="M54 0v85l548 1275h116l549 -1275v-85h-1213zM187 101h945l-464 1081l-8 25l-8 -25z" />
    <glyph glyph-name="ellipsis" unicode="&#x2026;" horiz-adv-x="1369" 
d="M159 68q0 35 24.5 61t63.5 26q19 0 35.5 -7t28.5 -19t18.5 -27.5t6.5 -33.5q0 -35 -25.5 -60.5t-63.5 -25.5t-63 25.5t-25 60.5zM596 68q0 18 6.5 33.5t18.5 27.5t28 19t35 7t35.5 -7t28.5 -19t19 -27.5t7 -33.5q0 -35 -25.5 -60.5t-64.5 -25.5q-19 0 -35 7t-28 18.5
t-18.5 27t-6.5 33.5zM1034 68q0 35 25 61t64 26q19 0 35.5 -7t28.5 -19t18.5 -27.5t6.5 -33.5q0 -35 -25.5 -60.5t-64.5 -25.5q-38 0 -63 25.5t-25 60.5z" />
    <glyph glyph-name="bullet" unicode="&#x2022;" horiz-adv-x="653" 
d="M-456.727 -1435.84q0 -65.458 -46.1836 -113.149q-46.1846 -47.6914 -119.702 -47.6914q-71.6328 0 -119.702 47.6914t-48.0693 113.149q0 67.3291 48.0693 114.085t119.702 46.7559t118.759 -47.6914q47.127 -47.6914 47.127 -113.149z" />
    <glyph glyph-name="zero.slash" 
d="M2478 1093v-587h-2404v587h910q0 30 5.5 58t20.5 53q12 29 26 52.5t37 41.5q39 42 91 62q28 12 55.5 17t56.5 5q33 0 61.5 -6.5t53.5 -15.5q27 -14 50.5 -29.5t45.5 -36.5q35 -38 60 -94q11 -27 15.5 -54t4.5 -53h911zM1030 1194q-20 -49 -20 -101q0 -58 20 -106
q10 -22 24.5 -43.5t29.5 -42.5q20 -17 41.5 -32t45.5 -25q46 -23 105 -23q31 0 56.5 4.5t47.5 16.5q48 19 83 57q22 20 35.5 41t26.5 43q20 54 20 110q0 20 -3.5 43.5t-11.5 47.5q-14 40 -43 72q-14 20 -29.5 33.5t-34.5 25.5l-76 36q-16 3 -33 6t-38 3q-29 0 -55.5 -5.5
t-51.5 -19.5q-50 -19 -85 -57q-17 -19 -30.5 -39.5t-23.5 -44.5zM1142 936l314 317q62 -80 62 -160q0 -24 -3.5 -45.5t-11.5 -41.5q-8 -19 -17.5 -37t-23.5 -33h-320zM1095 928q-14 17 -25 36.5t-19 39.5q-9 18 -12.5 40.5t-3.5 48.5q0 18 3.5 39t12.5 43q7 35 40 68h318z
M1135 207q2 -4 4.5 -11t5.5 -14q2 -10 2 -14v-32q0 -5 -2 -11l-6 -15l-4 -14q-6 -4 -10.5 -10t-8.5 -10q-6 -5 -11 -10.5t-10 -9.5q-9 -5 -15.5 -7t-12.5 -4q-10 -2 -15 -2h-17q-9 0 -19 2t-23 4q-12 6 -18.5 13t-17.5 14q-15 14 -21 35q-4 10 -6 19.5t-2 23.5v14q0 4 2 14
q4 17 12 25q4 8 7.5 13t7.5 11q9 5 13.5 9.5t10.5 9.5l12 4l17 6q5 0 11.5 1t13.5 1q10 0 17 -1t15 -1q6 -4 12.5 -6t15.5 -4q5 -5 10 -9.5t11 -9.5q4 -6 8.5 -11t10.5 -13zM2195 207q4 -4 6.5 -11t4.5 -14q4 -7 4 -14v-32q0 -7 -4 -11q-2 -7 -4.5 -15t-6.5 -14l-16 -20
l-12 -10l-14 -10q-5 -5 -12 -7t-13 -4q-8 -2 -14 -2h-17q-19 0 -43 6q-8 6 -16 13t-17 14q-8 6 -14 14t-8 21q-6 10 -7.5 19.5t-1.5 23.5q0 8 1 14t1 14l6 14t7 11q2 8 6 13t10 11q3 5 10.5 9.5t12.5 9.5q4 2 11 4t13 6q11 0 17 1t12 1q9 0 17 -1t14 -1q6 -4 13 -6t12 -4
l26 -19q2 -6 8 -11t8 -13zM2433 260l1 1q1 1 6 1h38v-219h-38v160l-5 -9v-8q0 -2 -2 -4q-6 -16 -13 -34.5t-16 -31.5q-6 -20 -12 -36.5t-14 -36.5h-37l-55 139q-6 3 -6 12q0 4 -1 4l-2 2v-157h-42v219h40q5 0 6.5 -1t4.5 -1q2 -2 3 -2t4 -2l7 -4q0 -2 2 -3.5t2 -3.5
q4 -18 11 -32.5t16 -34.5l12 -33q3 -8 6 -15l6 -14v-14q3 0 4 -4q0 4 1 4v14l11 13l44 116q0 1 2 3l2 4q0 1 3 3l3 1q2 2 4 2t4 2zM1329 262h38v-219h-36l-100 146l-4 5v2q-3 4 -3 5q-4 1 -4 4q0 4 -7 4v-166h-37v219h33q4 0 9.5 -1t5.5 -3q3 -2 5 -2t4 -2l22 -33
q6 -8 11 -16.5t10 -19.5q13 -13 24 -29t25 -29q0 -2 1 -4.5t1 -6.5l1 -3q0 -2 1 -3v152zM672 262l94 -219h-25q-9 0 -16 4q-2 2 -4 6.5t-6 8.5l-14 27h-100l-9 -27q0 -6 -4 -6q-2 -5 -4 -5l-3 -4q-2 0 -4.5 -1t-6.5 -1q0 -2 -2 -2h-27l96 219h35zM260 262h139v-39h-100v-49
h82v-41h-82v-51h100v-39h-139v219zM839 659q1 7 2 11t1 10q0 12 -3 21q0 7 -4.5 10.5t-6.5 9.5q-2 3 -4.5 6.5t-6.5 7.5l-7 6q-2 3 -9 9q-4 2 -8 4.5t-11 4.5q-5 0 -9.5 0.5t-10.5 0.5q-3 0 -8.5 -0.5t-12.5 -0.5q-6 -2 -10 -4.5t-8 -4.5q-4 -6 -7.5 -8.5t-7.5 -6.5
q-13 -7 -14 -14q-4 -6 -5 -9.5l-3 -10.5q-1 -5 -1.5 -10t-0.5 -11t2 -14.5t4 -15.5t6.5 -12.5t11.5 -12.5q10 -15 25 -15q10 -6 29 -6h20q15 5 19 8q11 4 16 13q3 4 6 7.5t5 8.5q2 4 6.5 9t4.5 9zM1966 659v42l-7 20q-5 7 -15 14q-1 4 -6 6.5t-10 8.5l-4 2t-5 2l-7 5
q-7 0 -12 0.5t-10 0.5q-6 0 -11 -0.5t-9 -0.5l-22 -9q-3 -6 -6 -8.5t-7 -6.5q-3 -4 -6.5 -7t-5.5 -7q-2 -6 -4.5 -9.5t-2.5 -10.5q-6 -9 -6 -21q0 -6 3 -14.5t6 -15.5q4 -15 16 -25q7 -15 26 -15q10 -6 29 -6h22q3 2 8 4t8 4l10 6t6 7q11 8 15 16zM74 262h158v-24
q0 -4 -1 -6q0 -3 -2 -5l-4 -4l-105 -143h1l2 2h108v-39h-164v13q0 11 2 13q0 2 5 7v4l2 4q2 2 4 3.5t2 6.5l94 129h-102v39zM1839 203q-4 -4 -7 -10.5t-7 -14.5q-2 -4 -4 -10t-2 -14q0 -7 2 -15l4 -12q2 -7 6 -14.5t8 -10.5q4 -4 9.5 -8.5t14.5 -7.5q12 -4 27 -4q5 0 10 1
t12 1q3 2 8 5t8 7q3 0 9 2h13q3 0 9 -2q2 -1 3.5 -3t3.5 -4l6 -7q-3 -4 -6 -7.5t-7 -7.5q-7 -5 -11.5 -8t-12.5 -6q-7 -4 -11.5 -5t-10.5 -3t-11 -2h-12q-12 0 -23.5 2t-21.5 4q-10 5 -18.5 12t-16.5 15q-16 13 -22 35q-4 10 -7 19.5t-3 23.5q0 10 1 14l4 14q1 7 3 14t6 11
q6 8 8.5 13t9.5 11q14 9 25 19q4 2 9.5 4t18.5 6q5 0 12 1t15 1h13q4 0 10 -2t10.5 -3t11.5 -3q8 -4 12.5 -6.5t11.5 -7.5l13 -17l-6 -8q-2 -1 -5 -4l-2 -4h-15q-7 0 -16 4l-16 10q-10 2 -12 2h-10q-17 0 -27 -7q-17 -1 -24 -13zM1690 151l7 -10.5t3 -7.5q6 -8 6 -20
q0 -15 -8 -29l-8 -12l-9 -10q-7 -6 -11.5 -9.5t-12.5 -5.5q-5 -2 -14 -3t-15 -1q-8 0 -14.5 1l-19.5 3q-5 2 -10 6.5t-11 13.5q-4 1 -6 5l-4 8q-7 2 -7 9l7 5q2 2 4 2h4l2 2h10q4 0 4 -2q7 0 9 -2q7 -5 10.5 -6.5t5.5 -3.5q2 0 6 -1t10 -1h5q2 0 6 2q5 1 8 2t7 3q6 6 7 9
q2 4 4 7.5t2 7.5q0 7 -6 10q-5 6 -7 6q-2 4 -7.5 5t-7.5 2q-6 0 -14 7q-5 0 -9 1t-9 7q-11 3 -14.5 6t-7.5 7q-12 4 -12 14q-6 10 -6 25q0 18 6 26l6 11l8 10q4 2 10 4t13 6q6 0 10.5 1t13.5 1q4 0 8.5 -1t11.5 -1l15 -6q3 -4 6.5 -6.5t7.5 -7.5q4 -2 7.5 -5.5t3.5 -7.5
l-7 -4q-4 -2 -7 -4.5t-3 -3.5h-18l-5 1l-7 5q-2 0 -4 1t-4 1h-17q-2 0 -3 -1t-5 -3q-2 -3 -6 -6q-1 -3 -1 -10q0 -5 1 -5q2 -2 3 -5.5t3 -7.5h6q1 0 5 -2q5 -1 9.5 -3t10.5 -4l9 -2q5 -4 9 -5t9 -5q5 -2 10 -5t8 -8zM1579 336q-12 7 -16 20q-7 17 -7 31v16l11 20l12 13
q6 7 12 9q3 7 9.5 8t9.5 3q4 0 8 1.5t10 1.5q4 0 10.5 -1.5t10.5 -1.5q5 -2 8.5 -3t7.5 -8q2 -2 5.5 -4.5t6.5 -4.5l13 -13l8 -20q0 -4 1 -9t1 -7q0 -6 -1 -14t-5 -17q-5 -13 -17 -20q-5 -4 -9.5 -7.5t-11.5 -10.5q-5 -1 -12 -1.5t-16 -0.5h-15q-4 0 -10 2q-18 7 -24 18z
M2284 336q-7 -4 -13.5 -7.5t-11.5 -10.5q-8 -2 -12 -2h-30q-5 0 -13 2q-7 4 -12.5 8.5t-10.5 9.5q-6 6 -13 20q-2 9 -4.5 17t-2.5 14q0 2 1 7t1 9q3 5 4 10t4 10q2 3 5 6t5 7q6 4 18 9q3 7 8 8t7 3q6 0 9 1.5t10 1.5q2 0 8.5 -1.5t11.5 -1.5q4 -2 7.5 -3t6.5 -8l17 -9
q2 -4 4 -7t5 -6q2 -5 4 -9.5t3 -10.5q2 -4 3 -9t1 -7q0 -6 -1 -14t-5 -17q0 -6 -5 -11zM2166 127q5 12 5 27q0 16 -5 24q-3 9 -8 15.5t-8 9.5q-10 10 -24 13q-4 5 -12 6t-17 1q-12 0 -25 -7q-8 -1 -13 -4t-11 -9q-4 -3 -7.5 -9.5t-8.5 -15.5q0 -4 -1 -10t-1 -14q0 -9 1 -15
t1 -12q4 -8 8 -14t8 -11q6 -4 11 -8.5t13 -7.5q7 -2 14 -3t11 -1q9 0 17 1t12 3q8 3 14 7.5t10 8.5q11 11 16 25zM1104 127q4 11 4 27q0 13 -4 24q-2 9 -6.5 15.5t-13.5 9.5q-2 6 -7.5 9t-11.5 4q-11 7 -30 7q-14 0 -25 -7q-11 -1 -23 -13q-6 -3 -9 -9.5t-5 -15.5
q-5 -5 -5 -10v-29q0 -5 5 -12q2 -7 5 -14.5t9 -10.5q6 -4 11 -8.5t12 -7.5q11 -4 25 -4q19 0 30 4q13 7 19 16q9 3 13.5 10.5t6.5 14.5zM774 262h139v-39h-100v-55h82v-39h-82v-86h-39v219zM570 223h-58v-180h-43v180h-62v39h163v-39zM1188 864q-19 7 -37 19t-35 26h322
q-18 -14 -36 -26t-36 -19q-24 -6 -45.5 -11t-44.5 -5q-25 0 -45.5 5t-42.5 11zM1389 262h165v-39h-65v-180h-39v180h-61v39zM1366 1315q18 -8 36 -20.5t36 -22.5h-325q38 30 75 43q37 18 88 18q48 0 90 -18zM559 604l-47 68q4 0 11 4q8 5 9 10q9 5 9 11v26q0 1 -2 5
q-3 10 -11 15q-5 9 -14 9q-2 5 -6.5 6t-9.5 1h-57v-155h24v64h23l40 -56q1 -4 8 -6q2 -2 3 -2h20zM1169 604l-67 155h-22l-65 -155h11q7 0 9 2q0 2 7 6l11 27h76l13 -27q1 -4 5 -6q2 -2 8 -2h14zM1930 721q3 -2 8 -7.5t6 -12.5q4 -7 4 -21q0 -12 -4 -23q-1 -5 -6 -9.5
t-8 -6.5q-5 -4 -9 -6.5t-8 -7.5q-9 -4 -23 -4q-6 0 -12 1t-10 3q-5 5 -10.5 7.5t-9.5 6.5q-3 2 -6 6.5t-3 9.5q-4 7 -5 12t-1 11q0 10 6 21q0 7 3 12.5t6 7.5q4 4 9.5 7t10.5 5q9 4 22 4q5 0 11.5 -1t11.5 -3zM801 721q7 -2 9.5 -7.5t4.5 -12.5q4 -7 4 -21q0 -11 -4 -23
q-2 -5 -4.5 -9.5t-9.5 -6.5q-1 -4 -6 -7l-11 -7q-9 -4 -22 -4q-11 0 -23 4q-4 5 -9 7.5t-9 6.5q-2 2 -5.5 6.5t-5.5 9.5q-4 12 -4 23q0 12 4 21q2 7 5.5 12.5t5.5 7.5q4 4 9 7t9 5q5 2 12.5 3t10.5 1q13 0 22 -4q8 -2 11.5 -5t5.5 -7zM2126 759h-22v-120q-1 2 -2 5t-3 4
l-75 104l-3 7h-24v-155h22v121l2 -2l87 -119h18v155zM2218 332h31l6 3q3 3 4 5q6 0 14 5q2 5 3 7t4 4q0 3 3 8t3 10v34q-3 6 -7 10.5t-6 7.5q-10 4 -18 12h-43q-6 -4 -9.5 -7t-9.5 -5q-5 -3 -7.5 -7.5t-4.5 -10.5q-1 -4 -1.5 -7t-0.5 -7v-20q0 -13 5 -18q2 -2 4.5 -4t4.5 -7
l7 -3q2 -2 4 -2q4 -4 7 -5t7 -3zM296 690q5 12 5 20q0 9 -5 18q0 2 -5 7l-6 6q-2 3 -5 7t-10 4q-3 5 -8.5 6t-9.5 1h-52v-155h16v59h36q4 0 9.5 0.5t8.5 2.5q10 4 15 10q4 2 7.5 6t3.5 8zM1579 408q-6 -14 -6 -21v-8q0 -4 3 -5q0 -10 5 -18q0 -2 2 -4t4 -7l5 -3q2 -2 11 -2
q2 -4 5.5 -5t5.5 -3h27q6 2 9.5 3t6.5 5l6 2l4 3q2 5 4.5 7t2.5 4q3 3 4 8t3 10q0 2 1 5.5t1 7.5q0 2 -1 8t-5 13q0 6 -4 10.5t-6 7.5q-3 1 -8 6l-10 6h-42q-4 -4 -10 -7l-10 -5l-5 -8q-3 -5 -3 -10zM997 759h-18v-120l-2 4q-2 6 -2 5l-74 104q-5 0 -6 7h-25v-155h21v124h2
l2 -1v-4l86 -119h16v155zM2115 381q-5 -1 -8.5 -2t-5.5 -2l45 -61h-12l-6 2q-4 0 -4 9l-39 50h-28v-61h-15v140h57q3 0 9 -2q2 -2 6.5 -5.5t5.5 -5.5q4 -2 5 -5.5t7 -7.5v-27q-4 -4 -5 -8t-3 -6zM1342 381q-3 -3 -11 -4l47 -61h-15q-3 0 -3 2q-6 0 -6 9l-39 50h-28v-61h-13
v140h56q2 0 6 -2q10 -1 18 -11q0 -2 3 -5.5t3 -7.5q2 -2 2 -6v-14q0 -1 -2 -7q0 -10 -4 -14l-5 -4q-3 -3 -9 -4zM412 759h-98v-155h98v21h-74v47h58v18h-58v45h74v24zM1721 759h-93v-155h93v21h-69v47h58v18h-58v45h69v24zM2460 454q6 2 5 2h13v-140h-12v114l-2 -2v-2
q-4 -8 -6.5 -17.5t-8.5 -14.5q-5 -7 -7 -12.5t-7 -14.5q-2 -9 -3 -15.5t-5 -9.5q-3 -8 -6.5 -12.5t-5.5 -13.5h-15q-10 14 -15 27t-10 28q-4 12 -12 26.5t-12 28.5v2h-4v-112h-14v140h14q4 0 6 -2l2 -2v-7l49 -105q0 -4 2 -4l1 2v4q0 2 8 6l41 97q2 7 3 7t1 2zM1480 759h-22
v-104q0 -4 -2 -8q-1 -7 -10 -12q0 -2 -4 -3.5t-6 -6.5l-9 -2h-9q-7 0 -13 2q-5 5 -8.5 6.5t-5.5 3.5l-11 12q0 3 -1 7.5t-1 11.5v93h-20v-93q0 -7 1 -11.5t1 -7.5q0 -8 6 -14q3 -8 10 -12q2 -4 4.5 -6.5t8.5 -4.5q2 -2 6.5 -3t7.5 -3q4 0 7 -1.5t8 -1.5t8.5 1.5t11.5 1.5
q2 2 5 3t7 3q3 2 6 4.5t6 6.5q3 2 5 5.5t7 6.5q0 4 3 7t3 7v112zM664 632q2 5 3 8t1 8q0 12 -5.5 20t-12.5 14q-2 0 -3.5 2t-5.5 4l-4 2h-4q-1 0 -1 4q-8 0 -9 1q-8 2 -9.5 3t-5.5 3q-6 5 -9 5q-3 4 -3 6v15q0 1 1.5 2.5t1.5 3.5q2 0 4.5 1t4.5 1q6 2 5 2h10q2 -2 4 -2
q7 0 8 -4q1 -3 4 -3h2q9 0 14 5l4 2q0 2 -2 4l-5 4q-2 1 -4.5 4t-6.5 5q-2 0 -4 2.5t-5 4.5q-5 0 -7 0.5t-4 0.5q-7 0 -12 -0.5t-8 -0.5q-5 -2 -7 -4.5t-6 -4.5q-2 -6 -5.5 -8.5t-8.5 -6.5q0 -4 -2 -7t-2 -9t4 -18l12 -11q2 -2 6 -5t7 -3q5 -2 8 -4t7 -2q1 -2 6 -2t7 -2
l6 -2q2 0 4 -2t2 -3t2 -6q2 -2 2 -7v-9q0 -2 -2 -4t-2 -4t-2 -3q-2 -5 -6 -6l-4 -1q-4 0 -8 -1t-5 -1q-4 0 -7 1t-6 1q-2 0 -3.5 1t-1.5 6l-4 1q-4 4 -11 4h-7l-4 -2l-5 -2q0 -3 3 -3q0 -3 2 -5q0 -4 4 -4v-6h5q7 -7 16 -9t19 -2h10q5 0 11 2q4 2 8.5 4t6.5 5q13 5 14 17z
M1741 316h-18v140h20q3 0 4 -4l74 -104q2 0 2 -5l2 -1v114h14v-140h-12l-82 114v4h-4v-118zM1596 632q9 7 9 16q0 12 -5.5 20t-12.5 14q-6 4 -6 6h-4l-4 2h-3q-4 0 -5 4h-4q-2 0 -5 1q-2 2 -4 3t-7 3l-7 5q-2 1 -3 2l-2 2l-1 2q0 1 -1 3t-1 4q0 4 4 8q0 2 4 6q2 0 3 1t4 1
q2 2 11 2l4 -1q2 -1 5 -1q3 -3 8 -4q6 -3 8 -3q6 0 8 5l5 2q0 2 -2.5 4t-4.5 4q0 1 -3 4l-5 5q-3 0 -5.5 2.5t-6.5 4.5h-6l-5 1q-6 0 -10 -0.5t-8 -0.5l-13 -9q-5 -6 -7 -8.5t-6 -6.5q-1 -4 -3 -7t-2 -9q0 -4 2 -7.5t3 -10.5l10 -11q5 -2 7.5 -5t6.5 -3q4 -2 7.5 -4t6.5 -2
q4 -2 7 -2t6 -2q6 0 10 -4l4 -3q2 -2 2 -6q2 -2 2 -6v-9q0 -3 -2 -5q0 -6 -6 -7q-6 -5 -7 -6t-3 -1q-7 0 -8 -1t-5 -1q-3 0 -6.5 1t-5.5 1q-2 1 -4 3l-4 4l-2 1q-5 4 -10 4h-7q-2 0 -4 -2l-6 -2q2 -1 2 -2t2 -1q0 -3 1 -4l3 -3v-2q6 -6 9 -6q7 -7 14.5 -9t17.5 -2h12
q3 0 11 2q3 2 6.5 4t7.5 5l5 8q3 3 4 9zM78 350q-6 6 -7 17l-3 10q-1 3 -1 10t4 16l2 10t5 10l4 6l5 7q2 2 6.5 4.5t6.5 4.5q6 7 11 8t9 3q3 0 8 1.5t10 1.5q7 0 14.5 -1.5t13.5 -5.5q8 -2 12.5 -6.5t8.5 -9.5q-2 -2 -4 -2v-4h-13q-4 2 -7 5t-7 3h-36l-22 -12
q-4 -3 -7.5 -7.5t-4.5 -10.5q-2 -7 -3 -13t-1 -8q0 -9 4 -13q0 -5 0.5 -10t0.5 -8l5 -4q4 -1 6 -7l7 -4q3 -1 8 -1q3 -4 5.5 -5t6.5 -3h33q2 2 7 3t9 5v29h-14v2q-2 0 -3 1.5t-3 3.5h-2q-1 1 -1 3v4h36v-51q-2 -5 -3.5 -6t-5.5 -8h-12q-8 -2 -12 -2h-34q-4 0 -9 3.5t-11 7.5
q-2 0 -6.5 2.5t-6.5 6.5q-3 4 -5 6.5t-4 7.5zM240 438v-44h56v-15h-56v-47h67v-16h-84v140h84v-18h-67zM1171 438v-44h60v-15h-60v-47h68v-16h-84v140h84v-18h-68zM2375 759h-20q-3 0 -8 -5q-6 -5 -6 -10l-37 -47h-2q0 -2 -2 -2v2l-39 47q-1 7 -4 10q-5 5 -11 5h-18l58 -77
v-2q0 -2 2 -2l2 -2v-72h21v70q2 0 2 2l2 4v2zM641 456v-85q0 -7 2 -10t5 -5q0 -6 3.5 -9.5t5.5 -4.5q0 -2 4.5 -4t6.5 -4q6 -2 8 -2h16q1 0 5 2l9 4q2 1 3.5 2t3.5 2q3 1 8 14q4 3 4 15v85h14v-85q0 -12 -4 -23t-12 -16q-2 -5 -6.5 -9.5t-8.5 -4.5q-8 -1 -13.5 -1.5
t-10.5 -0.5t-11 0.5t-14 1.5q-2 0 -6.5 4.5l-9.5 9.5l-10 16q-1 6 -3.5 11t-2.5 12v85h14zM2253 625h-69v134h-21v-155h90v21zM1271 625h-67v134h-20v-155h87v21zM1452 336q1 2 2 3.5t2 3.5q2 2 3 6.5t1 6.5q0 9 -2 11t-3 4.5t-3 4.5q-1 1 -8 3q-4 0 -6 2t-6 2q-8 0 -14 6
q-9 0 -13 7q-2 0 -3.5 3.5t-3.5 7.5v22q0 1 2 7q0 8 7 9l6 7q2 1 3.5 2t3.5 2q5 0 7.5 1.5t8.5 1.5l6 -2l4 -1q4 0 5 -1t5 -3q2 0 4 -3.5t2 -5.5q4 0 6 -3l1 -2l-2 -2q-6 -2 -9 -2h-6q-2 2 -2 4h-23q-9 0 -9 -2q-5 -7 -5 -8q-4 0 -4 -8q0 -5 4 -6q0 -5 3 -6q0 -1 3 -4l4 -1
q4 -4 7.5 -4t7.5 -3q3 0 4 -1l2 -1q4 0 8 -5h4q2 0 4 -2h2q5 -4 8.5 -7t5.5 -4q1 -5 1.5 -10.5t0.5 -9.5v-10q0 -5 -4 -6q-3 -4 -5.5 -7.5t-6.5 -5.5q-2 -2 -6 -5.5t-6 -3.5q-6 -2 -10 -2h-9q-11 0 -18.5 1t-12.5 10q-2 0 -3.5 2.5t-5.5 4.5v4l-2 2l4 2h7q1 0 3 -1t4 -1
q4 -4 6.5 -5t4.5 -3h22q8 0 12 4zM1069 316l-59 140h6q6 0 8 -2t3 -2t3 -7l43 -103v-2l2 -6v6l2 2q5 14 13 27.5t12 24.5q4 16 10 28t12 23q0 7 1.5 7t1.5 2q6 2 7 2h11q-8 -18 -15.5 -35t-16.5 -34q-4 -9 -7 -18.5t-6 -18.5l-16 -34h-15zM532 438v-49h60v-12h-60v-61h-16
v140h85v-18h-69zM1959 438v-49h54v-12h-54v-61h-16v140h81v-18h-65zM879 456v-124h63v-16h-80v140h17zM371 316v122h-46v18h105v-18h-47v-122h-12zM784 456v-124h64v-16h-80v140h16zM270 728q2 -1 3 -4t3 -5q4 -4 4 -9v-4q0 -5 -4 -9q-2 -2 -3 -4.5t-3 -2.5l-4 -4l-4 -4h-46
v53h36q4 0 10 -2q1 0 4 -3zM1325 389q4 0 6 3q4 4 9 4l2 5q0 2 5 6q0 1 1 4t1 7q0 2 -1 3.5t-1 4.5q-7 3 -7 8q-5 0 -9 4h-44v-49h38zM2101 392q4 4 7 4q7 7 7 11q2 4 2 11q0 4 -2 8q0 2 -7 8q-3 0 -7 4h-44v-49h36q3 0 8 3zM1525 456v-140h-18v140h18zM518 701l-4 -7
q-2 0 -3 -2t-3 -2q-2 -2 -10 -2h-33v47h33q4 0 10 -2q2 0 6 -5q1 -2 2 -3.5t2 -3.5q3 -2 3 -9q0 -5 -3 -11zM684 129l-27 69q0 2 -1 3l-1 2q0 4 -3 6v-6l-1 -2q-1 -1 -1 -3l-27 -69h61zM1093 727v-4l27 -64h-59l30 64v5zM1755 82q6 0 6 -6q2 -2 2 -5v-4q0 -9 -2 -11
q0 -5 -6 -9q-3 0 -6 -4h-17q-4 4 -11 4q0 2 -5 9q-2 2 -2 11v4q0 3 2 5l3 4l2 2q7 4 11 4q1 3 4 3h10q3 0 3 -3q3 0 6 -4z" />
    <glyph glyph-name="e.001" horiz-adv-x="1321" 
d="M1087 455h-854q9 -81 45 -151t93 -121t131.5 -80.5t160.5 -29.5q106 0 192 40t146 110l78 -69q-76 -88 -182.5 -134.5t-235.5 -46.5q-116 0 -216 42t-173.5 114t-115 168.5t-41.5 206.5t40.5 207.5t112.5 170.5t170 115.5t213 42.5q63 0 126.5 -16t121 -44.5t106 -67
t82.5 -83.5v-374zM654 938q-83 0 -156 -29.5t-129 -81t-92 -121.5t-45 -152h746v235q-28 31 -65 58.5t-79.5 47.5t-88.5 31.5t-91 11.5z" />
    <glyph glyph-name="Aogonek" unicode="&#x104;" horiz-adv-x="1325" 
d="M1031 343h-738l-147 -343h-125l583 1360h116l583 -1360h-125zM337 447h649l-319 747l-5 17l-4 -17zM1303 0q-33 -25 -69.5 -53.5t-67.5 -60t-51 -66t-20 -71.5q0 -31 22 -49t60 -18q26 0 52 6.5t57 19.5l16 -63q-34 -19 -74.5 -32.5t-85.5 -13.5q-40 0 -68.5 11t-46.5 29
t-26.5 41t-8.5 48q0 50 23.5 93t59 80.5t78.5 70t82 62.5z" />
    <glyph glyph-name="Aring" unicode="&#xc5;" horiz-adv-x="1325" 
d="M1031 343h-738l-147 -343h-125l583 1360h116l583 -1360h-125zM337 447h649l-319 747l-5 17l-4 -17zM475 1698q0 38 14 71t38.5 57t58.5 38t74 14q42 0 76 -14t59 -38t38.5 -57t13.5 -71q0 -36 -14 -67.5t-38.5 -55.5t-59 -37.5t-75.5 -13.5q-40 0 -74 13.5t-58.5 37.5
t-38.5 55.5t-14 67.5zM552 1698q0 -21 8.5 -40.5t23 -33.5t34 -22.5t42.5 -8.5q24 0 44.5 8.5t35.5 22.5t23 33.5t8 40.5q0 48 -31 79.5t-80 31.5q-23 0 -42.5 -8.5t-34 -23.5t-23 -35t-8.5 -44z" />
    <glyph glyph-name="Aacute" unicode="&#xc1;" horiz-adv-x="1325" 
d="M1031 343h-738l-147 -343h-125l583 1360h116l583 -1360h-125zM337 447h649l-319 747l-5 17l-4 -17zM894 1723l-169 -237h-90l167 269z" />
    <glyph glyph-name="Abreve" unicode="&#x102;" horiz-adv-x="1325" 
d="M1031 343h-738l-147 -343h-125l583 1360h116l583 -1360h-125zM337 447h649l-319 747l-5 17l-4 -17zM947 1771q-16 -101 -87.5 -158.5t-196.5 -57.5q-126 0 -197.5 57.5t-86.5 158.5l86 9q10 -31 24 -56t36.5 -43t56 -27.5t81.5 -9.5t81 9.5t55.5 27.5t36.5 43t24 56z" />
    <glyph glyph-name="Agrave" unicode="&#xc0;" horiz-adv-x="1325" 
d="M1031 343h-738l-147 -343h-125l583 1360h116l583 -1360h-125zM337 447h649l-319 747l-5 17l-4 -17zM533 1819l168 -269h-90l-168 237z" />
    <glyph glyph-name="Atilde" unicode="&#xc3;" horiz-adv-x="1325" 
d="M1031 343h-738l-147 -343h-125l583 1360h116l583 -1360h-125zM337 447h649l-319 747l-5 17l-4 -17zM988 1697q-47 -80 -99.5 -115.5t-112.5 -35.5q-42 0 -80.5 12t-73.5 26.5t-66.5 26.5t-60.5 12q-28 0 -53.5 -14t-50.5 -53l-57 40q37 63 91.5 92t126.5 12q30 -6 59 -18
t57 -23t55 -19.5t54 -8.5q38 0 76.5 23t76.5 83z" />
    <glyph glyph-name="Amacron" unicode="&#x100;" horiz-adv-x="1325" 
d="M1031 343h-738l-147 -343h-125l583 1360h116l583 -1360h-125zM337 447h649l-319 747l-5 17l-4 -17zM394 1690h535v-79h-535v79z" />
    <glyph glyph-name="Adieresis" unicode="&#xc4;" horiz-adv-x="1325" 
d="M1031 343h-738l-147 -343h-125l583 1360h116l583 -1360h-125zM337 447h649l-319 747l-5 17l-4 -17zM428 1665q0 30 21 50.5t53 20.5q35 0 56 -20.5t21 -50.5q0 -29 -21 -49t-56 -20q-32 0 -53 20t-21 49zM744 1665q0 30 21.5 50.5t53.5 20.5q35 0 55.5 -20.5t20.5 -50.5
q0 -29 -21 -49t-55 -20q-33 0 -54 20t-21 49z" />
    <glyph glyph-name="Acircumflex" unicode="&#xc2;" horiz-adv-x="1325" 
d="M1031 343h-738l-147 -343h-125l583 1360h116l583 -1360h-125zM337 447h649l-319 747l-5 17l-4 -17zM947 1601l-46 -66l-240 173l-240 -173l-47 66l286 205z" />
    <glyph glyph-name="afii10021" unicode="&#x414;" horiz-adv-x="1464" 
d="M1280 0h-1098v-295h-117v402h82q28 17 55 55t51.5 88t45.5 107.5t37 114.5t26.5 108.5t14.5 90.5l61 689h794v-1253h166v-402h-118v295zM494 660q-7 -66 -23 -141.5t-40.5 -150.5t-58 -143t-75.5 -118h818v1146h-568z" />
    <glyph glyph-name="Alpha" unicode="&#x391;" horiz-adv-x="1325" 
d="M1031 343h-738l-147 -343h-125l583 1360h116l583 -1360h-125zM337 447h649l-319 747l-5 17l-4 -17z" />
    <glyph glyph-name="Lambda" unicode="&#x39b;" horiz-adv-x="1325" 
d="M670 1182l-8 24l-8 -24l-508 -1182h-125l583 1360h116l583 -1360h-125z" />
    <glyph glyph-name="afii10017" unicode="&#x410;" horiz-adv-x="1325" 
d="M1031 343h-738l-147 -343h-125l583 1360h116l583 -1360h-125zM337 447h649l-319 747l-5 17l-4 -17z" />
    <glyph glyph-name="Hbar" unicode="&#x126;" horiz-adv-x="1483" 
d="M189 1360h118v-296h867v296h119v-1360h-119v621h-867v-621h-118v1360zM1174 726v249h-867v-249h867z" />
    <glyph glyph-name="Hcircumflex" unicode="&#x124;" horiz-adv-x="1483" 
d="M189 1360h118v-634h867v634h119v-1360h-119v621h-867v-621h-118v1360zM1041 1601l-46 -66l-240 173l-240 -173l-47 66l286 205z" />
    <glyph glyph-name="Icircumflex" unicode="&#xce;" horiz-adv-x="496" 
d="M189 1360h118v-1360h-118v1360zM536 1601l-46 -66l-240 173l-240 -173l-47 66l286 205z" />
    <glyph glyph-name="Imacron" unicode="&#x12a;" horiz-adv-x="496" 
d="M189 1360h118v-1360h-118v1360zM-17 1690h535v-79h-535v79z" />
    <glyph glyph-name="Iogonek" unicode="&#x12e;" horiz-adv-x="496" 
d="M189 1360h118v-1360h-118v1360zM307 0q-33 -25 -69.5 -53.5t-67.5 -60t-51 -66t-20 -71.5q0 -31 22 -49t60 -18q26 0 52 6.5t57 19.5l16 -63q-34 -19 -74.5 -32.5t-85.5 -13.5q-40 0 -68.5 11t-46.5 29t-26.5 41t-8.5 48q0 50 23.5 93t59 80.5t78.5 70t82 62.5z" />
    <glyph glyph-name="Iacute" unicode="&#xcd;" horiz-adv-x="496" 
d="M189 1360h118v-1360h-118v1360zM466 1788l-169 -237h-90l167 269z" />
    <glyph glyph-name="Ibreve" unicode="&#x12c;" horiz-adv-x="496" 
d="M189 1360h118v-1360h-118v1360zM532 1769q-16 -101 -87.5 -158.5t-196.5 -57.5q-126 0 -197.5 57.5t-86.5 158.5l86 9q10 -31 24 -56t36.5 -43t56 -27.5t81.5 -9.5t81 9.5t55.5 27.5t36.5 43t24 56z" />
    <glyph glyph-name="Igrave" unicode="&#xcc;" horiz-adv-x="496" 
d="M189 1360h118v-1360h-118v1360zM120 1819l168 -269h-90l-168 237z" />
    <glyph glyph-name="Itilde" unicode="&#x128;" horiz-adv-x="496" 
d="M189 1360h118v-1360h-118v1360zM577 1697q-47 -80 -99.5 -115.5t-112.5 -35.5q-42 0 -80.5 12t-73.5 26.5t-66.5 26.5t-60.5 12q-28 0 -53.5 -14t-50.5 -53l-57 40q37 63 91.5 92t126.5 12q30 -6 59 -18t57 -23t55 -19.5t54 -8.5q38 0 76.5 23t76.5 83z" />
    <glyph glyph-name="Idieresis" unicode="&#xcf;" horiz-adv-x="496" 
d="M189 1360h118v-1360h-118v1360zM18 1665q0 30 21 50.5t53 20.5q35 0 56 -20.5t21 -50.5q0 -29 -21 -49t-56 -20q-32 0 -53 20t-21 49zM334 1665q0 30 21.5 50.5t53.5 20.5q35 0 55.5 -20.5t20.5 -50.5q0 -29 -21 -49t-55 -20q-33 0 -54 20t-21 49z" />
    <glyph glyph-name="Eta" unicode="&#x397;" horiz-adv-x="1506" 
d="M189 1360h118v-634h867v634h119v-1360h-119v621h-867v-621h-118v1360z" />
    <glyph glyph-name="afii10031" unicode="&#x41d;" horiz-adv-x="1506" 
d="M189 1360h118v-634h867v634h119v-1360h-119v621h-867v-621h-118v1360z" />
    <glyph glyph-name="Pi" unicode="&#x3a0;" horiz-adv-x="1519" 
d="M1213 1253h-906v-1253h-118v1360h1141v-1360h-117v1253z" />
    <glyph glyph-name="afii10033" unicode="&#x41f;" horiz-adv-x="1519" 
d="M1213 1253h-906v-1253h-118v1360h1141v-1360h-117v1253z" />
    <glyph glyph-name="afii10042" unicode="&#x428;" horiz-adv-x="2064" 
d="M189 1360h118v-1253h666v1253h117v-1253h668v1253h117v-1360h-1686v1360z" />
    <glyph glyph-name="afii10026" unicode="&#x418;" horiz-adv-x="1510" 
d="M189 1360h117v-1153l920 1153h95v-1360h-118v1148l-917 -1148h-97v1360z" />
    <glyph glyph-name="afii10030" unicode="&#x41c;" horiz-adv-x="1765" 
d="M823 481l-518 683v-1164h-118v1360h100l557 -728l555 728h103v-1360h-118v1163l-521 -682h-40z" />
    <glyph glyph-name="afii10055" unicode="&#x406;" horiz-adv-x="496" 
d="M189 1360h118v-1360h-118v1360z" />
    <glyph glyph-name="afii10056" unicode="&#x407;" horiz-adv-x="496" 
d="M54 1665q0 30 21 50.5t53 20.5q35 0 56 -20.5t21 -50.5q0 -29 -21 -49t-56 -20q-32 0 -53 20t-21 49zM370 1665q0 30 21.5 50.5t53.5 20.5q35 0 55.5 -20.5t20.5 -50.5q0 -29 -21 -49t-55 -20q-33 0 -54 20t-21 49zM189 1360h118v-1360h-118v1360z" />
    <glyph glyph-name="afii10057" unicode="&#x408;" horiz-adv-x="756" 
d="M45 105h125q90 0 150 22t96 64t51.5 102.5t15.5 136.5v930h117v-931q0 -105 -25 -185t-77.5 -134.5t-133.5 -82t-194 -27.5h-125v105z" />
    <glyph glyph-name="Idotaccent" unicode="&#x130;" horiz-adv-x="496" 
d="M189 1360h118v-1360h-118v1360zM172 1663q0 30 21.5 50.5t53.5 20.5q35 0 55.5 -20.5t20.5 -50.5q0 -29 -20.5 -49t-55.5 -20q-33 0 -54 20t-21 49z" />
    <glyph glyph-name="Iota" unicode="&#x399;" horiz-adv-x="496" 
d="M189 1360h118v-1360h-118v1360z" />
    <glyph glyph-name="Iotadieresis" unicode="&#x3aa;" horiz-adv-x="496" 
d="M54 1665q0 30 21 50.5t53 20.5q35 0 56 -20.5t21 -50.5q0 -29 -21 -49t-56 -20q-32 0 -53 20t-21 49zM370 1665q0 30 21.5 50.5t53.5 20.5q35 0 55.5 -20.5t20.5 -50.5q0 -29 -21 -49t-55 -20q-33 0 -54 20t-21 49zM189 1360h118v-1360h-118v1360z" />
    <glyph glyph-name="Mu" unicode="&#x39c;" horiz-adv-x="1765" 
d="M823 481l-518 683v-1164h-118v1360h100l557 -728l555 728h103v-1360h-118v1163l-521 -682h-40z" />
    <glyph glyph-name="Emacron" unicode="&#x112;" horiz-adv-x="1162" 
d="M189 1360h881v-107h-763v-527h666v-105h-666v-516h772v-105h-890v1360zM365 1690h535v-79h-535v79z" />
    </font>
</defs>
</svg>
